<mxfile host="65bd71144e">
    <diagram id="v9wmv8vquL6-h31th1vb" name="Page-1">
        <mxGraphModel dx="1365" dy="469" grid="1" gridSize="10" guides="1" tooltips="1" connect="1" arrows="1" fold="1" page="1" pageScale="1" pageWidth="827" pageHeight="1169" math="0" shadow="0">
            <root>
                <mxCell id="0"/>
                <mxCell id="1" parent="0"/>
                <mxCell id="2" value="" style="shape=stencil(lVjZUtxADPyafVVppDmfSfIfVAFhK4SlFnL9feRsjfFo1p3ibTGt8Ujq1uGD3rw+3r7cH4Rf386nb/e/jndvjwf9dBA5Pj/en49v9uugnw9683A63389n348313+frldkMuv76efywm/L3ZJictiJfzn8iRQaP8efLngn47PW3yl1gY8U0j7+JwoZodn3scX8fdhagHgK5U04IUqwFe7TxjwmTjv41ugKGN8mAQEqNl54wvCGoLrBubB+AZLgSowaKTOoFAGPjf795gzjTAJLfqgautpv27AVMcsR3Ma+FAzJWdgb4jAQKjUwcCYmwUYMKWRSMneWaEB62jQOhevG6wXWKlkT0CmayHh0SBTAU4b+XT0oTBF4ENLlOJoECkDeRr5HDVKIwGJC7zqt1tYHCq6k/HbGdSuwT32hdHrJhSBEwuZnEGiDJwo2Rcxk0gFmbMq5vhtIkRlz8hZizeoQHIxUBujtIn0VQvlTuftKwBfQ+2VcWMQkeZ6Xle8sQXgZcpbhaXSSit7fAAOcBfLJmsNlAAr1NnjEzyfxeMDYMVUMKz2F3gfDR6vQAg85StRA0qzeDaPR+VFSD4kGxsV6oQH8TQNiMdXcH7sLWMTnwDiGftpG3xCGptUnyF/4sT/QgpEHympx6P4KzXHz0oMzleS6PEC8xsnvIL4hK7u7fkgX9w79vb+kM86Vd0M6gP7UXCJP7j/1Jksv6ggcp90N3hUD9n3+2XWg3qUcYpa+A/iI35yXPQF+CBX6gOuzx/DNz9MmL8C9BJal+tWYCBA1sLynGFgYF1ybgFoILI+rFMPELSvxKloZdg0bMDyKk59atsbG9XRQrFBm8YbhjxazhujZJMnKrw2ceWxctXYe+feG9z4Xhkb2LAyhtVmMNRbbaZzw4RthoIWO6PGaJArJZDpsg4Pq0GC9C6pb4qrwTq07VHDkc+2Z7SC2BvKqNCUYEWy7dflIQncHes6Sa97V+2E352txyvF2MvCXqbD2DVtd1REDfF5UMU7S+w1YrP/FmSgVMYoWWmG62zwPoTcM7MXJdcKg/Qj9tgq4xtqF8geM7JjBmxttifKGNSIy17yMcU1KXNP0TseqTNFKuruE4B0DM/J4wGJkvpN2fCApSaT4uPDQDeGD+r8rej8MMcHKd/wyj6eyN/Qw/f+2Qt9JjO8m6UEqjgFPxthPhs+OsVQRftx6Nd9xyfk71S3Qu9xe3z42GfN/+Ltx/s31Ifj09PlE+z2//6bqz26fK/Vz38B);lineShape=1;" vertex="1" parent="1">
                    <mxGeometry x="16.794071480546762" y="48.277410850806234" width="7.925612762752177" height="14.791722476996721" as="geometry"/>
                </mxCell>
                <mxCell id="3" value="" style="shape=stencil(lZdLctswDIZPoy2GIAg+1ml6j8zEqTV17YzjtsntC9VlYkIpKO5kCZ8J4seDnOjuZf/wvJu8e7mcT993v+fHy36iL5P383G/O88XeZrofqK7p9N59+18+nl8vP5+flgsl6cfp1/LP7xeOXQOnFsw797+vYJEf198vQKH+XgDlAxB2XsgbwAJPLVAgYIGEIFKA/gMsRgAQ8oNQOKktQcGCg0QMuRgAg4bgAtgMoCgXYqyQjSB2K6QEkQbCG2UcoTobKAVrhBwNpWO3AIZyBYOnQYy/x/IuabaO1CADOEkJuQ0kAyXImnhBCiG0kFWiG22flTIpwQhlKKXyEZcMQOvNmEpl2t93dijsYDXmbEoaTkEMWh7NFTgKuq7fTL9x1DL9wZAIy+8tAy14wjZ6DHBAwYNRENmTlWijUDykMqIS5lXqtmblvrEobAu1dimakc3+T9GDViJUbB+3ph5GSGsAGsPMQ0WD3uIbVi79RmhpJEWIPWj09VuMojgVytYbYygDPVJBBpqxKP2XDXaOBlY51Fn9LAe6J3Zxrr8O8Mz6CTqTOdQV984/oP2p3O+ID3LOwcY6S1t/nROSKj16hzBBo94UsSszO3sUUPcQTGcEV85K3s2xFrv1oE3gkleV6Orx5LPxZVq1P5Y/YQjOL1fy15a3Co+lj9JcguVPVmng1RzcVs8Zc6s4mPpJb2DR9Jh+EaxAZCHjwvM03w4XO8/t9/1hUdeXS9LdP8H);lineShape=1;" vertex="1" parent="1">
                    <mxGeometry x="38.879423709945854" y="50.313330333859" width="0.4014430208773632" height="11.550592566998583" as="geometry"/>
                </mxCell>
                <mxCell id="4" value="" style="shape=stencil(rVfLbttADPwaXYnlvvecpv8RIE5t1LUDx+nj70tVXdWkumMU6E22OFpySA65U3h42z+97ibv3q6X8+fdt8PzdT+FD5P3h9N+dzlc5WkKj1N4eDlfdp8u5/fT8/L79Wm2nJ++nL/OX/i+4JiSn0He/Vj+8J5y+vXPx8X+eDjd2BcKRdlzoBLH9lwoVwXI5MLYfn6d9AGU29g+iH1T9o6cG9vHQq4a+wb8SZVi1gRB+9zIa4LkA4CfUqkZQhNFHgNqpeC0Q4kSyFiLVPUJoRJ7ANiEHBo14JIAms5B9OQzALTOyQoolNAJjYrOWkrEGGBozbEnZgjQMZRIDrHUqAad6EABZFoAv0PsgMb3XHI6hpapIVprL4QVIE7iTDu2gIROkDQ565IH7SYAG4PrDft3QLaZrtzrdwTIOujiKSKXcheUtTR816gRoGmWkmgeorVYDYi5t9QIUEw/iOrhTHvNUrib6ertCYyr1chMFF3C1WpoTb7PimHH6QbKDHua3Srta6odlTtHaEB1FJBWShCmqYU4TJPXgJYo4MwVA5BPYHFlzesND/8LETfCwT2u0RBiXU7zHAM9JK+rPkEGpQPEymvedGkAPM2DWhObChxzcSNNMlPQEJJVwwQ9DyEQg+wynKxLCbAky5KZKRJ0g9tY1iEUhtsJb2aWh3rPllOxR9XNPac3/RZBDpxdDkuGYi/d2zbxgpQ5YrMFpM7AwN74n3BZbwQpMRXAj9jrzSpK54Fp6Lo0rDIvFQL9ibrggofbtuverrtkgZrNtgN87G06sP+328V9e3n4c5V5ORyPy03o9r29+shfy7UpPP4E);lineShape=1;" vertex="1" parent="1">
                    <mxGeometry x="33.77299523505829" y="54.13303427794929" width="11.996479803954005" height="0.6675941248635779" as="geometry"/>
                </mxCell>
                <mxCell id="5" value="" style="shape=stencil(lZjZUlsxDIafJrcaS151Tel7MEMomVLCBLq9feWm5xDLOf/QuxD8xdoX7+LN6+Pdy34n4fXtdPy6/3m4f3vcxU87kcPz4/50eLNPu3i7izcPx9P+y+n4/fn+/PfLXT/ZP307/ui/8OvMcaMgnZLw+983Qhz/fvP5DDwdnkcgpQFoFHX7vAQqeTgfqSRwXqjVUSAqDM4XCuPvBxIB55Uau/MhbJ+PkVpy8qDfj5XyKH8iBvKnQGmUR4mBPElInH3yYoEtoMYBMBNX4LFkBg+jx5gU3BAbaRlVFgoFAJl4BLJQqgAIFEcnl1Wr615OPooqvsHCWtsY1oEq0IHjkiYrUElBYDevs0aKIJAS5dELWkiB2yyux0TWTBkl8iruClikAhNJpTqaSIUKcnOjpiPAxMBEOSwSrzZVqkCkwkskr0Cj0rYBiwIJHkDp35jCmJ7mZlS/7N81eSAhv0WS5oEIlNa2FKALQIAOBtTpBgFWUiVRD2R0g1KZgAZKhgEavR8EWInDWqYvCBQbdkVzWptaWKasHkDxbYBLaQMU2dWCc9RaA0w5A0LxAHS1+Yk9ENANlcKUcg3dUJYEuwASqGMGpClHFZn1GoBqdxepeiCAntuVnpMa6WApPOcoiqU2mdVSDonUfNPtACjfPfimGxK6Qf1g0ksVUlp9DzWzwtHwao6i4a2XAVcslQIqltYP2AOoyxkQxQMN3dD8fNhzFJmpLVXlozn634ANCnPZAGbtxXcGgJWsy3GdRAJW6tPUpANqvDav+fGH4d5gs4C64UGgp6P6xcTspmiemTaZPjEBHWxGrG4kq3AX4OBH796KQenLfpe5SKmrwJRwJpECiWTqJxmGXvbpZl5DbjaNs0voArsDF5IRqJaxwES2frnJoTIcZmxslVFnmxoLiDzbdlzdywy7g60zLhlshUJK247oZnW7s+ANyy3RtkWjDmc3qNsSC6xipoOOIjEvLwNbVspuh4NG6vvPGKpp+YHr5/PSCFa3QXnMIH5mXaberXcGr7DAGfd9a16BCHNTxG8zBiTgZQM4e6ChtxL2sxgnuGAZ4IYGAyLao6d8NiABpVmXp4LLG9AerUsbuNQBbQLTVmlWQjWvv1hNQAZ+MIAnAPXb/ojmrCTLpL8JTMGH0vMDz3T24f2R7+Hw9HR+I7z8v38UtK/OD4rx9g8=);lineShape=1;" vertex="1" parent="1">
                    <mxGeometry x="54.09681873331854" y="49.67134274301165" width="11.678950168026653" height="13.742585814873351" as="geometry"/>
                </mxCell>
                <mxCell id="6" value="" style="shape=stencil(lVfbcttACP0avTIL7PU5Tf8jM3FqT9044zi9/H1RFTlaZJ1M32SZsywcDqBB7173Dy+7QcLr5Xz6vvt1eLzsB/0yiBye97vz4WJPg94Pevd0Ou++nU9vz4/T75eH0XJ8+nH6OZ7we8Il4jyCJPyZXgTS8u/F18n8eHhemHOk0jr7RCls20sh6c/nRC1tAzTP580AiZTiNiAWCtIB1O5YtwGpknAHiJkYeMiNuPQxF2rAQ2Xi2gEKU2zbgMZUYweokUQBoFHo09qEGojBALm/UosUAA8GaD3RLZFiD++8XgGZMgq6UXKAAkujVaoOUOdL3gbYeX1pjGlAgOw9cAgUQH1bUkr2LioQkKW9JA9QAQBd5bVSZAiI4vMq2MN7rS2obiho89Br1KJKGcfgAArbjJ2XXfUJRSSItKpvnrncoroUD8hA1JZEp1EDNBR09a3SYshYQYl9lvInGlXPAyJuUc0LkQp2UVbFlDCAXRCVMqK6zhdYCAKNlLGa2QNg37D2vmoDkLlEoayuhDxE4uaDLojqmwDgoRaKbkJYnwFdoOS5DV1nkOUN9L4cvUazwu6abID0PCTTKIghCtW+XCOTAg8qvjGpzVGgUbGu4pYHnYvltiB4puna8BUqSDxvFUqa56b1YR7A/YPvGAWOBlvV+tMzTGfwO4MNdEDXqlXYSgJ0HIh7GVvmQSKD73UCzXleVq48wWWE/ZANlIHgxW8iAV5GPat4R4ik7M3BZf5zI//U3B4+lv+nw/E4fTss//cfC/Zq+tDQ+78=);lineShape=1;" vertex="1" parent="1">
                    <mxGeometry x="70.17541924575093" y="49.73287924959041" width="5.783136245638084" height="4.710622516370174" as="geometry"/>
                </mxCell>
                <mxCell id="7" value="" style="shape=stencil(lVfZctswDPwavWJAgudzmv5HZuLUmrp2xnGvvy9UDRUTkjaTNx27JI4FQA7y8HZ8ej0Mnt9u18v3w+/x+XYc5Mvg/Xg+Hq7jTZ8GeRzk4eVyPXy7Xn6en+f316cJOT39uPyaVvgz82ql4CaW57/zl0wS/3/4OuNP4/ke76j6Du8qxbJPyPpbOoIIhQoITCF0hOCp5n1CYvK9C1HI+X1CUJ97k5KQuH2CFMqpD5KaFPYJvlLijlCYKnDae/K5J2RKsk9wnnK/Q01UgA/OUYw9oZAHPlQqpcdXGKRMJVt85X18pCwrfAJJoLSyJwC8ClWsvwHIiFfrZ3LAfibuZVrjB+tz7fFCGeKLsd+TA4Wmf038dQVQydKKalFcbRHbLjPiaPERVFlp1t7hE7DHMblkHUCCU0WbqtTmFNAOnoq3Ia3ABSfkTQ4CRVDGbmkLd1XpQdKUwKaMtY6A6jRKwcioEoMoFYqrskSyS7b7OuZm43Y3JQl2gwR1GoxBBerUEYuNEMoBW91pChjomlcZWDzawcd+2qiIErTnc3gVHfcq1dmBMjZ1il4SOcDKlFWIUoKtN2hv7HMcc5vq273dtda5zPDczhnbqlNCv4NkOJ3yqv2q0gX4oEFMfZQc7tc6gE3iBBdasYWgEwjouizj6x3PwJ6pnfe64HaM2cZ7EjF4uL4OBGfxoO6ncZcMHp4nkpUpt/69jdcBIiY+Ea1f7YD1UKNTHzQHU0ogPnd9cBF1i9jeBsbh1CbcHv5zR/EP8frwfu5/GU+n+dpw/9/eE/TTfMeQx38=);lineShape=1;" vertex="1" parent="1">
                    <mxGeometry x="72.01417598501024" y="48.69913611113955" width="3.8754034990540167" height="4.888292645514992" as="geometry"/>
                </mxCell>
                <mxCell id="8" value="" style="shape=stencil(nZjbUhsxDIafJrcaWz7J17R9D2YIJVNKmEBPb1+5GSdrefkXerdJ9ott6dfB2oWbl4fb5/2O3cvr6fht/+tw9/qwC592zIenh/3p8KpPu/B5F27uj6f919Pxx9Pd+fPzbXuzPX0//mz/8PvMxUpRGsXuz/mbKpTjv2++nIHHw9MIpDQCnnwBgJDUARBHEQN+BApTcAAoxGUAMpMEAGRyeQAS91OtA5EKD0Bk4gyAQDwCgSkLALw1K0cKCHDk/AD4QgkAQaiEEWAqwA+hUHSjpykweD9bv2US9P+RYhxt1JWy/r6qYHSzKgsoVbfL1R4YmZQTRQNkCsDL7PvPF6c5SkB46iI3mlS9nD0AmKpZQaDwqvVB8FAVGgmjTdUrDGJNNyTjhkKiBAC1SKgWKMgLmmCiBSo4cqiUzQp6KrBCcsTJAh6skB3lGQDSK/Oh8ZaKUHUTAMwqk1Y3zHrN0u90XC096S6kIUCrWjhcnAC0gmakZIEK0nDVBJTsGRj4QYEiFkDVTYE6Oc6DpNeAbAEU0W1LxqwFSkMBjhaIKAVI38ACKCArqadNhVYAZVYFfJoA5OncK/4CyAjQkGcLMCgmCqTJD6gHUCAGCwQkvtRT+0JLgvyQevlbABFJI9uCq4BDKxTbx7SIQ2e4uGkBwKwhlHhaAat1TjMe+UGz94cKSou4KQmg+uCds1VXXR1xnhG2QMWHiFPIQTFJF+cyIDDgJ0BQYvow4HtzdAGEApCrliBbFYUiWKEVuWKBBIJay2icVihgS61QVwuggGitQLRARU1r7W38BajkgDRaO+MtgCqKNkymbVWAcY9oE1OFjss9vt65o7XwqSBC3VQdYu8y1088BQ/D7irZ+qY2Lqhc2XvD1QLrBtXL22hQ3SI6sLb1puv2AlslNZGMsvOxd73rgFrQrOD6xX0dyDbBYJ8FZ9MwkwOaaNeE0QkO9qtNw2L+H0WyXm+jvUx6NAPw/W56vRwiTej93bzfLocICJQNUPodfx1IthI2J6IhQ576BYb5NIrtF/RUDs9uyrhCYlimku8iWExWMqi1CtTRzWUjllUGo+7EwTt3CrYj2Zg/NWBU0saEqwHBAqgmKGCuJfWi9rcAc+uuFc6fmpWcBdDsJl3GUwugAi2p48xNadE2vUXY8coW4XpSfO+mnM3cW8eeStWGYVtEsAWQ6+I0ndgQx/8MWLcAfbjOc+8Pj4/ncfDydzv/1a/Os+Pw+S8=);lineShape=1;" vertex="1" parent="1">
                    <mxGeometry x="85.0598980574606" y="49.1289884073459" width="9.788284001608918" height="14.632505598749681" as="geometry"/>
                </mxCell>
                <mxCell id="9" value="" style="shape=stencil(lVfLctswDPwaXTEkwOc5Tf8jM3FqT1074zh9/H2haqQYqLmd3mQaKxLA7kKc5OFt//S6mzi8XS/nr7sfh+frfpJPE/PhtN9dDld9muRxkoeX82X35XJ+Pz0vv1+f5sj56dv5+/yGnwsuUo0ziMOvZSEXauXPyucl/ng43cYHkmYBgUobA5ipJwNIkXIfA4SpBQOQTJzHgJQoVgPgRpLGAE0xFguI68pdQKnULSAKNRkDWqDeDaBQBUXqTCz2RCQVxGuCtkaBQoDxTVw86nLvJJYWQgXHF5tvowjqo/FdfEErIEUMW4JbhXQFsGLewgEKpNGcgyWqqDgwgB0grzwZdaE6QKOEARw9oCNeVN8HqZSAFBTgc0gUUOcKdXsk7hQjBFS2AKGItFC8JUW1JJT05lgbIEB1atLReRhVpB6tqsuZAsO2RZtyWB1qFF+KixdMPO9flLHass23UAJi0/hmDTVGaqDHd9QZ62r7Q3Vmm0JamTgCeO3onhjgBpUyu6IqqbRs11Q7De2gJuzE1rF27gIQkXidY9vsDJQAk5rOMQfI8EileUDWUQTUqbNTrHPnvtZtNJ1dDjpNMwCIeC7VDIfb7CeWro1XAY6+YYrt9FxosEP0ZL0h/ACQrWHM9EUnomCJ8eH8d+ODt8ieKQPHUNbYknYVNHCA4A2m6RiB7w/iO5AAi/6yi1oh6zTearlqh+F52DZMOSfw/dkSoggxGMzBG2TREyKDJLbxGVvLf3+V/zNeHz6uAC+H43G5Qdz+768MurRcN+TxNw==);lineShape=1;" vertex="1" parent="1">
                    <mxGeometry x="104.65299716635593" y="54.88133563242275" width="11.09542778004078" height="0.9404891433135659" as="geometry"/>
                </mxCell>
                <mxCell id="14" value="" style="shape=stencil(lVrJch03DPwaXVncQZ4d5z9cZTlSRbFcspzl7wPkhaNhc6bHuj3LABcQS6Mxd+nD94dP3+7vov/++vL8+/1fj59fH+7SL3cxPn59uH95fNVfd+njXfrw5fnl/reX5x9fP9/+/e2TSdqvP57/tBX+vukF14opRf/P7Q/e5f7fH369iT89ft2JR+dn8eK8MHHxk3jwrpLlk4vz8qG4UM7ls/Pz+nr8RuVbmuXFpXguX/D8KbuQzuWrq/P6OQyDHcqLy/N9szgh9mwuxNn8ep7K5Cs8V3ednKc7Xyf5yt+3u9hm+e5SY/JZJnlJF+v/7y2bfHXJM/kG6+sJw7m8uqOfN2gaEGQDVUjzCzf1QeJBqlDmI7XiOnkyVWh5VhBX2ZHCcIFNoblOjKoKed6h++FXZwp13qGrW5NnVoU++12P1C9CHGG1KaQRSmcKEe6QXWV3iC7PodyLq5kqyPxwvbrCfCm76FGhk2QXBJNpF+5LGg4NFQI5kuXTgAqRmNXSYUeFRBSSvkNcFFiGl4M7ZOKtObmyKBQSQLk7WY7Eik4pBwqN7FDDcOZNoTnPykLFJKAKkby0BFc8KmSSBDQvoi+1YbfjyqAhv+wgJB5aGuGyU2C1tlXXFit1YqXWlzTDFTSp+LgosPKQRurd34G8tEZwWswqbAdZEpm4TkK0bwBklzUYBLBwgTtkJ6zmyuKtWuOI89kdZtfQCsRKlp64Qo1L1FtVIUCdbjSRWa6e30E0nzPXKBgPFoPsDnmstyl4JwwqJdfmVFk4VlUF2EEzFXWNhOAkF1qnNR5kdo3sh93OFAAJJH1KdqSIAFELAMNL6mqQWw0zcoU0H0lBeCN5SbFLB4XIH04RGSgoCmSX9hjTWrkLS5VLBdI2JpIKpApxjoeQOK7XLDS7hqFAtoPWG8gatK5rxMucNISiJZVPM9KoNKCtOMw3zvTRVB6ynsICdn6th/DI/AUKVjdPk6rJC8jTcqtOHECeZUg7fwX5yO0DSd7TZKTygvel77UBzZ0895+M6zPAY/6G6ycWAIL+43lIykASu/fl8g3t37k8wNpwZc8cQJ6+r4w++U2exm9dmJeBZE79J6P8hX8mvC+PL0xYI0BP4wvtT8HmAhB45bPzLLwX87cyWuqdP7P7Vsy3fkCeM/kaUZ7nz97fIy/4virP8pUgk+VHgj+NF5TPfP2O963MPu+VbyP9veV/ap+GzFRyia8P+TNTkkYr/EKcMo5G5SF/CiUfVB6bLQ6z9HkAogTOxHmEuwpRPAPUAVsnA0EXUHEOmSA0JhWMQhcR+lW/CFSCegVjBlShg0LhvVYaVWsHdxmQUwWoe+kCvWZsCtJGLpw2NvNLW1NASrG1k9BFFMr2aa8F2EAbG9pVF3wHa50u+kXo5vgcQRXaXP4qJ++sq57zl3DG0hif2azawjKq3/gYoJrTyMnHCh3bDkuCzEp9YZkC99aOIOeCSgje48DFOE5mV22FgA9pNLEagwOMS+dmqiPxblng7ZSnLFB5n0Zcrs3nKEZlRVRoHC9Af2AKDOBp/7PYSUjQScdcpgqspZOCkFkV2GxQwkIedzpdq0tTZz5PzFrDAF17wo9TuwekJbl0PuIghTi40dPLDsysRoAvOzDO5YBib3Q2ckDic9LyYEyw8QvHeWAdRLSBz44VBNtxfWkWcYYVVgW2Q8Ip2IVrhIVoskvT2Sgg0H6RjrGiWFFiVXEZH22cwZk8JAA+AesITS5GbFuwb/IbW/iT8oG2PAvCVYjJZlN9mbz2i9kxYAbraehsHXhE63GJPRvOpm0STNeHZGejZtYCYwTYLJvKQ4dhs3Jiz6Vjk0RBmGAqrZ2PpJDhqIW2YII11r5VIAFcR4O5yWc66y8ICbPQCpux48+c0snIiKRM+520dKhCEWcchMyOtqY5dxCk+/6LnN/jbCzwAYhHhoNj+AU5egrIPcJrT8fKy3ccfnyZcnZ2XJ2xIX4lVz09TEGuiHFdHqkxDkbDGFb8rHhEYoaNqgNWLc+/9EDw7Wm7G1bWOVLxtjgB+7Dlfd+yXYrrj7fP5r48Pj3dvrrb/z9+Zqd/un2ilz7+Cw==);lineShape=1;" vertex="1" parent="1">
                    <mxGeometry x="22.423012836717618" y="84.39061710328377" width="31.812653739635692" height="58.54061192418518" as="geometry"/>
                </mxCell>
                <mxCell id="15" value="" style="shape=stencil(lVrJch03DPwaXVEkuJ8d5z9cZTlSRZFcspzl7wPmhaPH5pumfdOCngFBLA1g7sKHbw+fvt7fqfv29vry+/1fj5/fHu7CL3eqj88P96+Pb/bTXfh4Fz58eXm9/+315fvz58vvXz91yf7THy9/9if8fcGpeN9B6v65/MFJcv/94deL+NPj8yweJvEgrTBxbZN4lqZMvJRJ3Dup7Vw+SMqzfJJKtI+SZnXUSyTPt6fNp9UiuZ7LF/Fptk4UT/SpknSSj9z6TWqc5bOkeC7vvbhZoaTiyAEM0OY3pCwlEIBKmk2UHTWRASq4RBTH3hDEzSrlTJ3CAODSuUlgKhlgVql4ycysQcJ86BKkEL82QIQ3JMkc8L8RD0CRkCigza5UKreSeeYca9VJYCpFifOhq1nJU0CeD10tvjMFtPniahgJ4TYgoWvUyL01YfqqiXtrQteombtGEgWVCreSAeabrnVktTNAmG+6Non8DGE+Q/Pi+Rvi7BpNJfJDpznNtDCc5QyQ55tucTziFABvSMNZzgBltlIrouwNedjkAFTxzKxVnMM3NGJWq6xhAVSikpU3zQhgAWTVNRcEZBJAwUmpCEis4No9LGdI5B6iH/XmCsB8KZZRDa4ALC8ly94RAcy9UxuOcAA4K8lppN4rACu7Vj5WACu7JWNhN/dOBPCeeq8Ajty05TmgPpuIsyxUlxB1xKyWVDDNBJr53nPEFUCJWXvIL3mJBZBZvcAZjE8SsxogLsk4Etfo9wolK1ImYGcIM6A0aYzyWdmdfcm4Bksz3axz1siFktCe3GeVLEIyyd7rTSc/iPJtgEOSGKMo89Y2aPxBpAulcAYANhP8ONWZe+c54ix5BkbVq+isknIqbXW/QnNSKeczAFTRXsRYiBasD51nskNbnpvd2/g+c+96kP8jgKQwI+VRDI5wECWOYfIBfHVoeCavsz6JxoJlvTq7RRyM8VR+1j9Qx+7yFeRZ5NSM1TCM6D61TwP5wC+4oLxyl1NFeXa/BaOGZ2wLGof2ZF1MDzLUn7GLnp2h4eb+WZHZBsoiTR78M47e8kweWs842P2ZPQv6Z+T2X/SJLI9m7Aq38gn1p/pkTLubvG7hGtCe7Pk34pEVyy6P/rnJV8DhN/6WsVnb+HPGtmUTL2WQuB+Ox4T6b+K9oTzNJxaPaH+arypSiU0+/Hl5sKc5FNcnzfeVt/Lz83kP2PXB+pg3pHr2TyvAgRWwhgOLPnvigDhHfCcR7IoblnhfaethZM7BEFXpAG9lf3YLrBVvS89oZC6QtGIAOEOni0wlRZ7fCSkJHCPVYQYY5WWjqZW2G6lmY53e8C203TGVMtZiawxoc1PQWa31qKxBq5hdrLmhjUFDOtELKDtDW+YPbjCY20MX55api1LebodoS5fJZoS9t4epCy9S/d8LgKqkOJXvvTjvbrC1jpz35qHx1XiAEn3FSWrjzLoUbId670xuro/Ul9mUI96X1xlh4cuatswTCmULKWA134z84rLfMQDjR9Hj+LjHFJ+vASE0AOsBLTPixVW+kTuyygFotEfTZRVhAHYP6rB572FOnM8vLL7xmYjPS5F7zwtnqwWoQfaKymbginMas2tmmckvp+Y1yACY+zYjbX9jIkeH5h67391Y3g929KODf12GtZvVgmJi2i0vFKe7u/WIjhA+AIWv2nQpWpmSuA6Y831fIjHXUBz89yEh22vpsuIJdNDZVYJlHp+MdivBGfxubQs1q68LN5tkYBuVcu81gPrKk0cc8hm7B+YaHrv/vrbl63O4h17F+Blg+5fb7gzgrTnvkgBEXF+fM19yWHezoxXFAMC+U+Y0EWtc0jEVuM0EcAgZ+Up16aH7RxL0ow2Ihf4RBv2IBD550EKjU3GtrV4SuwHk6f6YSt6Ut/KJxY0GzrJW5D3u0r4FOnJd+Db/QsWhe/Is4cQriLP5kcPM66inOeQVx9lPxCFSHO1rHc7WNhQER2U78bg8nZVudDLHv/PBOYTjZRtD9riIkwhxeFTmBD//CRoXtx/ev3b78vj0dPlY7vr/+HWc/enyZV34+C8=);lineShape=1;" vertex="1" parent="1">
                    <mxGeometry x="79.9229175430284" y="84.80784235446197" width="27.981682200979446" height="58.617061608649365" as="geometry"/>
                </mxCell>
                <mxCell id="16" value="" style="shape=stencil(7VnZbhsxDPwavxKSqPM5bf8jQJzGaJoESXr9fam6cqxZ7xgGChQo+rZxOCueQ1K70auXu+un7Sa4l9fnx0/bb7ub17uNvtuEsHu42z7vXu1po+83enX7+Lz9+Pz45eFm//fTdZfsT58fv/Y3fN/jNIovHRXcj9+/SGm/fviwl7/fPRzJRy8aJ3kviclXUTfJO1G/Lp+ShALyzq3L5yAxgXwqRL5JbqB/i+vyJUuZ9Y+S8rp8DeN1Q75KIvrXIiXM+lgA0jqgOak6Axq1oIXh8AEIZhMJgQFinVNCRZUAvOT5BG3DqtNGN6l5dmqSwrxaRlAHIJkbKgFEqbNbLbE8saFYXsx5lN2I/GlAETefYKlYGSBJm23IOmrjNGBhgwFY7hWVHC8ChJGbxyqR1Cgeq60bzQBuKHAE8ARg9Vnn+sxeAgmcASK41Z0DKKRGGxy4esJsQ6pnbZgLKBUK6F6a3ZoytaHHYSYBS+9EKs5orBYE0BJVcRedYKyRPLqVFVDL0mYvWfJlcoJ3h1ZwQDSars2KejbC/OCZTglDbXzOrK4V89uoirKAOWWuUWPPRmrUTAS/mpKOpKslZ5y91Aql75iRZ1qluaEJW5A5WolK1nCgRhvPDW8KVARUcoIP4mAscXxwUJwzukpkkDHaiiifSO558Rmd2kgUnMSI8o7oY9bNlGFRPiMP78+jwtf0gSxKo+Gt2QvykbKqBQz8o3RwU/EV5QORj6KL99PBEzubyWfizyya0F5WAxm7f0tU/yJhES/amsVDEZfhgRV98iLfGEtYzYO9jfa0xfDSyZiRiuSM8oxIF+2mv5+MwR6ZvetP/ONwHuz+ofWF/FBGRa/VI9RLPvN+zIc0MnBFHjk6jplhxT8F/Gl7CJE/DLvH9UXkdZH/Vr/E/5fK9w6wIAjaMqzHFPSQIzuFlUwICAi8T6peolJcNlZbJ8kJNiZi1fjBk6erPo+gHuaVygfHhJNmTaPzrC3AYHTlKtXFImWrVSReqouJyOZnFjibZWEez2lMYX9xt1ME/N/t/tHdbg7cH9/tFHkpRdpKLL39HId+m0JOsAoGGyIfjqziYBrRSgd+A8C1mapEptICECpd7frF3Bw4a2FsIDej3Uwz1jEii3RBEvBRMiMBK8hZJe/H1dvp5CtD4wPdU5ax8oIhpvLVMWGcjYnZ5e5hZXqTZzO8ZU2DbZkyvdpmilsdvRztm2lFALsc1SjNLQCsp5sJCQGZxMwAriEgMJUCZsXhFuO0vEcn1UGza/IpgDxr6Lrgo0IH5/5+6LYSuD7g0cMlzJp/0qxP5Dmh4/g3eTaPXPpF5Ly8Pbx9frnd3d/vv94c/x8/19hP+089+v4n);lineShape=1;" vertex="1" parent="1">
                    <mxGeometry x="35.165714650218604" y="127.9407596448545" width="7.354573803608517" height="8.131215275601816" as="geometry"/>
                </mxCell>
                <mxCell id="17" value="" style="shape=stencil(lVrJch03DPwaXVncQZ4d5z9cZTlSRbFcspzl7wPkhaNhc6bHuj3LABcQS6Mxd+nD94dP3+7vov/++vL8+/1fj59fH+7SL3cxPn59uH95fNVfd+njXfrw5fnl/reX5x9fP9/+/e2TSdqvP57/tBX+vukF14opRf/P7Q/e5f7fH369iT89ft2JR+dn8eK8MHHxk3jwrpLlk4vz8qG4UM7ls/Pz+nr8RuVbmuXFpXguX/D8KbuQzuWrq/P6OQyDHcqLy/N9szgh9mwuxNn8ep7K5Cs8V3ednKc7Xyf5yt+3u9hm+e5SY/JZJnlJF+v/7y2bfHXJM/kG6+sJw7m8uqOfN2gaEGQDVUjzCzf1QeJBqlDmI7XiOnkyVWh5VhBX2ZHCcIFNoblOjKoKed6h++FXZwp13qGrW5NnVoU++12P1C9CHGG1KaQRSmcKEe6QXWV3iC7PodyLq5kqyPxwvbrCfCm76FGhk2QXBJNpF+5LGg4NFQI5kuXTgAqRmNXSYUeFRBSSvkNcFFiGl4M7ZOKtObmyKBQSQLk7WY7Eik4pBwqN7FDDcOZNoTnPykLFJKAKkby0BFc8KmSSBDQvoi+1YbfjyqAhv+wgJB5aGuGyU2C1tlXXFit1YqXWlzTDFTSp+LgosPKQRurd34G8tEZwWswqbAdZEpm4TkK0bwBklzUYBLBwgTtkJ6zmyuKtWuOI89kdZtfQCsRKlp64Qo1L1FtVIUCdbjSRWa6e30E0nzPXKBgPFoPsDnmstyl4JwwqJdfmVFk4VlUF2EEzFXWNhOAkF1qnNR5kdo3sh93OFAAJJH1KdqSIAFELAMNL6mqQWw0zcoU0H0lBeCN5SbFLB4XIH04RGSgoCmSX9hjTWrkLS5VLBdI2JpIKpApxjoeQOK7XLDS7hqFAtoPWG8gatK5rxMucNISiJZVPM9KoNKCtOMw3zvTRVB6ynsICdn6th/DI/AUKVjdPk6rJC8jTcqtOHECeZUg7fwX5yO0DSd7TZKTygvel77UBzZ0895+M6zPAY/6G6ycWAIL+43lIykASu/fl8g3t37k8wNpwZc8cQJ6+r4w++U2exm9dmJeBZE79J6P8hX8mvC+PL0xYI0BP4wvtT8HmAhB45bPzLLwX87cyWuqdP7P7Vsy3fkCeM/kaUZ7nz97fIy/4virP8pUgk+VHgj+NF5TPfP2O963MPu+VbyP9veV/ap+GzFRyia8P+TNTkkYr/EKcMo5G5SF/CiUfVB6bLQ6z9HkAogTOxHmEuwpRPAPUAVsnA0EXUHEOmSA0JhWMQhcR+lW/CFSCegVjBlShg0LhvVYaVWsHdxmQUwWoe+kCvWZsCtJGLpw2NvNLW1NASrG1k9BFFMr2aa8F2EAbG9pVF3wHa50u+kXo5vgcQRXaXP4qJ++sq57zl3DG0hif2azawjKq3/gYoJrTyMnHCh3bDkuCzEp9YZkC99aOIOeCSgje48DFOE5mV22FgA9pNLEagwOMS+dmqiPxblng7ZSnLFB5n0Zcrs3nKEZlRVRoHC9Af2AKDOBp/7PYSUjQScdcpgqspZOCkFkV2GxQwkIedzpdq0tTZz5PzFrDAF17wo9TuwekJbl0PuIghTi40dPLDsysRoAvOzDO5YBib3Q2ckDic9LyYEyw8QvHeWAdRLSBz44VBNtxfWkWcYYVVgW2Q8Ip2IVrhIVoskvT2Sgg0H6RjrGiWFFiVXEZH22cwZk8JAA+AesITS5GbFuwb/IbW/iT8oG2PAvCVYjJZlN9mbz2i9kxYAbraehsHXhE63GJPRvOpm0STNeHZGejZtYCYwTYLJvKQ4dhs3Jiz6Vjk0RBmGAqrZ2PpJDhqIW2YII11r5VIAFcR4O5yWc66y8ICbPQCpux48+c0snIiKRM+520dKhCEWcchMyOtqY5dxCk+/6LnN/jbCzwAYhHhoNj+AU5egrIPcJrT8fKy3ccfnyZcnZ2XJ2xIX4lVz09TEGuiHFdHqkxDkbDGFb8rHhEYoaNqgNWLc+/9EDw7Wm7G1bWOVLxtjgB+7Dlfd+yXYrrj7fP5r48Pj3dvrrb/z9+Zqd/un2ilz7+Cw==);lineShape=1;" vertex="1" parent="1">
                    <mxGeometry x="170.00301283671763" y="83.90061710328378" width="31.812653739635692" height="58.54061192418518" as="geometry"/>
                </mxCell>
                <mxCell id="18" value="" style="shape=stencil(lVrJch03DPwaXVEkuJ8d5z9cZTlSRZFcspzl7wPmhaPH5pumfdOCngFBLA1g7sKHbw+fvt7fqfv29vry+/1fj5/fHu7CL3eqj88P96+Pb/bTXfh4Fz58eXm9/+315fvz58vvXz91yf7THy9/9if8fcGpeN9B6v65/MFJcv/94deL+NPj8yweJvEgrTBxbZN4lqZMvJRJ3Dup7Vw+SMqzfJJKtI+SZnXUSyTPt6fNp9UiuZ7LF/Fptk4UT/SpknSSj9z6TWqc5bOkeC7vvbhZoaTiyAEM0OY3pCwlEIBKmk2UHTWRASq4RBTH3hDEzSrlTJ3CAODSuUlgKhlgVql4ycysQcJ86BKkEL82QIQ3JMkc8L8RD0CRkCigza5UKreSeeYca9VJYCpFifOhq1nJU0CeD10tvjMFtPniahgJ4TYgoWvUyL01YfqqiXtrQteombtGEgWVCreSAeabrnVktTNAmG+6Non8DGE+Q/Pi+Rvi7BpNJfJDpznNtDCc5QyQ55tucTziFABvSMNZzgBltlIrouwNedjkAFTxzKxVnMM3NGJWq6xhAVSikpU3zQhgAWTVNRcEZBJAwUmpCEis4No9LGdI5B6iH/XmCsB8KZZRDa4ALC8ly94RAcy9UxuOcAA4K8lppN4rACu7Vj5WACu7JWNhN/dOBPCeeq8Ajty05TmgPpuIsyxUlxB1xKyWVDDNBJr53nPEFUCJWXvIL3mJBZBZvcAZjE8SsxogLsk4Etfo9wolK1ImYGcIM6A0aYzyWdmdfcm4Bksz3axz1siFktCe3GeVLEIyyd7rTSc/iPJtgEOSGKMo89Y2aPxBpAulcAYANhP8ONWZe+c54ix5BkbVq+isknIqbXW/QnNSKeczAFTRXsRYiBasD51nskNbnpvd2/g+c+96kP8jgKQwI+VRDI5wECWOYfIBfHVoeCavsz6JxoJlvTq7RRyM8VR+1j9Qx+7yFeRZ5NSM1TCM6D61TwP5wC+4oLxyl1NFeXa/BaOGZ2wLGof2ZF1MDzLUn7GLnp2h4eb+WZHZBsoiTR78M47e8kweWs842P2ZPQv6Z+T2X/SJLI9m7Aq38gn1p/pkTLubvG7hGtCe7Pk34pEVyy6P/rnJV8DhN/6WsVnb+HPGtmUTL2WQuB+Ox4T6b+K9oTzNJxaPaH+arypSiU0+/Hl5sKc5FNcnzfeVt/Lz83kP2PXB+pg3pHr2TyvAgRWwhgOLPnvigDhHfCcR7IoblnhfaethZM7BEFXpAG9lf3YLrBVvS89oZC6QtGIAOEOni0wlRZ7fCSkJHCPVYQYY5WWjqZW2G6lmY53e8C203TGVMtZiawxoc1PQWa31qKxBq5hdrLmhjUFDOtELKDtDW+YPbjCY20MX55api1LebodoS5fJZoS9t4epCy9S/d8LgKqkOJXvvTjvbrC1jpz35qHx1XiAEn3FSWrjzLoUbId670xuro/Ul9mUI96X1xlh4cuatswTCmULKWA134z84rLfMQDjR9Hj+LjHFJ+vASE0AOsBLTPixVW+kTuyygFotEfTZRVhAHYP6rB572FOnM8vLL7xmYjPS5F7zwtnqwWoQfaKymbginMas2tmmckvp+Y1yACY+zYjbX9jIkeH5h67391Y3g929KODf12GtZvVgmJi2i0vFKe7u/WIjhA+AIWv2nQpWpmSuA6Y831fIjHXUBz89yEh22vpsuIJdNDZVYJlHp+MdivBGfxubQs1q68LN5tkYBuVcu81gPrKk0cc8hm7B+YaHrv/vrbl63O4h17F+Blg+5fb7gzgrTnvkgBEXF+fM19yWHezoxXFAMC+U+Y0EWtc0jEVuM0EcAgZ+Up16aH7RxL0ow2Ihf4RBv2IBD550EKjU3GtrV4SuwHk6f6YSt6Ut/KJxY0GzrJW5D3u0r4FOnJd+Db/QsWhe/Is4cQriLP5kcPM66inOeQVx9lPxCFSHO1rHc7WNhQER2U78bg8nZVudDLHv/PBOYTjZRtD9riIkwhxeFTmBD//CRoXtx/ev3b78vj0dPlY7vr/+HWc/enyZV34+C8=);lineShape=1;" vertex="1" parent="1">
                    <mxGeometry x="227.50291754302842" y="84.31784235446197" width="27.981682200979446" height="58.617061608649365" as="geometry"/>
                </mxCell>
                <mxCell id="19" value="" style="shape=stencil(7VnZbhsxDPwavxKSqPM5bf8jQJzGaJoESXr9fam6cqxZ7xgGChQo+rZxOCueQ1K70auXu+un7Sa4l9fnx0/bb7ub17uNvtuEsHu42z7vXu1po+83enX7+Lz9+Pz45eFm//fTdZfsT58fv/Y3fN/jNIovHRXcj9+/SGm/fviwl7/fPRzJRy8aJ3kviclXUTfJO1G/Lp+ShALyzq3L5yAxgXwqRL5JbqB/i+vyJUuZ9Y+S8rp8DeN1Q75KIvrXIiXM+lgA0jqgOak6Axq1oIXh8AEIZhMJgQFinVNCRZUAvOT5BG3DqtNGN6l5dmqSwrxaRlAHIJkbKgFEqbNbLbE8saFYXsx5lN2I/GlAETefYKlYGSBJm23IOmrjNGBhgwFY7hWVHC8ChJGbxyqR1Cgeq60bzQBuKHAE8ARg9Vnn+sxeAgmcASK41Z0DKKRGGxy4esJsQ6pnbZgLKBUK6F6a3ZoytaHHYSYBS+9EKs5orBYE0BJVcRedYKyRPLqVFVDL0mYvWfJlcoJ3h1ZwQDSars2KejbC/OCZTglDbXzOrK4V89uoirKAOWWuUWPPRmrUTAS/mpKOpKslZ5y91Aql75iRZ1qluaEJW5A5WolK1nCgRhvPDW8KVARUcoIP4mAscXxwUJwzukpkkDHaiiifSO558Rmd2kgUnMSI8o7oY9bNlGFRPiMP78+jwtf0gSxKo+Gt2QvykbKqBQz8o3RwU/EV5QORj6KL99PBEzubyWfizyya0F5WAxm7f0tU/yJhES/amsVDEZfhgRV98iLfGEtYzYO9jfa0xfDSyZiRiuSM8oxIF+2mv5+MwR6ZvetP/ONwHuz+ofWF/FBGRa/VI9RLPvN+zIc0MnBFHjk6jplhxT8F/Gl7CJE/DLvH9UXkdZH/Vr/E/5fK9w6wIAjaMqzHFPSQIzuFlUwICAi8T6peolJcNlZbJ8kJNiZi1fjBk6erPo+gHuaVygfHhJNmTaPzrC3AYHTlKtXFImWrVSReqouJyOZnFjibZWEez2lMYX9xt1ME/N/t/tHdbg7cH9/tFHkpRdpKLL39HId+m0JOsAoGGyIfjqziYBrRSgd+A8C1mapEptICECpd7frF3Bw4a2FsIDej3Uwz1jEii3RBEvBRMiMBK8hZJe/H1dvp5CtD4wPdU5ax8oIhpvLVMWGcjYnZ5e5hZXqTZzO8ZU2DbZkyvdpmilsdvRztm2lFALsc1SjNLQCsp5sJCQGZxMwAriEgMJUCZsXhFuO0vEcn1UGza/IpgDxr6Lrgo0IH5/5+6LYSuD7g0cMlzJp/0qxP5Dmh4/g3eTaPXPpF5Ly8Pbx9frnd3d/vv94c/x8/19hP+089+v4n);lineShape=1;" vertex="1" parent="1">
                    <mxGeometry x="182.74571465021862" y="127.4507596448545" width="7.354573803608517" height="8.131215275601816" as="geometry"/>
                </mxCell>
                <mxCell id="20" value="" style="shape=stencil(7VnLUhtBDPwaX1Xz0LzOJPkPqjDBFYIpQ15/H01cs+xI3nZyyI2bMerdkdRqaeRdvHl5uH3e74J7eT0dv+x/HO5eH3bxwy6Ew9PD/nR4lU+7+HEXb+6Pp/3n0/Hb09357+fbbtk/fT1+70/4ecYFSrmDgvt1/iJWcv7PN5/O9o+Hp5W9Z+KgAb5sA+QN1bwhxG1ADOSqBsSwDWBPrRlA2wakQMFrAPM2IMuRjA9ctwHFU0gakEBYS6PmDAA4XTNVNmHN24AmUSozoFABeaiV6gwIZXh1GZCI5yhJ7j1wukpY4wTw8gYHopSpzeTzjhJInADinOlGGfhcEpXZXrIAyC32cU5boYjOk8jPDmRyyGGxn2uBKYMUFJOCSBHbt5mnYbxwK55ZZWyU0mX7Qjw/X/KF/JXCLcregUqWsolR24PnV0ehKvsA8lU9+azsC4iP2GuCUkYVUCjPVVyogedLETv1/DAYexnAmqC+Dj2+DMiDYAsjRGnQG4ou4iicBjXT0hC2hdOJMnI6DHEegJSgTIhypTnLmYcOXAawlokShlpu8TTNPBUtK6jQIrESIg/DWpxmXhN9B0fKTZdaa5DbWXwwgIoARTvtHS63LGRy+hWIrln0lzUAviENfVgAZUjaZQBTmdnXGQ8KQgBZJSLhRDA1leo4VGHLByXawviCjpT1dNGbO4pS0W1EAIyitMx0awBonMI+b/mN6aqjJE6j1uCIiw5rRSXnRkWuEudRM3HjACtqJNQN3Wj2K/JVAMhNjxdS1JCtVQ/PUg9IKyXTao78ixrViWiwQwjAGUBAZ0q66YrXEZGJhzSu4ooGyV6jKhEJzrZdBZRsMByUug+KTBEf6SIAqUAdNb+0FNx4paWoWaxPW2j4rGNWXtpigdOt9LQwHynhTPcbwHyk5KAKyPyj1JgjHED7pcRMG4hL8gZ1wQ0Jims1dz2fsTC93zH+/x0DFM77HePKHcMMtwnKhFSM2vA0OFw0pxuIT1DputSqxYKDfVbUP5k7CVxSvfW8haMeykRvq3MSeFlDbV1K/PwGxtOFXdgIwCFem5UQM1Quu3TqADSDGakTQAWptouzDgBhtau5DgBhtcs/AaAJya4Xe1gBwC4we+IAmcyGlPH8Ly6bPHuQNiGmTQJwwI3/ruwjeL7Tt2dpsaifycVTPV/uwiDHptSuVI619/A2b8/jYL8x/sYG1cXEM1Z4XTP56rtgaN/Movaf+HZlI3/dXj68rf/vD4+P518P1v/XPxfIV+efGuLH3w==);lineShape=1;" vertex="1" parent="1">
                    <mxGeometry x="122.84189199620033" y="103.89840378792582" width="19.48044394847568" height="13.842644357158614" as="geometry"/>
                </mxCell>
                <mxCell id="21" value="" style="shape=stencil(lVdbctswDDyNfjEk+AK/0/QemYlTa+raGcfp4/alqzIxIXkp/VEUlsRzAQ7u4W3/9Lob2Lxdzqfvu1/j82U/uC8D83jc787jpawG9zi4h5fTefftfHo/Pk/fr09Xyevqx+nn9YTfE84aQ8ZcYWz+/N+iZP9tfJ0Ah/F4A8hCvpUX4gTkE7Frz88UECCSyw2g3BCQRoGSNACXyXgIcL4BBEPBQICxDSAyWQEAr1VKjjhCQGxvEE+CAb71UnbkEUCqAh8AqW6461avAQICJyUzuAVkcuE+ICUyogGJ7wOK17PVgAxs8Ilce8NNvi8iXAms01cICLUVSkEDIkhXoei1PAONuDr9JgwJyhvW8hYkRqy3f8gniiBq1lNOGgANSJoxSokjl3qeqRShySGR8AwAYpBYl1tHJQmVUVYaXapR7Ba3lt9ZFQOOWwHoTMWJkW2txpWZJ5Z4lqootWOJw+wG5NZQ4qCaT68+lzgDUQAvcQYiGWtre1pJY36BWBFP2gVeRUS8VT7UbrmyMwTdbzutJxC3xdbpbYUv2vM7zbO0wtafne7stT6d9u907XfmC6bU5kNngLE6p/GAtHH+suSDEneIGim1JGFqOSyfzhREySNb58Ya4gx8z9UXn/IWxdZpVsT0ECIZbS+SL4w18w/SJ5UZx26wV0rv0+fD4dfP/YPiVaggbEmHzeP+CkBZfL4uXsbDYXqc3P7Xr5GyNb1k3ONf);lineShape=1;" vertex="1" parent="1">
                    <mxGeometry x="180.2701431656214" y="110.24920110209891" width="0.2682628717710859" height="7.801068640511958" as="geometry"/>
                </mxCell>
                <mxCell id="22" value="" style="shape=stencil(lVfZctswDPwavWJIgudzjv/ITJxaU8fOOE7a/n3BasiKpLVx3nQAFLDYXVIT373vn952k1Hvl/Pp5+7X/HzZT3w/GTMf97vzfJGriR8mvns5nXc/zqeP4/Ny//aUI/PV6+kzr/B7yTMUfE4y6s/yQBO7fw8el/DDfFyFa08xNPGW2G7HsybdxntyejveKnK2iY+k4na8UxRdE58o323Fe02u61eRAg0HwYP7BI8SElnfVZTUdnx0xKmJdwXiq/EpkG47lgbA+kkAbOsx5AFCEh9j37BBH0hlovUDmhLgRKqAlAT25BmQTtUWK0bCW0Aj+URsE3yEvJMENi3vDDEaQywo1jEbiqjr0CstIw26Tr6sVxMSbtpR6rQg3ALikde6HXX0xGjUtm86MFlUku1hdVjPOaGVm9VQPmNJ2WHQ4IamNZNP34HVYgENcxP9oPUHYlTPvJF54gj+O9TWgTzWZycecXEHZnBFnzYQY7l1FuC52OCNJhOESBilbqOK0hYqafBJGQwsSWBv57zC4Ubr/ipj3ByE7xqYxpXdR5EGXxj3N8EJnQDGHVQSEki4skUrCsADxjNAEg8AihsPGUlsCYxuPMWIyD3Q0HBKyiIEPZuC+YpLBkhOkx0aQDapCh4r47YAIdWvH7AFqOIoVZ5SP+h33J/lEAPwHP0C03qoh2UisJ6uX5kIw3o6PGVPcAD/YV4eEnSgQ+XTbWzDZ/Ivw+Xi//H/ZT4clr+H9fv+d0EeLb8a/PAX);lineShape=1;" vertex="1" parent="1">
                    <mxGeometry x="177.5039575572374" y="112.87953905476033" width="5.487184027282878" height="0.31368939223806097" as="geometry"/>
                </mxCell>
                <mxCell id="23" value="" style="shape=stencil(lVjLchpBDPwarqqZ0bx0dpz/cJVxoELAhcnr7yOyGbyj2W3iG8ZqUEstqdkNP7ztnl63m+DeLufT1+3P/fNlt+FPmxD2x932vL/oqw0/bvjh5XTefjmfvh+fp79fn66R11ffTj+un/BrwvlAyV9Rwf2e3mFK9e8bn6f4w/44iw+BAnfxnjiB+EISu3hHPq7HM1NlE+8ciBeq3uQTy3p8TBRcF5+IUXwlb/gG8iChWFr9GkAZ/EtxGRAp9hViRxlTTqkDRO1BhjVNoecc2jtrTXN9SpkpIIBrRWyAwuRkHeA1JekA1VPmdUClaOIrBaC7TNxTFkxZE4q5ByhlNAiekhsAgDJ7S1kBSNqRrTDucEjJzrJ4qkDcOZNkC3BAq0WIe9JVSABpyW3abwBdCKBvUiiMAMBBamvTXBmgcSJDSpUqWEkKKGxJJyRud9tZt7o6ioi1VnHoHOOcYs9ateHBDtAylUFMFYhJG1EGuQb0DZmKt4AIRloS5QHAQH0S24qYcRDEQY9JsgA0o9cEku1DxIAwdDojDlqTnnS9yWsNIH1KKldBfYhUigWg86B9KMMEoS2gna4GoDOKOJQFDh7NQx2+ocLzoPOQii0rI2mITUkbBwdIAWbidFfimc7DchWw7xXghpuVEQctogEwNFfaB1csIKJOfxRQxipFuO9zoWz2UobSSHlIqcCZ1jMqZpHVdsWWD3UgZxon96yAWcazC7B8IYLdAu/yWibR7viMQwXz4AZzkto6X4lfOFhAesPaqzfv8X/2TYXiQP4+2gVQXDsvaz3w/TdkB32DelzzQyapiUX+LVilqhFHR50z5b5pQa0HSIn1RvfzHO50oVqX6x306Ty43AwNouou9l9ws2erbTO6brZjzXVXM2owH50b65OgidF4q2v469arisz6gh3TchvHXeHG1nhn6wndsDVtWn60rimbGcAGzC6V1AS7lrxx2hFOmMabz4/Qh3hv7Z2qA9nsDz66uB+vL96fk7zsD4fpMcv8//a5ir41PZPhxz8=);lineShape=1;" vertex="1" parent="1">
                    <mxGeometry x="186.36124595161812" y="111.26316476714703" width="4.270161960289248" height="5.278946163278228" as="geometry"/>
                </mxCell>
                <mxCell id="27" value="" style="shape=stencil(lVrJch03DPwaXVncQZ4d5z9cZTlSRbFcspzl7wPkhaNhc6bHuj3LABcQS6Mxd+nD94dP3+7vov/++vL8+/1fj59fH+7SL3cxPn59uH95fNVfd+njXfrw5fnl/reX5x9fP9/+/e2TSdqvP57/tBX+vukF14opRf/P7Q/e5f7fH369iT89ft2JR+dn8eK8MHHxk3jwrpLlk4vz8qG4UM7ls/Pz+nr8RuVbmuXFpXguX/D8KbuQzuWrq/P6OQyDHcqLy/N9szgh9mwuxNn8ep7K5Cs8V3ednKc7Xyf5yt+3u9hm+e5SY/JZJnlJF+v/7y2bfHXJM/kG6+sJw7m8uqOfN2gaEGQDVUjzCzf1QeJBqlDmI7XiOnkyVWh5VhBX2ZHCcIFNoblOjKoKed6h++FXZwp13qGrW5NnVoU++12P1C9CHGG1KaQRSmcKEe6QXWV3iC7PodyLq5kqyPxwvbrCfCm76FGhk2QXBJNpF+5LGg4NFQI5kuXTgAqRmNXSYUeFRBSSvkNcFFiGl4M7ZOKtObmyKBQSQLk7WY7Eik4pBwqN7FDDcOZNoTnPykLFJKAKkby0BFc8KmSSBDQvoi+1YbfjyqAhv+wgJB5aGuGyU2C1tlXXFit1YqXWlzTDFTSp+LgosPKQRurd34G8tEZwWswqbAdZEpm4TkK0bwBklzUYBLBwgTtkJ6zmyuKtWuOI89kdZtfQCsRKlp64Qo1L1FtVIUCdbjSRWa6e30E0nzPXKBgPFoPsDnmstyl4JwwqJdfmVFk4VlUF2EEzFXWNhOAkF1qnNR5kdo3sh93OFAAJJH1KdqSIAFELAMNL6mqQWw0zcoU0H0lBeCN5SbFLB4XIH04RGSgoCmSX9hjTWrkLS5VLBdI2JpIKpApxjoeQOK7XLDS7hqFAtoPWG8gatK5rxMucNISiJZVPM9KoNKCtOMw3zvTRVB6ynsICdn6th/DI/AUKVjdPk6rJC8jTcqtOHECeZUg7fwX5yO0DSd7TZKTygvel77UBzZ0895+M6zPAY/6G6ycWAIL+43lIykASu/fl8g3t37k8wNpwZc8cQJ6+r4w++U2exm9dmJeBZE79J6P8hX8mvC+PL0xYI0BP4wvtT8HmAhB45bPzLLwX87cyWuqdP7P7Vsy3fkCeM/kaUZ7nz97fIy/4virP8pUgk+VHgj+NF5TPfP2O963MPu+VbyP9veV/ap+GzFRyia8P+TNTkkYr/EKcMo5G5SF/CiUfVB6bLQ6z9HkAogTOxHmEuwpRPAPUAVsnA0EXUHEOmSA0JhWMQhcR+lW/CFSCegVjBlShg0LhvVYaVWsHdxmQUwWoe+kCvWZsCtJGLpw2NvNLW1NASrG1k9BFFMr2aa8F2EAbG9pVF3wHa50u+kXo5vgcQRXaXP4qJ++sq57zl3DG0hif2azawjKq3/gYoJrTyMnHCh3bDkuCzEp9YZkC99aOIOeCSgje48DFOE5mV22FgA9pNLEagwOMS+dmqiPxblng7ZSnLFB5n0Zcrs3nKEZlRVRoHC9Af2AKDOBp/7PYSUjQScdcpgqspZOCkFkV2GxQwkIedzpdq0tTZz5PzFrDAF17wo9TuwekJbl0PuIghTi40dPLDsysRoAvOzDO5YBib3Q2ckDic9LyYEyw8QvHeWAdRLSBz44VBNtxfWkWcYYVVgW2Q8Ip2IVrhIVoskvT2Sgg0H6RjrGiWFFiVXEZH22cwZk8JAA+AesITS5GbFuwb/IbW/iT8oG2PAvCVYjJZlN9mbz2i9kxYAbraehsHXhE63GJPRvOpm0STNeHZGejZtYCYwTYLJvKQ4dhs3Jiz6Vjk0RBmGAqrZ2PpJDhqIW2YII11r5VIAFcR4O5yWc66y8ICbPQCpux48+c0snIiKRM+520dKhCEWcchMyOtqY5dxCk+/6LnN/jbCzwAYhHhoNj+AU5egrIPcJrT8fKy3ccfnyZcnZ2XJ2xIX4lVz09TEGuiHFdHqkxDkbDGFb8rHhEYoaNqgNWLc+/9EDw7Wm7G1bWOVLxtjgB+7Dlfd+yXYrrj7fP5r48Pj3dvrrb/z9+Zqd/un2ilz7+Cw==);lineShape=1;" vertex="1" parent="1">
                    <mxGeometry x="300.00301283671763" y="84.81061710328378" width="31.812653739635692" height="58.54061192418518" as="geometry"/>
                </mxCell>
                <mxCell id="28" value="" style="shape=stencil(lVrJch03DPwaXVEkuJ8d5z9cZTlSRZFcspzl7wPmhaPH5pumfdOCngFBLA1g7sKHbw+fvt7fqfv29vry+/1fj5/fHu7CL3eqj88P96+Pb/bTXfh4Fz58eXm9/+315fvz58vvXz91yf7THy9/9if8fcGpeN9B6v65/MFJcv/94deL+NPj8yweJvEgrTBxbZN4lqZMvJRJ3Dup7Vw+SMqzfJJKtI+SZnXUSyTPt6fNp9UiuZ7LF/Fptk4UT/SpknSSj9z6TWqc5bOkeC7vvbhZoaTiyAEM0OY3pCwlEIBKmk2UHTWRASq4RBTH3hDEzSrlTJ3CAODSuUlgKhlgVql4ycysQcJ86BKkEL82QIQ3JMkc8L8RD0CRkCigza5UKreSeeYca9VJYCpFifOhq1nJU0CeD10tvjMFtPniahgJ4TYgoWvUyL01YfqqiXtrQteombtGEgWVCreSAeabrnVktTNAmG+6Non8DGE+Q/Pi+Rvi7BpNJfJDpznNtDCc5QyQ55tucTziFABvSMNZzgBltlIrouwNedjkAFTxzKxVnMM3NGJWq6xhAVSikpU3zQhgAWTVNRcEZBJAwUmpCEis4No9LGdI5B6iH/XmCsB8KZZRDa4ALC8ly94RAcy9UxuOcAA4K8lppN4rACu7Vj5WACu7JWNhN/dOBPCeeq8Ajty05TmgPpuIsyxUlxB1xKyWVDDNBJr53nPEFUCJWXvIL3mJBZBZvcAZjE8SsxogLsk4Etfo9wolK1ImYGcIM6A0aYzyWdmdfcm4Bksz3axz1siFktCe3GeVLEIyyd7rTSc/iPJtgEOSGKMo89Y2aPxBpAulcAYANhP8ONWZe+c54ix5BkbVq+isknIqbXW/QnNSKeczAFTRXsRYiBasD51nskNbnpvd2/g+c+96kP8jgKQwI+VRDI5wECWOYfIBfHVoeCavsz6JxoJlvTq7RRyM8VR+1j9Qx+7yFeRZ5NSM1TCM6D61TwP5wC+4oLxyl1NFeXa/BaOGZ2wLGof2ZF1MDzLUn7GLnp2h4eb+WZHZBsoiTR78M47e8kweWs842P2ZPQv6Z+T2X/SJLI9m7Aq38gn1p/pkTLubvG7hGtCe7Pk34pEVyy6P/rnJV8DhN/6WsVnb+HPGtmUTL2WQuB+Ox4T6b+K9oTzNJxaPaH+arypSiU0+/Hl5sKc5FNcnzfeVt/Lz83kP2PXB+pg3pHr2TyvAgRWwhgOLPnvigDhHfCcR7IoblnhfaethZM7BEFXpAG9lf3YLrBVvS89oZC6QtGIAOEOni0wlRZ7fCSkJHCPVYQYY5WWjqZW2G6lmY53e8C203TGVMtZiawxoc1PQWa31qKxBq5hdrLmhjUFDOtELKDtDW+YPbjCY20MX55api1LebodoS5fJZoS9t4epCy9S/d8LgKqkOJXvvTjvbrC1jpz35qHx1XiAEn3FSWrjzLoUbId670xuro/Ul9mUI96X1xlh4cuatswTCmULKWA134z84rLfMQDjR9Hj+LjHFJ+vASE0AOsBLTPixVW+kTuyygFotEfTZRVhAHYP6rB572FOnM8vLL7xmYjPS5F7zwtnqwWoQfaKymbginMas2tmmckvp+Y1yACY+zYjbX9jIkeH5h67391Y3g929KODf12GtZvVgmJi2i0vFKe7u/WIjhA+AIWv2nQpWpmSuA6Y831fIjHXUBz89yEh22vpsuIJdNDZVYJlHp+MdivBGfxubQs1q68LN5tkYBuVcu81gPrKk0cc8hm7B+YaHrv/vrbl63O4h17F+Blg+5fb7gzgrTnvkgBEXF+fM19yWHezoxXFAMC+U+Y0EWtc0jEVuM0EcAgZ+Up16aH7RxL0ow2Ihf4RBv2IBD550EKjU3GtrV4SuwHk6f6YSt6Ut/KJxY0GzrJW5D3u0r4FOnJd+Db/QsWhe/Is4cQriLP5kcPM66inOeQVx9lPxCFSHO1rHc7WNhQER2U78bg8nZVudDLHv/PBOYTjZRtD9riIkwhxeFTmBD//CRoXtx/ev3b78vj0dPlY7vr/+HWc/enyZV34+C8=);lineShape=1;" vertex="1" parent="1">
                    <mxGeometry x="357.5029175430284" y="85.22784235446197" width="27.981682200979446" height="58.617061608649365" as="geometry"/>
                </mxCell>
                <mxCell id="29" value="" style="shape=stencil(7VnZbhsxDPwavxKSqPM5bf8jQJzGaJoESXr9fam6cqxZ7xgGChQo+rZxOCueQ1K70auXu+un7Sa4l9fnx0/bb7ub17uNvtuEsHu42z7vXu1po+83enX7+Lz9+Pz45eFm//fTdZfsT58fv/Y3fN/jNIovHRXcj9+/SGm/fviwl7/fPRzJRy8aJ3kviclXUTfJO1G/Lp+ShALyzq3L5yAxgXwqRL5JbqB/i+vyJUuZ9Y+S8rp8DeN1Q75KIvrXIiXM+lgA0jqgOak6Axq1oIXh8AEIZhMJgQFinVNCRZUAvOT5BG3DqtNGN6l5dmqSwrxaRlAHIJkbKgFEqbNbLbE8saFYXsx5lN2I/GlAETefYKlYGSBJm23IOmrjNGBhgwFY7hWVHC8ChJGbxyqR1Cgeq60bzQBuKHAE8ARg9Vnn+sxeAgmcASK41Z0DKKRGGxy4esJsQ6pnbZgLKBUK6F6a3ZoytaHHYSYBS+9EKs5orBYE0BJVcRedYKyRPLqVFVDL0mYvWfJlcoJ3h1ZwQDSars2KejbC/OCZTglDbXzOrK4V89uoirKAOWWuUWPPRmrUTAS/mpKOpKslZ5y91Aql75iRZ1qluaEJW5A5WolK1nCgRhvPDW8KVARUcoIP4mAscXxwUJwzukpkkDHaiiifSO558Rmd2kgUnMSI8o7oY9bNlGFRPiMP78+jwtf0gSxKo+Gt2QvykbKqBQz8o3RwU/EV5QORj6KL99PBEzubyWfizyya0F5WAxm7f0tU/yJhES/amsVDEZfhgRV98iLfGEtYzYO9jfa0xfDSyZiRiuSM8oxIF+2mv5+MwR6ZvetP/ONwHuz+ofWF/FBGRa/VI9RLPvN+zIc0MnBFHjk6jplhxT8F/Gl7CJE/DLvH9UXkdZH/Vr/E/5fK9w6wIAjaMqzHFPSQIzuFlUwICAi8T6peolJcNlZbJ8kJNiZi1fjBk6erPo+gHuaVygfHhJNmTaPzrC3AYHTlKtXFImWrVSReqouJyOZnFjibZWEez2lMYX9xt1ME/N/t/tHdbg7cH9/tFHkpRdpKLL39HId+m0JOsAoGGyIfjqziYBrRSgd+A8C1mapEptICECpd7frF3Bw4a2FsIDej3Uwz1jEii3RBEvBRMiMBK8hZJe/H1dvp5CtD4wPdU5ax8oIhpvLVMWGcjYnZ5e5hZXqTZzO8ZU2DbZkyvdpmilsdvRztm2lFALsc1SjNLQCsp5sJCQGZxMwAriEgMJUCZsXhFuO0vEcn1UGza/IpgDxr6Lrgo0IH5/5+6LYSuD7g0cMlzJp/0qxP5Dmh4/g3eTaPXPpF5Ly8Pbx9frnd3d/vv94c/x8/19hP+089+v4n);lineShape=1;" vertex="1" parent="1">
                    <mxGeometry x="312.7457146502186" y="128.36075964485448" width="7.354573803608517" height="8.131215275601816" as="geometry"/>
                </mxCell>
                <mxCell id="30" value="" style="shape=stencil(lVdbctswDDyNfjEk+AK/0/QemYlTa+raGcfp4/alqzIxIXkp/VEUlsRzAQ7u4W3/9Lob2Lxdzqfvu1/j82U/uC8D83jc787jpawG9zi4h5fTefftfHo/Pk/fr09Xyevqx+nn9YTfE84aQ8ZcYWz+/N+iZP9tfJ0Ah/F4A8hCvpUX4gTkE7Frz88UECCSyw2g3BCQRoGSNACXyXgIcL4BBEPBQICxDSAyWQEAr1VKjjhCQGxvEE+CAb71UnbkEUCqAh8AqW6461avAQICJyUzuAVkcuE+ICUyogGJ7wOK17PVgAxs8Ilce8NNvi8iXAms01cICLUVSkEDIkhXoei1PAONuDr9JgwJyhvW8hYkRqy3f8gniiBq1lNOGgANSJoxSokjl3qeqRShySGR8AwAYpBYl1tHJQmVUVYaXapR7Ba3lt9ZFQOOWwHoTMWJkW2txpWZJ5Z4lqootWOJw+wG5NZQ4qCaT68+lzgDUQAvcQYiGWtre1pJY36BWBFP2gVeRUS8VT7UbrmyMwTdbzutJxC3xdbpbYUv2vM7zbO0wtafne7stT6d9u907XfmC6bU5kNngLE6p/GAtHH+suSDEneIGim1JGFqOSyfzhREySNb58Ya4gx8z9UXn/IWxdZpVsT0ECIZbS+SL4w18w/SJ5UZx26wV0rv0+fD4dfP/YPiVaggbEmHzeP+CkBZfL4uXsbDYXqc3P7Xr5GyNb1k3ONf);lineShape=1;" vertex="1" parent="1">
                    <mxGeometry x="310.2701431656214" y="111.1592011020989" width="0.2682628717710859" height="7.801068640511958" as="geometry"/>
                </mxCell>
                <mxCell id="31" value="" style="shape=stencil(lVfZctswDPwavWJIgudzjv/ITJxaU8fOOE7a/n3BasiKpLVx3nQAFLDYXVIT373vn952k1Hvl/Pp5+7X/HzZT3w/GTMf97vzfJGriR8mvns5nXc/zqeP4/Ny//aUI/PV6+kzr/B7yTMUfE4y6s/yQBO7fw8el/DDfFyFa08xNPGW2G7HsybdxntyejveKnK2iY+k4na8UxRdE58o323Fe02u61eRAg0HwYP7BI8SElnfVZTUdnx0xKmJdwXiq/EpkG47lgbA+kkAbOsx5AFCEh9j37BBH0hlovUDmhLgRKqAlAT25BmQTtUWK0bCW0Aj+URsE3yEvJMENi3vDDEaQywo1jEbiqjr0CstIw26Tr6sVxMSbtpR6rQg3ALikde6HXX0xGjUtm86MFlUku1hdVjPOaGVm9VQPmNJ2WHQ4IamNZNP34HVYgENcxP9oPUHYlTPvJF54gj+O9TWgTzWZycecXEHZnBFnzYQY7l1FuC52OCNJhOESBilbqOK0hYqafBJGQwsSWBv57zC4Ubr/ipj3ByE7xqYxpXdR5EGXxj3N8EJnQDGHVQSEki4skUrCsADxjNAEg8AihsPGUlsCYxuPMWIyD3Q0HBKyiIEPZuC+YpLBkhOkx0aQDapCh4r47YAIdWvH7AFqOIoVZ5SP+h33J/lEAPwHP0C03qoh2UisJ6uX5kIw3o6PGVPcAD/YV4eEnSgQ+XTbWzDZ/Ivw+Xi//H/ZT4clr+H9fv+d0EeLb8a/PAX);lineShape=1;" vertex="1" parent="1">
                    <mxGeometry x="307.5039575572374" y="113.78953905476033" width="5.487184027282878" height="0.31368939223806097" as="geometry"/>
                </mxCell>
                <mxCell id="32" value="" style="shape=stencil(lVjLchpBDPwarqqZ0bx0dpz/cJVxoELAhcnr7yOyGbyj2W3iG8ZqUEstqdkNP7ztnl63m+DeLufT1+3P/fNlt+FPmxD2x932vL/oqw0/bvjh5XTefjmfvh+fp79fn66R11ffTj+un/BrwvlAyV9Rwf2e3mFK9e8bn6f4w/44iw+BAnfxnjiB+EISu3hHPq7HM1NlE+8ciBeq3uQTy3p8TBRcF5+IUXwlb/gG8iChWFr9GkAZ/EtxGRAp9hViRxlTTqkDRO1BhjVNoecc2jtrTXN9SpkpIIBrRWyAwuRkHeA1JekA1VPmdUClaOIrBaC7TNxTFkxZE4q5ByhlNAiekhsAgDJ7S1kBSNqRrTDucEjJzrJ4qkDcOZNkC3BAq0WIe9JVSABpyW3abwBdCKBvUiiMAMBBamvTXBmgcSJDSpUqWEkKKGxJJyRud9tZt7o6ioi1VnHoHOOcYs9ateHBDtAylUFMFYhJG1EGuQb0DZmKt4AIRloS5QHAQH0S24qYcRDEQY9JsgA0o9cEku1DxIAwdDojDlqTnnS9yWsNIH1KKldBfYhUigWg86B9KMMEoS2gna4GoDOKOJQFDh7NQx2+ocLzoPOQii0rI2mITUkbBwdIAWbidFfimc7DchWw7xXghpuVEQctogEwNFfaB1csIKJOfxRQxipFuO9zoWz2UobSSHlIqcCZ1jMqZpHVdsWWD3UgZxon96yAWcazC7B8IYLdAu/yWibR7viMQwXz4AZzkto6X4lfOFhAesPaqzfv8X/2TYXiQP4+2gVQXDsvaz3w/TdkB32DelzzQyapiUX+LVilqhFHR50z5b5pQa0HSIn1RvfzHO50oVqX6x306Ty43AwNouou9l9ws2erbTO6brZjzXVXM2owH50b65OgidF4q2v469arisz6gh3TchvHXeHG1nhn6wndsDVtWn60rimbGcAGzC6V1AS7lrxx2hFOmMabz4/Qh3hv7Z2qA9nsDz66uB+vL96fk7zsD4fpMcv8//a5ir41PZPhxz8=);lineShape=1;" vertex="1" parent="1">
                    <mxGeometry x="316.3612459516181" y="112.17316476714703" width="4.270161960289248" height="5.278946163278228" as="geometry"/>
                </mxCell>
                <mxCell id="33" value="" style="shape=stencil(7VhJUhwxEHzNXCu0L2ds/4MIBjNhDMSAt98722PJoxJK4OZw+DY0ylYtWVnVtfMXjzeXD/udM49Px/tP+2+Hq6ebnX+3c+5wd7M/Hp7wa+ff7/zF9f1x//F4/+Xu6vT3w+V2cvv1+f7r9obvJ5wXmzeQMz9+P8ji668nH07nbw93Z+etExc0ICYCqOKjBjgCcDBgusGZNcAnyV4DclkDQpJiR0CRmNeAmKSaEQCviEkpSSwaUP0akKO4OgCCkRjXgOKaxR1gxRCnS5FgNYAlrkYJRQMK8aGaZkAHePGWmBTEqsSBXcSHXMS6AeBse8UqrHEEWJCFJC4HKWOmLZ6QKAHg1Q1OsqMAq24wLTNLQBoARQy3KIxUio3uqxiptHnJRAFwXhWDE8vej2ob32/ag+fPZ6lVnbfM3yo2qPOGpLgYXWqIPztvtYD1B6vKdFnFh8WzZEmj/aAcK5vqNINcaDRfVbLKAOqsBgKAHCo1SpJY6cf2vgZIrrHwecAUVNDWEQkuUfzoQwGvWBqs5FHvYKQnPAIvwuhDBRNZJZcmhx1QaR7AbKOYZDhXUWve6CtY48mo3cmJyKrTtTbTAYGXv21h7wArgSQiT4kA41kfgUl2vKHwgoDTqi0g+WzEyEG3BeSyMqdTm0A6ACMGc3oSMTxJXMWy0SZlUqNwUUcJusoqCGEdTSqe5gGAOXGMfACksVNhJGA6A4BRFRTa8LeqUdV7QO8XmoMfnUYB0W6FNEUNqCSsKNGSNYBmGkI3kg9y65hsuMnpSOdbAIy6AZlhTltJihpVDMkDAErvoc9UBJzWpa1NMiF7MyC3DtULCAMxr4c6RikicQyQdR7QFVmD2GRrrAd8ZzgmM51qvbO/oN7/6nzLCu7/fPv3zbfswxN1NuY3tDFoVWZO2dP7+/OzpNcOu8jn4dLU8GxhwG44G9O6D5UGFQqtxqqYmsauvFYsiqGtNZZpGE2KnotLbJLeAY4SKaUm6R3AFRUuZuWDoT6EpPsOAJH0HZ/0t9IGID7My6QNQKp5XlcBwDrbvBADwBLAtHHDeU/I5xrRzt9PgoperrYwtS2jFufVR0kolKk9Q/08ehSxB9YqexKNz1xqgX57zuc9XYTN9vA92Oxvf8Pr4ulrG8dely8MCSy/Ex+2BSyx560b3pfP48efdfL14fb2tI0+/79eP+PRaXXt3/8E);lineShape=1;" vertex="1" parent="1">
                    <mxGeometry x="262.2240041155379" y="107.20660858700774" width="20.28333864635233" height="10.003193137608651" as="geometry"/>
                </mxCell>
                <mxCell id="34" value="" style="shape=stencil(rVZBbhsxDHzNXglKlCjpnKb/CBCnNurageO0ze9Dd6GtqWTHKNDbWuZI4mg45CR3L9uH580U+eV8On7f/No9nreTfJli3B22m9PubF+T3E9y93Q8bb6djq+Hx/n388Ml8vL14/jzssPvGRcCxXZBRX6bV5hq+rPwdY7f7w5X8TGQRhdfKOf1eImUk4sPmRKvA1IkqQ4QEzVdB+RARR1AlLSuAzRQFQdISimsA4rl4AFZqLZ1QK2kxQMyZKlZ0uwBSkUAYNmvA5QpgBxaJfZX0kyCrtRIg39o4w3QGpiJfRKlEaMkGkUPqEqM7lRGsRpxEWWdKHkxNaWKTgjEXkx2yYSeuoxyNUAFcq3S62sBFGoRAKwgPUvNtihArpWyv5LpMYB3KKXLfwEEElQQBhhMIFEAOdiVBjFpgSdUHlmyqlVgG3WpyKWCSqdh7eGSP8FqVAGtJo3gk7YaZXCCiW+0jdqtak3e4gEqlG4UkL+SNsjSZzVqZomPyJ5XY7qgrM1oBn1zN7dVKxv0bSuoqK3mhxMqLrkP6rvi4T8hNFEcjCNBy8+p+/VCrDVGkEUygE+7CLQma4Oj5ZuEQQ7ROoLPIZlxIMvXUU3SYA6Ziu9aNh4ImDaE2rA/dzl+ngGJr4doagS+tPBxNWsUsD9301riA7SAD9UWCuzS3Ole4uVGfPV8tk7ASrptGEuoQfbTMFhBNWSK/jIB9mbr5d7sGDYps7o6hKN6/Ne59na8ffwdop92+/08g1//Pw7dtjQP7HL/Dg==);lineShape=1;" vertex="1" parent="1">
                    <mxGeometry x="368.6513957028635" y="129.12595560187475" width="10.218703667736373" height="5.2293038361654" as="geometry"/>
                </mxCell>
                <mxCell id="35" value="" style="shape=stencil(lVbbchsxCP2afWUkoQs8p+l/ZCZO7alrZxynl78v260cI3vPtG/ymiPBgQNM/PC2fXrdTCm8nU/Hr5sfu+fzduJPU0q7w3Zz2p3tNPHjxA8vx9Pmy+n4fnhefr8+zZbz6dvx+3zDzwWnlSTNqBR+LV+iUCh/vnxeAPvd4QrQCml2AK6UAaBmiv6F3EjTOqAwZXaAIlTbOiAboDlAFRLgEmdSdYBmLoEXjJPoX9ACY4iFmmdJhRJ6IVHzLKnCoJVyHu1VQBoo8WgfK+Do5v5GHEEAxNXbZ6qAoUApePvLDSv2QZy9NBJF/gTPp2QqoCYSqedHIjUQb6EylJDlC/gv1Pz9zYoa8Zko3AJAgq3kIo8eCfAoth7gJWR7E7mkVOLI6V/W7nMaiAdShThAQPCsWlU0LEzxLlnZIRnESnXQQaOCANwduBIOI+kHKl45MVhYIOrWO8PVCwUkLnchXvWWkJEUdJDmpXhXpDa0U02UoX3wUhaFIyRQHexLT8qKNIdWYXWKUpYo6o098N8ISj5jNcG65jA2x5JhxDmQeEpz7v34fndJ49Bk7g1kdcr6oI2GBopOuI+XCwDOmzlHvuoijGBuz94+QNlo6OPowx6JxmqyjPcnUBTWF4YGHCkC0dhiVAdCu67v28uo4kwZ+W9dxN9fuyzW7NUPQO0TbqUN3cgyRiooA9r3uAuA+663FjL7kK27RrSz/O+y+Q8AO3zsti+7/X5Zja//H3dh+7Ts0fz4Gw==);lineShape=1;" vertex="1" parent="1">
                    <mxGeometry x="369.2303131447371" y="127.97885583664157" width="8.30128985135616" height="7.865338191000592" as="geometry"/>
                </mxCell>
                <mxCell id="36" value="" style="shape=stencil(lVjbUhsxDP2avGosy9dnSv+DGULJlBImQC9/X7kZb9dychbewrJnbd2OjrSTm9fHu5f9zrvXt9Px+/7X4f7tcSdfdt4fnh/3p8Ob/trJ7U5uHo6n/bfT8f35/vz3y117s/36cfzZvvD7jIuOam4o7/6cn9REtfx78vUMeDo8rwFMXAdAyRQCBLg0AhylhAF+AGQhQSc4KmEApEjsICCMV4qJfL4OCJVyHAAhUwFeCoUyjwDX3XAZkEnKABBPGV0pUhqN9okSA4BQHt3qmaIAAFOSAcCZvL8OkEx5TA3GJ0ig7MZIU4zw/TjazAHarD6Mo1e5kgNxE0dsnBTIg1RqNx4D7StFEDf9Xhm9qlZVYINGqY5Gt1QCJ6iJfvRqUD+D3ONEYfRSwF7SsNbRBq0fAYEr/fylQDW3KjhAC370aiww9dTmPDopaoEirxaSZAGIZKR0llvZnBEFaBgmgAPVEGunxQUQyQMvpdpJawEEeKWsTC0WEMCVSuh5sAIw8FLRK41EGYUKsEG7TXQWkMEJNVPyFoDqp5YJoEYjQKXgbBwYuFUBxcQhEYNyYKcVbI5QasV3MhXUCgIcoQA2kdMngDXUTeItoADW0ED48YTkyCPA4pQVQEBR12iVgwIcyo1g2VttQNqkylTUhSJKV+nUuwpcRLkxAzTjkdEy1WjsLeaq0YYrtSmi1IjdiSuAQwANnLmSwIbSUmNmAWS0Jp+zV9qoB56or4I+XScFp25FDeJSjSYquOSKKbmMmal2HlplH1KVjcpM5CqU0o0sjTJWgYNrNIoFoLb4aYB2CJkASHuXYOVMswG4VbtcmngGCSbto0asNxtAMrUbG+pjSPiqBcyUlTwJ4BmpnUoXgHTdeFnPVKuYdAZCkszrEGaulLobrmkyo+5T7nL8chyoTu8j1vBdN68uhDTfVJ/qUySXnFW5TfGhCWuiGIYTWbEqoMlupAJ4kt2OMogxT+1NEmRJFfaG9IRh2vEk3/zC/deGkzTa0PIKUJgXOzpwhGnnY+f11VDJwIY2f42cp5UDilli33f095fEujYWx2q+jyRxCJblMxS4ofTdxWrIRR6Kzu5LNIwJDRps+U6djCpNu7ef8gg1qqawDWAR1ZcB0QJChiK9LWzGKOgnKtoqJRvmpIoBGZ07f350DZUtBW8turLV6FurtGwnk61l3XQlVQQwl3IfURdAwYFLthpU1aDyaUMwW0BANkQrGJrQQoELtpGstNy1/C7uswijobcu5e2+Ycts7qP8Rx3LPTtXoUNkPy9mt5Lj07vibYD++L+afjg8PZ032+v/21W2PjqvweX2Lw==);lineShape=1;" vertex="1" parent="1">
                    <mxGeometry x="311.59572488407696" y="97.21345216385981" width="9.912090194791745" height="10.490497175793454" as="geometry"/>
                </mxCell>
                <mxCell id="39" value="" style="shape=stencil(lVfLbttADPwaXYldcp/nNP2PAHFqo24cOO7r70tVkCpS1hS5ydLQIjnDoXaQh/fj09th4PB+u16+Hn6enm/HQT4NzKfX4+F6uunVII+DPLxcrocv18v31+fp99vTiByvvl1+jP/wa4rrjTiNURx+T3caZf574/OEP59eV/jWqLPBx0wt7AfUTl1MACcKGQQIZZuRBCppP6Bk/wZpJH0/IFeSZgJSpQhSSo2afUMuFCoI0Iy7CSiJatwPECEpJqAyNVA0F+JseQuUQEqxz7wuAZUqYFpbEg2+dwogI5UBe3xFPZo5WoQUAgWgJKZeNy8APY1Ug8W3WSh38WFux4LXBoGCA0Wr066cFIQPrqGJCsSLZbgLBSDrSNHlHyHB7Ce/h7lj9zVKuXt8BP3Ms1xW+NDAHFNij8+g/5VK9PWiCWiU7Ih1hgJVtTj9qGRBf9QknD7z7JU7eOdCqrcE+qlPXf8b5EvVuJmXDPqfNvmrdQO8zNmu8A3omWf1rvAM+I2beWkUAV+B2PWzUAX5L26z4otBP1Xt7v+FCsR7Q2S4ZaJfMqpn5IcfxgtVOwC6MhpoqFZQrCJ0N0OGqy+5FMogQDKJ9YisU4o0qqKzpph0CaBdH72qx90MWChqu7YGidCGSqNg26qTARerDpqtIeoHCTKi5J19sY67eNWlWGUHSJv6WuwOL2Cx6py4SdBRAgWPe9Hng4SqPrjJhwFloy9Eh6+oXnVqm78yjPLpsyYXhudVtYdvVhGCP83CxooSdJbRmC0+UwWbYzR+q7gCv9nHDyVLgH4JYQI+dIj4P14v/p1YXk7n83TgWT/3Jxy9NZ2O5PEP);lineShape=1;" vertex="1" parent="1">
                    <mxGeometry x="366.97139175879397" y="112.40152997502145" width="7.580866565634833" height="6.807318889570091" as="geometry"/>
                </mxCell>
                <mxCell id="40" value="" style="shape=stencil(nVfLctswDPwaXTEgwec5Tf8jM3FqT1074zh9/H2hahiJ0GjV9ibTWBIEFgtwkIe349PrYfD8dr9dvx5+nJ7vx0E+Dd6fLsfD7XTXr0EeB3l4ud4OX27X98vz9Pv1abQcv75dv487/JxwuZDPI8rzr2mlFsr+z8rnCXA+XXpA8j3AU80AkCm5DlAUgE5IJD0gR+IKAGJPSJEybwNSJc8dIEbyAQCEQu0AIZDINiAmSqUDiDoJ7hAKSe+SDxRAlOQjTQ3gEpW0DfCVsvQABy/tKsWeGpoYkGhHsb+Boxq3zZm8cYcicJ+JizF3yHni1JkzZWAudncmAdmKjcCzOXJG6WZ3Zwd891Ts9gyooIl30boDIu9KS8xsH4A/+ndlG0zENEfFMsEB4oyZz8Y+FujPijpIgVym2uuDJw+y60IrpNk+AjnROgps7ZFeUanWHLAnNOGYzQVF35LBt1LYqKtoY4l0SploU+tBqtgqM2ONsiLIMPBhzUsPeFzIrcoKSYhGIlh7RIOPLrWwRzRTf6z7gstQrKYl4P9ob8sc2ctqFIhNh7ZaliGmYwiISvw+oKpcEQBSbjqwaIoO0E1HB1613YgoIU1ZF43dgaSVQqU/QUcHB+5QxbZFHU4ScKkmCn0axvEHdZfSms9iwCogSrVS6omxM8I5XpX9zpQ4HtGHSVcYDEzjfskCBJ2QV4NrhV2jRjtWKiAjgAalWkBFd9A2avjNWDJKtp1+FxHtLLHj1DhsrwKLrl3cKtc4sLm2EvvL1OkTIv4TOf7nkbIH0I/5TfRyOp+nJ9Xyf/uG0qXp/SWPvwE=);lineShape=1;" vertex="1" parent="1">
                    <mxGeometry x="325.5441414063863" y="67.2861550145779" width="2.480674088992947" height="20.940235894798032" as="geometry"/>
                </mxCell>
                <mxCell id="41" value="" style="shape=stencil(lVjLctswDPwaXTF8iSDPafofmYlTe+rGGcd9/X2hqnQEUF7VN1nGigC4WIAc4sP7/ultNwT3fjmfvu5+Hp4v+yF+GkI4vO5358NFnob4OMSHl9N59+V8+v76PP9+e5osp6dvpx/TF37NuFoopAkV3O/5jafi/r74PNsfD69Le6YalT1TKMC+0pj19z0lsIB3jpzTiNx8XF+iEGuXJIbKMIZoAJKFDACZYlCAmIhRlhLFogDJk48AENrfVwCTD7cBRfLqFWAMlD0AyD7pGEZJwwgAY3OgAbKnCLJUIjkDSJRB0FzI6yyxa3lbB4zNgSvgujM3ATpLXCkCLgkga/KV0BK9DsjkdAyStwzSymw3rnpIb8lS0hVar1t5yyVDPqkQj2Jw3QqFKqC3EMFwaSpz4FKqrVwWALRCZHJVi8CHLqwignCt2iUKiNpHKl0QiBtjq69FltBOO6rGnqFDjoKWAJGdCuxjK66FvQP+e0c8aoCUB0qpo6LLTXSNQcQxUCkWkIBkpJFG7gBAukWzTH1uuJS5Yx4OmlNHC0krKmjpHd4CKqpPbrWyJAYChM4lzLxJd7tyg9SOxF0tIK5KOzMtdLM+pUt7uwSSAC8q1wWBREYmk2qzhBYIbVv/Uya7uWTS4Xvtgf+uDS3LxgDaZ7D1P3UeYB8p6fxIa4PFSdl05wr9z5ZDvKlHUW+AEL0CWvvURtPrgIEpJC4ZyZbKCEBeRMBMDNLq/jWidYAUYjdVeZTU2OpqMbchxZM5MGkRljcOrSAu6W6ecAzSnL12aWO6lRW83oeN+TllK8IbE7r0hWTkBZ8BBFDuOmZIEkftEj7HTOO4GUjgOSl15yRRTNTYnN0EkQOQUlHsbO0z8GfsupRro/F6Mcv3s7H3aCSslnW4HcigzfUO++KJ+Q5/+uMOjle0tlh7lM9pirD2aL9qxzfMh7vP5Zv28vBxCfByOB7nO4Tl//bSQF7NFw7x8Q8=);lineShape=1;" vertex="1" parent="1">
                    <mxGeometry x="299.309283658683" y="69.76584669449852" width="1.1372636071927922" height="15.998351593534565" as="geometry"/>
                </mxCell>
                <mxCell id="43" value="" style="shape=stencil(lVnJchs5DP0aXVEEN5DnTPIfqYozVsWxU46Tmfx9wFGx1QTUT5ObLOORxPaw6JTefX/8+O3hFMP3t9eXLw//nD+9PZ7SX6cYz8+PD6/nN/10Su9P6d3nl9eHv19ffjx/uvz97eOQHJ++vvwcJ/x7wdVMkgcqhl+Xb5hC/O+LDxf5p/PzTr4IcbXyGcgziZVP6Vg+N8rFyEsD8plSX+Qj5Q7kA5W2yCcqQN+k+q7nZ+rg/SkTyyJfqVUgz9RX+3dKSD5Qi6t9VGGBF7BxcCVmAIhUVkAMxAGq3HgFZKyDUDWARgJuUKfl1Qn6yF4AIFEIK6BSB0prGOUVcL3zCBBWK+mdBfghaxynFVCxWcV6WnODQaqpTeoa2rlTBX4Yobn6oQQSkAwaCLLeoOmdwZO4UCgWgBzX5383+UgR0QuJk0/g/Gizf5wP3BxsHBVMR+z0DRRRKpCsHhguA+cLBediBuczO0CbYXXksVocAFk0zFzfPamAVBvkwNamESSCKh2NExJV4DSNorjmZtHsRxwZJv1spK12QyyvUWBYvkCzjtxcGUzu3KBssvpB6qx0RyxcV7poPIP9NmArAxtAv0GANjuDrVRpeiDKC1RNbUsU77DwatZeqKBuoc8HbACBxa3kGZsboM2CfRNQg6VtBQgCiG1guj4SpKhkimIBiOdboN7cDSBFW5uhttOhAU/37DzdZjjeBjRLM3fMOs4TBwBWuhpxDwD5oIDsnhTRkzpJtwCUcQroTgcUrQPgbkBEpoBWLKDhG7xZOzYru+BDsdSbpcpxBGDvYXUHCEhpcRnX4YihgJSd0kgHcayBi2Kvti0ZjkOxVF2KNjhmDNpyT0ooRYVKsAAY3kLd5TRMIJ3EPFWiWFKruyehgqJ+Tc6sqNsbKepuQO3eyDjHfKit5+A6vuFq/KbuzCQ4qauLjY5io9uGaSQEArQ5cv7flPtjgC+jfQ5QRyUouqooqMjxZJUdAE1w4gbvnS+PKnVwb0KOKErHjiwruEH7VF9HOxp0PW8IrBA6VXbjuYL3E+KSNFFGgGIXINr1oSZOO1fTfWtfiZhpNNOmEWWYcsntcLQ3RmNo3ObgffeNJohmp6DR3yOA2M61MmzidHJtZhIVSJZjVFx10F42IICfRRlmEGuOrmRZAlzL6KyYogVEEEscbSwpALaJFNyCIgMV6vTqTh71S/HGPgONomWm+04ebbqUFKuTB/WKdRZwD2JASdztIFoCzB1VIa8+y/3ubOxWDnByLZNPNoDAMErdBmoucOWgpBf97g2NiWxn47EGxltic0MSmGzJNa1Kg8hxY2lqtqxtVpejDYJpTGLGe5ZuVw4x4D2Lq9FjU4yyx7WUmuAJ6BD9uI6NxDaU6hyuD3cgZhcF35OaTYY4SfZ2WET/YwlasWjgG0bFdHRln6s86qpGybDyaNVQs20973RIxY71YRLykbzZfQQ4TKq82PNRPNRqmQK3Iipv0jjMinUkn+z5qK+4JV+Q/etcBl/l0ba3unoW4GgxmhQXb1i+2PhB2wKV5/V8xvHzhz8u3pfXD9dfMj+fn54uP4Tu/29/+dSvLr+apve/AQ==);lineShape=1;" vertex="1" parent="1">
                    <mxGeometry x="439.9275641181123" y="71.68565670154203" width="20.573666030338362" height="66.71006450086905" as="geometry"/>
                </mxCell>
                <mxCell id="44" value="concept : multiply and divide ko hi operator stack me dalna he&lt;br&gt;and plus minus ko keep in the same stack" style="text;html=1;align=left;verticalAlign=middle;resizable=0;points=[];autosize=1;strokeColor=none;fillColor=none;" vertex="1" parent="1">
                    <mxGeometry x="460.5" y="78.96" width="350" height="40" as="geometry"/>
                </mxCell>
                <mxCell id="45" value="" style="shape=stencil(7VjLUhtBDPwaX1Xz0ozmTMh/UIUJrhBMGef199HGtctKg9vlXHLhZhb1jkbdeqw2+eb18e5lu0nh9XjYf93+3N0fHzf50yal3fPj9rA76q9Nvt3km4f9YfvlsP/+fH/6++Vuspx+fdv/mN7w64RrgXKbUCn8Pj2J1NPfB59P9k+7Z2efjb1QjtA+iH1/J27nAbVTjwYwnVAgoNkTshADlxRQuwGUTqViQDKAGqgxBLANaovzmWcBxUY1UM0YYKMkjRjfoVveeqIYzgOY538vgEoNAEogcYAMAalStgARSkB7UahZHkSdRFqibImWSBEoI3naZMmO9x2iwJZm1SKQaqAo3j5A+2AD1GQO2Rl7thw3FYUg/5uzr9TB+/Pwfo0wIIxJrKqbPgHxFC9qtUeijtETrIAC0iaW2d81ADHcKA4AlMlxqBUaowBOmEgIHlBR2sis4ZWqA3BJy6GjQSqsd5xmVS6ZHKGOapxlv0r9DlxqmZLrIo0SiJLGhNNwB5DKmrlO21orBNRsWZSzAlTgUg8DD1jdvVDqwx2AWnsbukKDzbaPXUGoAC0poDuX9BWAuC7UHdO4FWrTKLamqpYa0JK2JRkaFYMi+XbFFaCDEyRTrV6tqAxPVbr7Exoaepa2tAIEwHRLvi5plAK4g45VLkpKXEd3UIC9tMYN9Sp1qQwTRsWXzg5Q50CfC2tiDwhArUqcL2S4GOsVWTygAZfelLNyKaGMq3O6rACo8mnGhSFFAxp6wjAFKNURH1GcvnWMQSnXfOlT9aEGMQGGBoEAylyzVGvgBI2rmtQWsIrD++PnMiosR3Q4vOUwVCaev23eb7xpHo7WlQm4FNl/mShzkAjfRif1AaY/5tWPeXWcVweX/vO8yr7iKctoKMltaFUJjj0cKbm8EZg3XPwdpv6MhME+9S98bitAXOrjD3oetYdXBgpoVksXlhITwGbDhbWHAqoFXFisKICvWt0w+2XSheWQAtw2CW+fJnsbVbzdUvvkt2EFx7QnZw91pPXKvl9VgQKk12Nnj1oUD/N8gAuPGn2Hwk22Zi+JC/ZardI1/jQK9Yr7TmNCuSKeVRVv44P50qk5ujEE6uFftqnYXn+8rW4fdk9Pp83v+v9+1auPTmvifPsH);lineShape=1;" vertex="1" parent="1">
                    <mxGeometry x="333.0492540916366" y="165.51527093865627" width="5.458462170929713" height="21.67230856291854" as="geometry"/>
                </mxCell>
                <mxCell id="46" value="" style="shape=stencil(lVrJch03DPwaXVncQZ4d5z9cZTlSRbFcspzl7wPkhaNhc6bHuj3LABcQS6Mxd+nD94dP3+7vov/++vL8+/1fj59fH+7SL3cxPn59uH95fNVfd+njXfrw5fnl/reX5x9fP9/+/e2TSdqvP57/tBX+vukF14opRf/P7Q/e5f7fH369iT89ft2JR+dn8eK8MHHxk3jwrpLlk4vz8qG4UM7ls/Pz+nr8RuVbmuXFpXguX/D8KbuQzuWrq/P6OQyDHcqLy/N9szgh9mwuxNn8ep7K5Cs8V3ednKc7Xyf5yt+3u9hm+e5SY/JZJnlJF+v/7y2bfHXJM/kG6+sJw7m8uqOfN2gaEGQDVUjzCzf1QeJBqlDmI7XiOnkyVWh5VhBX2ZHCcIFNoblOjKoKed6h++FXZwp13qGrW5NnVoU++12P1C9CHGG1KaQRSmcKEe6QXWV3iC7PodyLq5kqyPxwvbrCfCm76FGhk2QXBJNpF+5LGg4NFQI5kuXTgAqRmNXSYUeFRBSSvkNcFFiGl4M7ZOKtObmyKBQSQLk7WY7Eik4pBwqN7FDDcOZNoTnPykLFJKAKkby0BFc8KmSSBDQvoi+1YbfjyqAhv+wgJB5aGuGyU2C1tlXXFit1YqXWlzTDFTSp+LgosPKQRurd34G8tEZwWswqbAdZEpm4TkK0bwBklzUYBLBwgTtkJ6zmyuKtWuOI89kdZtfQCsRKlp64Qo1L1FtVIUCdbjSRWa6e30E0nzPXKBgPFoPsDnmstyl4JwwqJdfmVFk4VlUF2EEzFXWNhOAkF1qnNR5kdo3sh93OFAAJJH1KdqSIAFELAMNL6mqQWw0zcoU0H0lBeCN5SbFLB4XIH04RGSgoCmSX9hjTWrkLS5VLBdI2JpIKpApxjoeQOK7XLDS7hqFAtoPWG8gatK5rxMucNISiJZVPM9KoNKCtOMw3zvTRVB6ynsICdn6th/DI/AUKVjdPk6rJC8jTcqtOHECeZUg7fwX5yO0DSd7TZKTygvel77UBzZ0895+M6zPAY/6G6ycWAIL+43lIykASu/fl8g3t37k8wNpwZc8cQJ6+r4w++U2exm9dmJeBZE79J6P8hX8mvC+PL0xYI0BP4wvtT8HmAhB45bPzLLwX87cyWuqdP7P7Vsy3fkCeM/kaUZ7nz97fIy/4virP8pUgk+VHgj+NF5TPfP2O963MPu+VbyP9veV/ap+GzFRyia8P+TNTkkYr/EKcMo5G5SF/CiUfVB6bLQ6z9HkAogTOxHmEuwpRPAPUAVsnA0EXUHEOmSA0JhWMQhcR+lW/CFSCegVjBlShg0LhvVYaVWsHdxmQUwWoe+kCvWZsCtJGLpw2NvNLW1NASrG1k9BFFMr2aa8F2EAbG9pVF3wHa50u+kXo5vgcQRXaXP4qJ++sq57zl3DG0hif2azawjKq3/gYoJrTyMnHCh3bDkuCzEp9YZkC99aOIOeCSgje48DFOE5mV22FgA9pNLEagwOMS+dmqiPxblng7ZSnLFB5n0Zcrs3nKEZlRVRoHC9Af2AKDOBp/7PYSUjQScdcpgqspZOCkFkV2GxQwkIedzpdq0tTZz5PzFrDAF17wo9TuwekJbl0PuIghTi40dPLDsysRoAvOzDO5YBib3Q2ckDic9LyYEyw8QvHeWAdRLSBz44VBNtxfWkWcYYVVgW2Q8Ip2IVrhIVoskvT2Sgg0H6RjrGiWFFiVXEZH22cwZk8JAA+AesITS5GbFuwb/IbW/iT8oG2PAvCVYjJZlN9mbz2i9kxYAbraehsHXhE63GJPRvOpm0STNeHZGejZtYCYwTYLJvKQ4dhs3Jiz6Vjk0RBmGAqrZ2PpJDhqIW2YII11r5VIAFcR4O5yWc66y8ICbPQCpux48+c0snIiKRM+520dKhCEWcchMyOtqY5dxCk+/6LnN/jbCzwAYhHhoNj+AU5egrIPcJrT8fKy3ccfnyZcnZ2XJ2xIX4lVz09TEGuiHFdHqkxDkbDGFb8rHhEYoaNqgNWLc+/9EDw7Wm7G1bWOVLxtjgB+7Dlfd+yXYrrj7fP5r48Pj3dvrrb/z9+Zqd/un2ilz7+Cw==);lineShape=1;" vertex="1" parent="1">
                    <mxGeometry x="308.1930128367176" y="227.52061710328377" width="31.812653739635692" height="58.54061192418518" as="geometry"/>
                </mxCell>
                <mxCell id="47" value="" style="shape=stencil(lVrJch03DPwaXVEkuJ8d5z9cZTlSRZFcspzl7wPmhaPH5pumfdOCngFBLA1g7sKHbw+fvt7fqfv29vry+/1fj5/fHu7CL3eqj88P96+Pb/bTXfh4Fz58eXm9/+315fvz58vvXz91yf7THy9/9if8fcGpeN9B6v65/MFJcv/94deL+NPj8yweJvEgrTBxbZN4lqZMvJRJ3Dup7Vw+SMqzfJJKtI+SZnXUSyTPt6fNp9UiuZ7LF/Fptk4UT/SpknSSj9z6TWqc5bOkeC7vvbhZoaTiyAEM0OY3pCwlEIBKmk2UHTWRASq4RBTH3hDEzSrlTJ3CAODSuUlgKhlgVql4ycysQcJ86BKkEL82QIQ3JMkc8L8RD0CRkCigza5UKreSeeYca9VJYCpFifOhq1nJU0CeD10tvjMFtPniahgJ4TYgoWvUyL01YfqqiXtrQteombtGEgWVCreSAeabrnVktTNAmG+6Non8DGE+Q/Pi+Rvi7BpNJfJDpznNtDCc5QyQ55tucTziFABvSMNZzgBltlIrouwNedjkAFTxzKxVnMM3NGJWq6xhAVSikpU3zQhgAWTVNRcEZBJAwUmpCEis4No9LGdI5B6iH/XmCsB8KZZRDa4ALC8ly94RAcy9UxuOcAA4K8lppN4rACu7Vj5WACu7JWNhN/dOBPCeeq8Ajty05TmgPpuIsyxUlxB1xKyWVDDNBJr53nPEFUCJWXvIL3mJBZBZvcAZjE8SsxogLsk4Etfo9wolK1ImYGcIM6A0aYzyWdmdfcm4Bksz3axz1siFktCe3GeVLEIyyd7rTSc/iPJtgEOSGKMo89Y2aPxBpAulcAYANhP8ONWZe+c54ix5BkbVq+isknIqbXW/QnNSKeczAFTRXsRYiBasD51nskNbnpvd2/g+c+96kP8jgKQwI+VRDI5wECWOYfIBfHVoeCavsz6JxoJlvTq7RRyM8VR+1j9Qx+7yFeRZ5NSM1TCM6D61TwP5wC+4oLxyl1NFeXa/BaOGZ2wLGof2ZF1MDzLUn7GLnp2h4eb+WZHZBsoiTR78M47e8kweWs842P2ZPQv6Z+T2X/SJLI9m7Aq38gn1p/pkTLubvG7hGtCe7Pk34pEVyy6P/rnJV8DhN/6WsVnb+HPGtmUTL2WQuB+Ox4T6b+K9oTzNJxaPaH+arypSiU0+/Hl5sKc5FNcnzfeVt/Lz83kP2PXB+pg3pHr2TyvAgRWwhgOLPnvigDhHfCcR7IoblnhfaethZM7BEFXpAG9lf3YLrBVvS89oZC6QtGIAOEOni0wlRZ7fCSkJHCPVYQYY5WWjqZW2G6lmY53e8C203TGVMtZiawxoc1PQWa31qKxBq5hdrLmhjUFDOtELKDtDW+YPbjCY20MX55api1LebodoS5fJZoS9t4epCy9S/d8LgKqkOJXvvTjvbrC1jpz35qHx1XiAEn3FSWrjzLoUbId670xuro/Ul9mUI96X1xlh4cuatswTCmULKWA134z84rLfMQDjR9Hj+LjHFJ+vASE0AOsBLTPixVW+kTuyygFotEfTZRVhAHYP6rB572FOnM8vLL7xmYjPS5F7zwtnqwWoQfaKymbginMas2tmmckvp+Y1yACY+zYjbX9jIkeH5h67391Y3g929KODf12GtZvVgmJi2i0vFKe7u/WIjhA+AIWv2nQpWpmSuA6Y831fIjHXUBz89yEh22vpsuIJdNDZVYJlHp+MdivBGfxubQs1q68LN5tkYBuVcu81gPrKk0cc8hm7B+YaHrv/vrbl63O4h17F+Blg+5fb7gzgrTnvkgBEXF+fM19yWHezoxXFAMC+U+Y0EWtc0jEVuM0EcAgZ+Up16aH7RxL0ow2Ihf4RBv2IBD550EKjU3GtrV4SuwHk6f6YSt6Ut/KJxY0GzrJW5D3u0r4FOnJd+Db/QsWhe/Is4cQriLP5kcPM66inOeQVx9lPxCFSHO1rHc7WNhQER2U78bg8nZVudDLHv/PBOYTjZRtD9riIkwhxeFTmBD//CRoXtx/ev3b78vj0dPlY7vr/+HWc/enyZV34+C8=);lineShape=1;" vertex="1" parent="1">
                    <mxGeometry x="365.6929175430284" y="227.93784235446196" width="27.981682200979446" height="58.617061608649365" as="geometry"/>
                </mxCell>
                <mxCell id="48" value="" style="shape=stencil(7VnZbhsxDPwavxKSqPM5bf8jQJzGaJoESXr9fam6cqxZ7xgGChQo+rZxOCueQ1K70auXu+un7Sa4l9fnx0/bb7ub17uNvtuEsHu42z7vXu1po+83enX7+Lz9+Pz45eFm//fTdZfsT58fv/Y3fN/jNIovHRXcj9+/SGm/fviwl7/fPRzJRy8aJ3kviclXUTfJO1G/Lp+ShALyzq3L5yAxgXwqRL5JbqB/i+vyJUuZ9Y+S8rp8DeN1Q75KIvrXIiXM+lgA0jqgOak6Axq1oIXh8AEIZhMJgQFinVNCRZUAvOT5BG3DqtNGN6l5dmqSwrxaRlAHIJkbKgFEqbNbLbE8saFYXsx5lN2I/GlAETefYKlYGSBJm23IOmrjNGBhgwFY7hWVHC8ChJGbxyqR1Cgeq60bzQBuKHAE8ARg9Vnn+sxeAgmcASK41Z0DKKRGGxy4esJsQ6pnbZgLKBUK6F6a3ZoytaHHYSYBS+9EKs5orBYE0BJVcRedYKyRPLqVFVDL0mYvWfJlcoJ3h1ZwQDSars2KejbC/OCZTglDbXzOrK4V89uoirKAOWWuUWPPRmrUTAS/mpKOpKslZ5y91Aql75iRZ1qluaEJW5A5WolK1nCgRhvPDW8KVARUcoIP4mAscXxwUJwzukpkkDHaiiifSO558Rmd2kgUnMSI8o7oY9bNlGFRPiMP78+jwtf0gSxKo+Gt2QvykbKqBQz8o3RwU/EV5QORj6KL99PBEzubyWfizyya0F5WAxm7f0tU/yJhES/amsVDEZfhgRV98iLfGEtYzYO9jfa0xfDSyZiRiuSM8oxIF+2mv5+MwR6ZvetP/ONwHuz+ofWF/FBGRa/VI9RLPvN+zIc0MnBFHjk6jplhxT8F/Gl7CJE/DLvH9UXkdZH/Vr/E/5fK9w6wIAjaMqzHFPSQIzuFlUwICAi8T6peolJcNlZbJ8kJNiZi1fjBk6erPo+gHuaVygfHhJNmTaPzrC3AYHTlKtXFImWrVSReqouJyOZnFjibZWEez2lMYX9xt1ME/N/t/tHdbg7cH9/tFHkpRdpKLL39HId+m0JOsAoGGyIfjqziYBrRSgd+A8C1mapEptICECpd7frF3Bw4a2FsIDej3Uwz1jEii3RBEvBRMiMBK8hZJe/H1dvp5CtD4wPdU5ax8oIhpvLVMWGcjYnZ5e5hZXqTZzO8ZU2DbZkyvdpmilsdvRztm2lFALsc1SjNLQCsp5sJCQGZxMwAriEgMJUCZsXhFuO0vEcn1UGza/IpgDxr6Lrgo0IH5/5+6LYSuD7g0cMlzJp/0qxP5Dmh4/g3eTaPXPpF5Ly8Pbx9frnd3d/vv94c/x8/19hP+089+v4n);lineShape=1;" vertex="1" parent="1">
                    <mxGeometry x="320.9357146502186" y="271.0707596448545" width="7.354573803608517" height="8.131215275601816" as="geometry"/>
                </mxCell>
                <mxCell id="49" value="" style="shape=stencil(lVdbctswDDyNfjEk+AK/0/QemYlTa+raGcfp4/alqzIxIXkp/VEUlsRzAQ7u4W3/9Lob2Lxdzqfvu1/j82U/uC8D83jc787jpawG9zi4h5fTefftfHo/Pk/fr09Xyevqx+nn9YTfE84aQ8ZcYWz+/N+iZP9tfJ0Ah/F4A8hCvpUX4gTkE7Frz88UECCSyw2g3BCQRoGSNACXyXgIcL4BBEPBQICxDSAyWQEAr1VKjjhCQGxvEE+CAb71UnbkEUCqAh8AqW6461avAQICJyUzuAVkcuE+ICUyogGJ7wOK17PVgAxs8Ilce8NNvi8iXAms01cICLUVSkEDIkhXoei1PAONuDr9JgwJyhvW8hYkRqy3f8gniiBq1lNOGgANSJoxSokjl3qeqRShySGR8AwAYpBYl1tHJQmVUVYaXapR7Ba3lt9ZFQOOWwHoTMWJkW2txpWZJ5Z4lqootWOJw+wG5NZQ4qCaT68+lzgDUQAvcQYiGWtre1pJY36BWBFP2gVeRUS8VT7UbrmyMwTdbzutJxC3xdbpbYUv2vM7zbO0wtafne7stT6d9u907XfmC6bU5kNngLE6p/GAtHH+suSDEneIGim1JGFqOSyfzhREySNb58Ya4gx8z9UXn/IWxdZpVsT0ECIZbS+SL4w18w/SJ5UZx26wV0rv0+fD4dfP/YPiVaggbEmHzeP+CkBZfL4uXsbDYXqc3P7Xr5GyNb1k3ONf);lineShape=1;" vertex="1" parent="1">
                    <mxGeometry x="318.4601431656214" y="253.8692011020989" width="0.2682628717710859" height="7.801068640511958" as="geometry"/>
                </mxCell>
                <mxCell id="50" value="" style="shape=stencil(lVfZctswDPwavWJIgudzjv/ITJxaU8fOOE7a/n3BasiKpLVx3nQAFLDYXVIT373vn952k1Hvl/Pp5+7X/HzZT3w/GTMf97vzfJGriR8mvns5nXc/zqeP4/Ny//aUI/PV6+kzr/B7yTMUfE4y6s/yQBO7fw8el/DDfFyFa08xNPGW2G7HsybdxntyejveKnK2iY+k4na8UxRdE58o323Fe02u61eRAg0HwYP7BI8SElnfVZTUdnx0xKmJdwXiq/EpkG47lgbA+kkAbOsx5AFCEh9j37BBH0hlovUDmhLgRKqAlAT25BmQTtUWK0bCW0Aj+URsE3yEvJMENi3vDDEaQywo1jEbiqjr0CstIw26Tr6sVxMSbtpR6rQg3ALikde6HXX0xGjUtm86MFlUku1hdVjPOaGVm9VQPmNJ2WHQ4IamNZNP34HVYgENcxP9oPUHYlTPvJF54gj+O9TWgTzWZycecXEHZnBFnzYQY7l1FuC52OCNJhOESBilbqOK0hYqafBJGQwsSWBv57zC4Ubr/ipj3ByE7xqYxpXdR5EGXxj3N8EJnQDGHVQSEki4skUrCsADxjNAEg8AihsPGUlsCYxuPMWIyD3Q0HBKyiIEPZuC+YpLBkhOkx0aQDapCh4r47YAIdWvH7AFqOIoVZ5SP+h33J/lEAPwHP0C03qoh2UisJ6uX5kIw3o6PGVPcAD/YV4eEnSgQ+XTbWzDZ/Ivw+Xi//H/ZT4clr+H9fv+d0EeLb8a/PAX);lineShape=1;" vertex="1" parent="1">
                    <mxGeometry x="315.6939575572374" y="256.49953905476036" width="5.487184027282878" height="0.31368939223806097" as="geometry"/>
                </mxCell>
                <mxCell id="51" value="" style="shape=stencil(lVjLchpBDPwarqqZ0bx0dpz/cJVxoELAhcnr7yOyGbyj2W3iG8ZqUEstqdkNP7ztnl63m+DeLufT1+3P/fNlt+FPmxD2x932vL/oqw0/bvjh5XTefjmfvh+fp79fn66R11ffTj+un/BrwvlAyV9Rwf2e3mFK9e8bn6f4w/44iw+BAnfxnjiB+EISu3hHPq7HM1NlE+8ciBeq3uQTy3p8TBRcF5+IUXwlb/gG8iChWFr9GkAZ/EtxGRAp9hViRxlTTqkDRO1BhjVNoecc2jtrTXN9SpkpIIBrRWyAwuRkHeA1JekA1VPmdUClaOIrBaC7TNxTFkxZE4q5ByhlNAiekhsAgDJ7S1kBSNqRrTDucEjJzrJ4qkDcOZNkC3BAq0WIe9JVSABpyW3abwBdCKBvUiiMAMBBamvTXBmgcSJDSpUqWEkKKGxJJyRud9tZt7o6ioi1VnHoHOOcYs9ateHBDtAylUFMFYhJG1EGuQb0DZmKt4AIRloS5QHAQH0S24qYcRDEQY9JsgA0o9cEku1DxIAwdDojDlqTnnS9yWsNIH1KKldBfYhUigWg86B9KMMEoS2gna4GoDOKOJQFDh7NQx2+ocLzoPOQii0rI2mITUkbBwdIAWbidFfimc7DchWw7xXghpuVEQctogEwNFfaB1csIKJOfxRQxipFuO9zoWz2UobSSHlIqcCZ1jMqZpHVdsWWD3UgZxon96yAWcazC7B8IYLdAu/yWibR7viMQwXz4AZzkto6X4lfOFhAesPaqzfv8X/2TYXiQP4+2gVQXDsvaz3w/TdkB32DelzzQyapiUX+LVilqhFHR50z5b5pQa0HSIn1RvfzHO50oVqX6x306Ty43AwNouou9l9ws2erbTO6brZjzXVXM2owH50b65OgidF4q2v469arisz6gh3TchvHXeHG1nhn6wndsDVtWn60rimbGcAGzC6V1AS7lrxx2hFOmMabz4/Qh3hv7Z2qA9nsDz66uB+vL96fk7zsD4fpMcv8//a5ir41PZPhxz8=);lineShape=1;" vertex="1" parent="1">
                    <mxGeometry x="324.5512459516181" y="254.88316476714704" width="4.270161960289248" height="5.278946163278228" as="geometry"/>
                </mxCell>
                <mxCell id="52" value="" style="shape=stencil(rVZBbhsxDHzNXglKlCjpnKb/CBCnNurageO0ze9Dd6GtqWTHKNDbWuZI4mg45CR3L9uH580U+eV8On7f/No9nreTfJli3B22m9PubF+T3E9y93Q8bb6djq+Hx/n388Ml8vL14/jzssPvGRcCxXZBRX6bV5hq+rPwdY7f7w5X8TGQRhdfKOf1eImUk4sPmRKvA1IkqQ4QEzVdB+RARR1AlLSuAzRQFQdISimsA4rl4AFZqLZ1QK2kxQMyZKlZ0uwBSkUAYNmvA5QpgBxaJfZX0kyCrtRIg39o4w3QGpiJfRKlEaMkGkUPqEqM7lRGsRpxEWWdKHkxNaWKTgjEXkx2yYSeuoxyNUAFcq3S62sBFGoRAKwgPUvNtihArpWyv5LpMYB3KKXLfwEEElQQBhhMIFEAOdiVBjFpgSdUHlmyqlVgG3WpyKWCSqdh7eGSP8FqVAGtJo3gk7YaZXCCiW+0jdqtak3e4gEqlG4UkL+SNsjSZzVqZomPyJ5XY7qgrM1oBn1zN7dVKxv0bSuoqK3mhxMqLrkP6rvi4T8hNFEcjCNBy8+p+/VCrDVGkEUygE+7CLQma4Oj5ZuEQQ7ROoLPIZlxIMvXUU3SYA6Ziu9aNh4ImDaE2rA/dzl+ngGJr4doagS+tPBxNWsUsD9301riA7SAD9UWCuzS3Ole4uVGfPV8tk7ASrptGEuoQfbTMFhBNWSK/jIB9mbr5d7sGDYps7o6hKN6/Ne59na8ffwdop92+/08g1//Pw7dtjQP7HL/Dg==);lineShape=1;" vertex="1" parent="1">
                    <mxGeometry x="376.8413957028635" y="271.83595560187473" width="10.218703667736373" height="5.2293038361654" as="geometry"/>
                </mxCell>
                <mxCell id="53" value="" style="shape=stencil(lVbbchsxCP2afWUkoQs8p+l/ZCZO7alrZxynl78v260cI3vPtG/ymiPBgQNM/PC2fXrdTCm8nU/Hr5sfu+fzduJPU0q7w3Zz2p3tNPHjxA8vx9Pmy+n4fnhefr8+zZbz6dvx+3zDzwWnlSTNqBR+LV+iUCh/vnxeAPvd4QrQCml2AK6UAaBmiv6F3EjTOqAwZXaAIlTbOiAboDlAFRLgEmdSdYBmLoEXjJPoX9ACY4iFmmdJhRJ6IVHzLKnCoJVyHu1VQBoo8WgfK+Do5v5GHEEAxNXbZ6qAoUApePvLDSv2QZy9NBJF/gTPp2QqoCYSqedHIjUQb6EylJDlC/gv1Pz9zYoa8Zko3AJAgq3kIo8eCfAoth7gJWR7E7mkVOLI6V/W7nMaiAdShThAQPCsWlU0LEzxLlnZIRnESnXQQaOCANwduBIOI+kHKl45MVhYIOrWO8PVCwUkLnchXvWWkJEUdJDmpXhXpDa0U02UoX3wUhaFIyRQHexLT8qKNIdWYXWKUpYo6o098N8ISj5jNcG65jA2x5JhxDmQeEpz7v34fndJ49Bk7g1kdcr6oI2GBopOuI+XCwDOmzlHvuoijGBuz94+QNlo6OPowx6JxmqyjPcnUBTWF4YGHCkC0dhiVAdCu67v28uo4kwZ+W9dxN9fuyzW7NUPQO0TbqUN3cgyRiooA9r3uAuA+663FjL7kK27RrSz/O+y+Q8AO3zsti+7/X5Zja//H3dh+7Ts0fz4Gw==);lineShape=1;" vertex="1" parent="1">
                    <mxGeometry x="377.4203131447371" y="270.68885583664155" width="8.30128985135616" height="7.865338191000592" as="geometry"/>
                </mxCell>
                <mxCell id="54" value="" style="shape=stencil(lVjbUhsxDP2avGosy9dnSv+DGULJlBImQC9/X7kZb9dychbewrJnbd2OjrSTm9fHu5f9zrvXt9Px+/7X4f7tcSdfdt4fnh/3p8Ob/trJ7U5uHo6n/bfT8f35/vz3y117s/36cfzZvvD7jIuOam4o7/6cn9REtfx78vUMeDo8rwFMXAdAyRQCBLg0AhylhAF+AGQhQSc4KmEApEjsICCMV4qJfL4OCJVyHAAhUwFeCoUyjwDX3XAZkEnKABBPGV0pUhqN9okSA4BQHt3qmaIAAFOSAcCZvL8OkEx5TA3GJ0ig7MZIU4zw/TjazAHarD6Mo1e5kgNxE0dsnBTIg1RqNx4D7StFEDf9Xhm9qlZVYINGqY5Gt1QCJ6iJfvRqUD+D3ONEYfRSwF7SsNbRBq0fAYEr/fylQDW3KjhAC370aiww9dTmPDopaoEirxaSZAGIZKR0llvZnBEFaBgmgAPVEGunxQUQyQMvpdpJawEEeKWsTC0WEMCVSuh5sAIw8FLRK41EGYUKsEG7TXQWkMEJNVPyFoDqp5YJoEYjQKXgbBwYuFUBxcQhEYNyYKcVbI5QasV3MhXUCgIcoQA2kdMngDXUTeItoADW0ED48YTkyCPA4pQVQEBR12iVgwIcyo1g2VttQNqkylTUhSJKV+nUuwpcRLkxAzTjkdEy1WjsLeaq0YYrtSmi1IjdiSuAQwANnLmSwIbSUmNmAWS0Jp+zV9qoB56or4I+XScFp25FDeJSjSYquOSKKbmMmal2HlplH1KVjcpM5CqU0o0sjTJWgYNrNIoFoLb4aYB2CJkASHuXYOVMswG4VbtcmngGCSbto0asNxtAMrUbG+pjSPiqBcyUlTwJ4BmpnUoXgHTdeFnPVKuYdAZCkszrEGaulLobrmkyo+5T7nL8chyoTu8j1vBdN68uhDTfVJ/qUySXnFW5TfGhCWuiGIYTWbEqoMlupAJ4kt2OMogxT+1NEmRJFfaG9IRh2vEk3/zC/deGkzTa0PIKUJgXOzpwhGnnY+f11VDJwIY2f42cp5UDilli33f095fEujYWx2q+jyRxCJblMxS4ofTdxWrIRR6Kzu5LNIwJDRps+U6djCpNu7ef8gg1qqawDWAR1ZcB0QJChiK9LWzGKOgnKtoqJRvmpIoBGZ07f350DZUtBW8turLV6FurtGwnk61l3XQlVQQwl3IfURdAwYFLthpU1aDyaUMwW0BANkQrGJrQQoELtpGstNy1/C7uswijobcu5e2+Ycts7qP8Rx3LPTtXoUNkPy9mt5Lj07vibYD++L+afjg8PZ032+v/21W2PjqvweX2Lw==);lineShape=1;" vertex="1" parent="1">
                    <mxGeometry x="319.78572488407696" y="239.92345216385982" width="9.912090194791745" height="10.490497175793454" as="geometry"/>
                </mxCell>
                <mxCell id="57" value="" style="shape=stencil(lVfLbttADPwaXYldcp/nNP2PAHFqo24cOO7r70tVkCpS1hS5ydLQIjnDoXaQh/fj09th4PB+u16+Hn6enm/HQT4NzKfX4+F6uunVII+DPLxcrocv18v31+fp99vTiByvvl1+jP/wa4rrjTiNURx+T3caZf574/OEP59eV/jWqLPBx0wt7AfUTl1MACcKGQQIZZuRBCppP6Bk/wZpJH0/IFeSZgJSpQhSSo2afUMuFCoI0Iy7CSiJatwPECEpJqAyNVA0F+JseQuUQEqxz7wuAZUqYFpbEg2+dwogI5UBe3xFPZo5WoQUAgWgJKZeNy8APY1Ug8W3WSh38WFux4LXBoGCA0Wr066cFIQPrqGJCsSLZbgLBSDrSNHlHyHB7Ce/h7lj9zVKuXt8BP3Ms1xW+NDAHFNij8+g/5VK9PWiCWiU7Ih1hgJVtTj9qGRBf9QknD7z7JU7eOdCqrcE+qlPXf8b5EvVuJmXDPqfNvmrdQO8zNmu8A3omWf1rvAM+I2beWkUAV+B2PWzUAX5L26z4otBP1Xt7v+FCsR7Q2S4ZaJfMqpn5IcfxgtVOwC6MhpoqFZQrCJ0N0OGqy+5FMogQDKJ9YisU4o0qqKzpph0CaBdH72qx90MWChqu7YGidCGSqNg26qTARerDpqtIeoHCTKi5J19sY67eNWlWGUHSJv6WuwOL2Cx6py4SdBRAgWPe9Hng4SqPrjJhwFloy9Eh6+oXnVqm78yjPLpsyYXhudVtYdvVhGCP83CxooSdJbRmC0+UwWbYzR+q7gCv9nHDyVLgH4JYQI+dIj4P14v/p1YXk7n83TgWT/3Jxy9NZ2O5PEP);lineShape=1;" vertex="1" parent="1">
                    <mxGeometry x="375.16139175879397" y="255.11152997502145" width="7.580866565634833" height="6.807318889570091" as="geometry"/>
                </mxCell>
                <mxCell id="58" value="" style="shape=stencil(nVfLctswDPwaXTEgwec5Tf8jM3FqT1074zh9/H2hahiJ0GjV9ibTWBIEFgtwkIe349PrYfD8dr9dvx5+nJ7vx0E+Dd6fLsfD7XTXr0EeB3l4ud4OX27X98vz9Pv1abQcv75dv487/JxwuZDPI8rzr2mlFsr+z8rnCXA+XXpA8j3AU80AkCm5DlAUgE5IJD0gR+IKAGJPSJEybwNSJc8dIEbyAQCEQu0AIZDINiAmSqUDiDoJ7hAKSe+SDxRAlOQjTQ3gEpW0DfCVsvQABy/tKsWeGpoYkGhHsb+Boxq3zZm8cYcicJ+JizF3yHni1JkzZWAudncmAdmKjcCzOXJG6WZ3Zwd891Ts9gyooIl30boDIu9KS8xsH4A/+ndlG0zENEfFMsEB4oyZz8Y+FujPijpIgVym2uuDJw+y60IrpNk+AjnROgps7ZFeUanWHLAnNOGYzQVF35LBt1LYqKtoY4l0SploU+tBqtgqM2ONsiLIMPBhzUsPeFzIrcoKSYhGIlh7RIOPLrWwRzRTf6z7gstQrKYl4P9ob8sc2ctqFIhNh7ZaliGmYwiISvw+oKpcEQBSbjqwaIoO0E1HB1613YgoIU1ZF43dgaSVQqU/QUcHB+5QxbZFHU4ScKkmCn0axvEHdZfSms9iwCogSrVS6omxM8I5XpX9zpQ4HtGHSVcYDEzjfskCBJ2QV4NrhV2jRjtWKiAjgAalWkBFd9A2avjNWDJKtp1+FxHtLLHj1DhsrwKLrl3cKtc4sLm2EvvL1OkTIv4TOf7nkbIH0I/5TfRyOp+nJ9Xyf/uG0qXp/SWPvwE=);lineShape=1;" vertex="1" parent="1">
                    <mxGeometry x="333.7341414063863" y="209.9961550145779" width="2.480674088992947" height="20.940235894798032" as="geometry"/>
                </mxCell>
                <mxCell id="59" value="" style="shape=stencil(lVjLctswDPwaXTF8iSDPafofmYlTe+rGGcd9/X2hqnQEUF7VN1nGigC4WIAc4sP7/ultNwT3fjmfvu5+Hp4v+yF+GkI4vO5358NFnob4OMSHl9N59+V8+v76PP9+e5osp6dvpx/TF37NuFoopAkV3O/5jafi/r74PNsfD69Le6YalT1TKMC+0pj19z0lsIB3jpzTiNx8XF+iEGuXJIbKMIZoAJKFDACZYlCAmIhRlhLFogDJk48AENrfVwCTD7cBRfLqFWAMlD0AyD7pGEZJwwgAY3OgAbKnCLJUIjkDSJRB0FzI6yyxa3lbB4zNgSvgujM3ATpLXCkCLgkga/KV0BK9DsjkdAyStwzSymw3rnpIb8lS0hVar1t5yyVDPqkQj2Jw3QqFKqC3EMFwaSpz4FKqrVwWALRCZHJVi8CHLqwignCt2iUKiNpHKl0QiBtjq69FltBOO6rGnqFDjoKWAJGdCuxjK66FvQP+e0c8aoCUB0qpo6LLTXSNQcQxUCkWkIBkpJFG7gBAukWzTH1uuJS5Yx4OmlNHC0krKmjpHd4CKqpPbrWyJAYChM4lzLxJd7tyg9SOxF0tIK5KOzMtdLM+pUt7uwSSAC8q1wWBREYmk2qzhBYIbVv/Uya7uWTS4Xvtgf+uDS3LxgDaZ7D1P3UeYB8p6fxIa4PFSdl05wr9z5ZDvKlHUW+AEL0CWvvURtPrgIEpJC4ZyZbKCEBeRMBMDNLq/jWidYAUYjdVeZTU2OpqMbchxZM5MGkRljcOrSAu6W6ecAzSnL12aWO6lRW83oeN+TllK8IbE7r0hWTkBZ8BBFDuOmZIEkftEj7HTOO4GUjgOSl15yRRTNTYnN0EkQOQUlHsbO0z8GfsupRro/F6Mcv3s7H3aCSslnW4HcigzfUO++KJ+Q5/+uMOjle0tlh7lM9pirD2aL9qxzfMh7vP5Zv28vBxCfByOB7nO4Tl//bSQF7NFw7x8Q8=);lineShape=1;" vertex="1" parent="1">
                    <mxGeometry x="307.499283658683" y="212.47584669449853" width="1.1372636071927922" height="15.998351593534565" as="geometry"/>
                </mxCell>
                <mxCell id="61" value="" style="shape=stencil(nZzbshy3DUW/Rq+s5p18dpz/cJXlSBXFcsnK7e8D5hR7ujfmrInzdjTqPc0LsLEBgvMh//D7p59++/ghHb9///b1rx//+fnn758+5D99SOnzr58+fvv83f76kH/8kH/45eu3j3/59vXvv/789u/fflpPrr/+9vUf6xv+9YabPeS2UOn499snvYfR//vJn98AXz7/egWUMAXQQhkASGGmO6CEQYAjlHkHpNCP9wGjhy5vOMJBgLK/bwNaC6MCIIZa7oAcEqxSH7qsde5ZPQfUkO9DqjU0ekMKtd4BKUQC2JrcAWWGo7wPaD20fAe0kGCVWg1JAHnvzHNACuO+cSWGDKvUjpDvc8gzJNjpasZ8H1Lu4YgAsDnch5RLaDAkW/V237iceEinbW5AmqHBkEpX40stTHCgUrchnICyzfE5IOkqpRg6veEINd4AcYYMc8gjxLtPR5sDWGuuYdwnHY016A05lLtpxLS/4jkghuO+0zGiP6Sh+2BzhinYLh3ClDiDlEO7z6CFDJtge6SUEQ4Yj22RjCeHmeF526Epz5PrRHv9uFvRHuDz57M6sxkdjT+qlcZQgF2iGekhzyd43nZT7CFEWJ6xDf7yOJBjd+bJXKohzeYKg2nK7RGJt4YijBIiWH7ZwfHxeCN22KHxYTcZppo1GJfNFe88HiXu4a46em577u88Hu+7aj5LNqxjt3AE335Gt3ObjtDJBUO8e6xxWgIiP3ZcOJ/PYcBa2vNiwzVUGI9/vqPRe4odaJdRBYS9keYb92gvcYu3S7TrMk2iWPf9dXPoO7aZhAHNj2H9i+7vijGwnlWjaD7QtSyAiPp5oRFDlQhRWEirfrOwTbrBzF1ChMmxwpwvK2qCD4NQ2jHhZJMDtY95iEgZ06CVhlRCvQ/J5FMjp69OR2d+Q9vK/wQUjnQuASpMiuaGIypg0irNMCV5sEECwFOXyVh0tbQD3AkYKGdW3KgK6ETtVbndEqBCgqypgDDtHgnQlV/qyZjPAVNVQY3bpZ4TzOHecKbXzwHJveFFeD0jxjURhY0zl08C6JjE5aY613JjEorGERLWWkSfXknh3R/a6eXv5TNFVELFQFV8QaBjpF0ccZ/0Ix9/Dsjqopbxk08bR8w7a/SCwcE8ON7n0Btu3PLg+yqtMge4qDlkuW/c4HhuDtnu5j1SOCj7PjRNHBnLV+Yukn0PkzywrDUrawzOvpd/yaQHmnd1ZZMxN/E8B9g2SSJ67Jj0XhVESGByjKtj//cJOHnkOWCGfl+lmdFam21cUwARWXMbN8uW9s8BeadvJ6BiYaaVbZsXAAUU4wjJGGcLCWimOT02Gxb5jFT0DX0rqOeAoXrJAJTvtLnT0Augg4sabSUxvoGKrEe3rGMb/HuVTaEZA1Cc7nmz0AVAMtqIsbo3NALUXQO8Aqic2zRkLcCLgnF0AJr03MWS66QBMKKzpYF0b9Q73KSpZjGKo5kRIqUPVVXl7ChDR9c4bQAq8hn1dm/eYHzGpEdRQANemk7oLo+DZZ1Jq7Pz9PLngLx18AVAMnQxqdhSQ1VpTNodLxXYByNGdaC6i4XPAU1j3KzIS2vE4kBc/12r3hRA0mGZmvhD3kr2OWA49k4osB6kcgm7mSY9VM2YOZJ0MIDs9OAC1HqDCKyBQXEOTS3NByPZktd8bVeB3gOIAxmPkMBaHjwVcJBPd40PI2PZyoxvOhmKO93Up41t0UVP0XlVxmR8RYsIFgAaTbpojdcAeE5bNI/rL2ypbMu5pAOTAbJKnWPcekNSwItVyg5ABay1Sndr7R0rWGsfugJIOsyiRNZfBJS6aes6JJpD1Xp751x0Ua/bOPSHuot0F8CL+OABVAhdAMl25ysH8tZK9aXpqj8GoBxoNTo4AEm46boK+sQa2XQydA2JHSg7n85MAsmxBlUdpkteO1fsZ9GSdGdVuYbk3oBxumhFt7PmWy4aFUAVrIey+AMu6oaEO/1/AKZfVjI+V1Tr3Bmx9JKLQHTEOM++oEuMo2x3Ds3jXhRzphPrFqcRMF2ppfAR79SynaUgVNcwgJw5Dz7RMcB01R/SS/Fw/SCm4ZBcp5PGB0vjqWegKwfhZRKnNmmMPDM0Kk4+sZjD5TSV7fs8PbikKC80XEsKwFWqygKP3rh3A4TLLV+kWYerhNC5u6265paDh5RcmjU4GY2q4VYVgQCH27iBTDaGqvXl5rDTK8d3c6B+wZVfyBz4jHDVKaYCIs0h7UaZC4BS9hG1/W+y+DayVuObeKi4wkFRAAlXCzh+lUglPql5TczLetEM/MJt7xXukn8FlwbVXCfScY96xvEgw/fKm9G9gVyuua6qZX1covUehF2S3Q2JDxRaU6n7okrWnDZe1EftRkX7jV6QazMPOhRAyWWLuwp9CRCUK7ZDVd9DwD8FrIbcooBIpyi+tp4xZtXuTiASRvbqVJ/xMx67uM6sVTCCjavZ1U44z1rtrQLg84Ea9ejI+DnRsh7aFDX4YKfMLTsvupLibjkPKC5SFxtom/a19Il9P6U69d2xeaH4ukPFmFWyq2wkjIolaZ+cURsdWZSole82MBvNUxPkxg2r+ezPOAEFc5TctUrWOIPIzR38H7gPubhuB66H5qwZRG28SkkjUK08h2Mnqycg4+WE5LodzGlJCqSueZY57YRJp+ZaPLi8mYrW1s3LKR9IWW8zmJd3mnRSEli3GWBZV+/ifUiFTxXjVOYrfR9yPwcMtdbSUf7ErkWv0vBkNLqDfyMeKrZEVyUrBfOB6ApGhTtnojtlL4l71ZKWQox4qCEpuk4BIx5Ms5SLjXfors7Q0wFjESoMdq3PGomQBnU3GYwSJvXlaC6d2dmy9iMuQiBP2InF+XzHdpOowdBmRPXoqIHnxT0Dx3eJG53cHSD7pGJTtFho5HzyULWwmpzx+yWxiny06TJo8yHKoF3DRYwv1lOkReSmq0P3d+DBUtSGkY63ZqK2KXCHedLEueDaZ92rxLeKnKnhwWHRmlPkRi7N07i5v6p2Z+nu6lkHxjtX3n1xJVLlJT8+dZsO1Mfx0MbyA1XWsnAdDsbqrDZ/YJISXctdxOtrDwb43wzHtEPS56mvZV1kkKDI+iprCbhi7X5dBNBbMIPGM/Y1igcn0PdndxXNdpwqzNk1b68tJxnd3FUYjirZ3daLDde0HLqmkQ85TRlJMWppTLpGVVXkrtgNq2T6Uaomtm90J23l0hLbB8ro1T0u4iRiZdOSF1nW1TBOpDg0/8m8D6uQI/pnoHM2VyVf11NhDq3uEvdFs1LT8CrZiXtWFLmWaksnXHnZ86h9/RFrS71qw+2qBVHfpjtcqy8K91GL3i0hCYyqlVBbaCqzDFcJbRP7BaeTKp2vjK6OLjn/zpjpPlqEL3UZPMjq7rC5cQNJ17Sy828PPPpxLwBss+lPjrPx0L9rhmIAqoQugCt3YQvjszfgGeezOeC5lF+lF10z3XVr8FXPRx/oFcBzkNuDvbPxuTb914A/+OMdrwH2x+O3Qn75/OXL20+NXP9ff1vEPnr7XZL8438A);lineShape=1;" vertex="1" parent="1">
                    <mxGeometry x="306.69476012071425" y="211.73796364477823" width="82.9828107944191" height="52.630556706859316" as="geometry"/>
                </mxCell>
                <mxCell id="62" value="" style="shape=stencil(lVjbUlsxDPyavGpsS7490/Y/mCGUTCkwQG9/3z1NT3osJ0t5C0Qb29Jqddnp1cvd9dN+l8LL6/Pjl/2Pw83r3U4/7FI6PNztnw+v+LTTjzu9un183n9+fvz2cHP8++l6sVw+fX38vvzCzyOudcm2oFL4dfxPEu1//vHpaH9/eNjaR2nR2ed62b4G6WWwN1G9bF9MWh7siwRin5vk0b6JBWKfpKbBPkbJ5TLAqtTxgJilkRuZ+RulII1cyVTyeCW8ORGf4oQUBoBG6ZkA4MMxyFpp1Axe7WPUVAJzaxQbT4DfuhGAShm9hMgkFmjzcchZCgOotJF54IqxK4X1iSfqBSkkF+CTqiMAyRMvAzSLjVcqKjFdBoAI/gQAyJVi85HGlSoJXAxiI/lKlNrIo0WzdxITjLAGaRMFRr0pCLms+XTeRVJGPQJRMhOwlZYne3iU0ChWseaJ2sgDEDPnIdwoEI+qrhHaPLmSE3R6wxIDwmw7keYEMOpUCIZT+dK5JHUpI42qUQAEw4lexQkkFRCm4IQefmPpbKtMnwCVC0b1wt2DZJI7yBRHjZ7WanoeAF0f87/rWh7PV88maYx0zzQ7W/Gi18vq6LMAfJ1GavQqiZyAr1vyAGOALmECsHoIwF/2nwBwA5HVGCbRAKIQfuOI4o7ALYlq4PccmQCgr65rV7EBsMghsL17AONGhxKPj9744TwCWmn+iMZeHVe/bwCFEBwJE7MHJKbGfXJTo+q6AJIHGCN4OEO/zh89Awo7IYlFD1AeOVekl5wjyrQk/Qxg/K5rPdgmKaNGmxICj+ZZnZuPQ2CP7hO/G1XXhZvmAazLBSBOSU3j0KZId9osLVo6JVBn1DAvx2/mKEp1m45gKfdeAMqmTcrEOqCqolPKRcKNkicBr3x66JN+Z6quy/QwFVJjrfpcUwJVAYwvaQSge2BaadlrJRzN4oCmzOUoOiBjk+gkTOixmBpjyHNeQhfXCF11uhJCyRpLdNOOGuiJaLeuXvowDlRyJQw0dZQNtGmBAaYFReZqjHHeeQl0pENZnWYstN+swa9rSfvffj2vVNt4iaUo2KpuSMl0hECDn6ephmWcmY+0NVqzwFbHJRA+MbY2353Ab6zB1+KXFJrorgjjt9s5YFZj0zROsLHrw3jKUlS7jwPYldjux7x6YyBnCbQsKfx+jPVLIL8rimg+iD0GwzpeKK0Hni8OyVM10M67TS1loDFDvxeqt2f1Ex1o8fasQke/S8MPkFkDzV5UZ59Yj3HGP0b8v9Sx7Owru4/6wsbrGuzd+Bb5uKd+v8LXpUs74joeWnJ68jM05xviVfz+ObHfD7M9k95378PftMeHf8v328P9/XF3v/3eL+vxr+OiXz/+Bg==);lineShape=1;" vertex="1" parent="1">
                    <mxGeometry x="417.58480640865184" y="244.539538640756" width="7.193557759868781" height="27.24619711888472" as="geometry"/>
                </mxCell>
                <mxCell id="74" value="" style="shape=stencil(lVnbchNJDP0av6qkvqqfWfgPqggbFyGhQmCXv0ezrnamJc8J+5bYOh5djy5zyu++33/8dndK/P3l+enL3T/nTy/3p/zXKaXz4/3d8/nF/jrl96f87vPT893fz08/Hj9d/v/2cZPc/vr69HP7hX8vuEQiGyjxr8sHTJz/++DDRfzh/LgTV8rdi/OxuHQq1cmncSyfyvz6VV6BfBYabZFPlIH6eZCu8oUU6F865bTIK9V+LF8z1VVeMhUBAA2AQakeA5pQz6vFdfrgNiBTWyOcE40EAIXG+gTzWi8A0KisgGIqAa82pbIaXYVYjwFdKPEKKDAvevF5UftU8jbAvO5UUmi0mlvXzK6DBAGUpAUA8NJIlDSohAAWh2C0AqMNkINKHbjVVNKyACwdM0jvwV6lZskH0ls7jTVbW6UEnqB1/t4VYD8BSlQL1fUJW3YhlfIs+SvAkg8UkAF4JbGu0w23Acmzkn2CaNW+diWqb3gpk6y5ZI5WUHEGKKsNFkpBNuSZalfAGzYUXw/D3IoCl6ivJTo6dGu39F6NHoMaUKkztTXSwri/tcAC9oiB+L5Sy0EnALAOxOIBAtyUA88Mnc+83XP7ZJWdX1FHke753gACCkLYtyBjnoZ4ZlbwTr5CeddPNipETDlnnJ28wKlH3e9XzACeJk2+QP25eXkB1Wn2usQusKVbALh4AOpuW8SGBzRAkmJ9oAYAMMEAPsZW/qAQJFHp3kloVDWAsgegZmWAEcLWkJfsCdUDUO8xQHWBbpRQqSXfSrZKQAO3BN5uOHAceLvBKcMAEooTeWnM0t0XJ0xuKcFHuDhDXgwsL14edQUNiVrnYHagv1sZtjyFZOTJosAhzALgC6HMvnWUE5IDAGXd/wboLQIDNptTUwgCGlWzhr557e6Hm5t6AKK8Wm8UAhpVrffHxEaJ10ZoI6YSWnusK1UPSGiA0ZB7lkuA8rr62damNtTKN4CLtG30wK0bYLVhG/HRJhYBFdZ/Dyu0Cpxfog39etY4Arid2zaAigI3/OpmoyWqaWWfrbbFMAIkymvyWTp2NJ9Xv+Da6sZo7VG/J9n6iVaGreTdRozTezdc7xZW1A63AnPrJONBMk8bd1aj6VkDkxmgIDelmQk7ADpxWVG7KcNsKKiCZB5TdoGoiJj6JLoroFJFxHRtOLt7DLqW2BLfV7eWBmlj80m4KaGJtQ5/B8gZ7p/mE16ZLLVZIkd875YAsWeCdK3sb5NS5t5xuwUVT0x4N8zd00yDqZfZ/36BR4AUjpPXgfdoz0tePiOK8bfhBEstXJ4TvJ/JHNJ24miYn/n4Ks4gVux3YIG3CPaHM4HLDntlBB4uAi0KjGsQZ9j+gjIMR4RgKsPpPTgSH/xDmHg2kT9LAp50/Wcphl9uvCluf7y+R/l8fni4vIbZf+/fu9hHl3c2+f1v);lineShape=1;" vertex="1" parent="1">
                    <mxGeometry x="491.9217665801963" y="242.5671896582079" width="13.60228120249094" height="27.475244427092093" as="geometry"/>
                </mxCell>
                <mxCell id="75" value="" style="shape=stencil(lVjZUtxADPyafVXNPaNnkvwHVUDYCgEKyPX3aWdrzErGTXjzetUzutXyIV88314+Xh9SeH55evh2/et49XJ7yJ8OKR3vb6+fji94OuTPh3xx8/B0/fXp4cf91en34+UiuTx9f/i5nPD7hNMhVRdUCn9Ob7pKDf/efDkB7o73Z4AxJGUL6BLaPgDnabKAImUQQJh/r4AoMe4DqsqwgNYlERvKxuiWZJR9QMZ53QDqkND3AalJtV6qSZSoFLtXCUomolKEl6xbS5HAvCQlWvkgLRMTpgunfB5SdF8+SHDyWQY5P0qvRj4VaZXpr9ajOGEQebjPJgU0TER/ONSFLCLGDFAkFwtI883bgDXJzlTK5AaV3Ky8zuJ7Ux5JZ8/POIHIV+8i5FwklVml2xytXSIrfWmut0RJidmbbEqgdzQiH6M0a/DgBiACwQI00KIBwHU7TdTkBWDLTNHtWOFHURsERRiZSlGqzQr08EQKAYmtNgyqUpgNYWbNmthhre6dwLXmbxjEBt2EYcwhsVPLLrG1z+63V/suCOh+pF2j0F0MsiTiIWSZHQcap0U78sXKD3iAFCa8YQthwF5yvvqUGE0KTwmX1gBEDhjqAZVVWvRDHCY0DnD9faztb6/SovogsKRYStN6FVFu/AafFpXSBNjQ7UxGnnY2A+PGBpXIAGFT/Ep5xYYaLfLEZp2k40yeTc3hWzwsVhLmj8rXyTnO0ojZmyXbSgM7bSRkaVq3MkF4jLXryURXeXRXcn7wnavGOUR35LvVv7zDTD3rWnor6bxFqmNdeabgDqVwFARENZHzx2Z0wF5W9mETMDppQLpcQvDJBA7X7PnQh9W8ToayyldpbBw3nxHwMZ2ueUNk+2wbuwPf3pADpRRjVsgqn+j0a3O2nDH3Rs5Pk9ef6cOmGZpm9/oo0WcZNu4CpCFfntRmaQl0xYTJTqVSJbK2gvXMLYCBUlkwaXdDLZTioI9EW5lYa9kSizW5Wy+1TEthbG5ojd4AMl1sIrUx3fD28Bi+e70q+TZA/YQFgHkJAN8uImUJum4QKwBTnd8wNoDBb1BbPv2dxTdsVuVe5pjevcK5ad2Gd41wgEbHFACOuWBusu16WSHcbrd+VNkDOE6O5S4yldDGNgBKgj/6Kes/AHh4/XJ2c7y7O314O//ff2nDq9NXuvz5Lw==);lineShape=1;" vertex="1" parent="1">
                    <mxGeometry x="265.8030203208088" y="246.6308203779139" width="21.40059861726395" height="6.435451228192323" as="geometry"/>
                </mxCell>
                <mxCell id="76" value="" style="shape=stencil(lVrZctw2EPyafZ0a3MCzj/9wleVoK4rkkmUn+fsMsgUu0Vj2Wm97TJODOXoO8hQ+/Hj88v3h5PXH2+vLnw9/n7++PZ7Cx5P35+fHh9fzm306hU+n8OHby+vDH68vP5+/Xr5//9Il+6e/Xn71K/xzwXlxroO8/nv5IYmP///w+SL+dH6exH2axKuUdiwe8OrOS/VMvoVZPovqsXyUVmb5Nn65KZ/F+0nerhCJPkWyzvJNXD6Wt39n+RCoPk4ltRlgBiUKOSetToAYqMPc4oJYJDJAFJ1tlJy4SgFlVimZUUlQuCRh9loqEtgdktTZSlmHkrcBeVxvA3hJiQJqngEWWsxKpvEcqbmM1DgCFDhDkxQIoEqY/VAczTUDtNnTxVzJAKZAnAFmNxLdXkcgbIBKzWoACI1qAU/ywTsJcwJVL5EDynyGGsUzgBEeAJI0YiW/KbABNlY4ApTZD7WJMrN6dFxTiewOQXQ+Q3OSST50Hp5pu3lKM34jlQ0QJDNPG8/NjmtGC8wPRuxw6MStVJHrDeBZ7QlIAgZIhGaCsbdHQCWAmEYx2wBWYEhOJ/NDQEAmNGM8V8GsZZSY24CK0WqA7I4BJUmE0KhDyZuA6iQGBGQG2EhlAzRa1C36XUEAq0AWm7regURrDzWHZ0jED+am0N5jVvs7gkp5JO0RAEkg0DptAChZRjMspw0AZdeosjE/5JEuG9032muYWaFdKp6SgHFEnoMvJ0pkZhNof6x1KEylgHeIVvXYoYPUObyj436I4+99z8dCY6Otraksoiy8MzbdVlcrYb7OEbNK1kElHq1Qp63PVAaoI4M3T9Oa2KN71igNrj2Sz2BUWhFNXmebOlrUzQdl9rJKZoGaBsVd5RPTP6H+OpLvUJ8C8qyQtK1nuco75q+MMWcNNLt+XvWnlJ1XfWj8GBc5lGcpUEbbuDsvl1/8G7g+UGd18Pfh9dE+d8oBUKl1xqxALeOFZTyXV7RnY/Fp/s0of6f+eZTn8bboU3k8l8U+nEOB1vlc0baysvMvz9+C+nsWbwmrt46O+8g+bskXFm950M1v5pfNs5gvNH9teF3ykcdbXPiHNysZ5dmU9m75hksLx/OljXp4rS+B6d+QH+7Ur4b2L7yvaRjPvQCzgGhYgHuJZxaqONz0FOYuhi7czsAGg5UjeiPE20VIst5q8bYdFhbWzLFN03V+27eLPG8S7IHumLWMJc6+5eWdEwLa4IIjTwdYucbR+R/G3pw7fTAgKjlVDCbrgmm/2MbaZzfdBMYvdaTvfspkds24tux2YKcOg6B3AFYCa1t2x8pJ0gZZDXgLts2u7sZcygK8pGUDUaWRU+e6jMqV7suyYiHprTkJv+RxzOwhT1SKCVu1XlyIWUNFruzdJIk+oxVdAIXty+py6Ezbd2N3XLBt5Ha0wkvLNoutjtbNaJ8j2b5MsSLe28jZHcBxfjTFRwDcZjm6nLr2dPu9JQeUZWXBxpZrV73fvXIrAQv0pGUPYBpWCGNXxjOu4b6sepoPfS0/W6nyWbMv/qFCVOpptzRLJVOaMYDOZyiRP+LJuM0qbiTtbUDCQ+dGFwQGgL1lLjTjXMSJMyfaEhsASCB7OrP1B2FwBj6kuoAkYN0G9cOy+E+RdhsGgD1+crQvti4S9vix8KdOihUohtF/3K5xOGh3Oic3KPgENkRq1KVH9I2eOOJiwUdK9QFT4c4ktjx/7U+o2UM2tGd3OkkExUHMzEmCdOnckniivWJIJzqm6vpyANthK+4pI50wFBenkZZMxZVFpIGmmFtxjHBHfsKr04etEperM7bCdVrk9LnsoPnD6GUpTpd7fiTcLgio+DvfELkjbh+uL6N8Oz89Xd5l2f+PL6/YT5cXX8Kn/wA=);lineShape=1;" vertex="1" parent="1">
                    <mxGeometry x="198.83806152504167" y="220.40288694132465" width="26.773700839915183" height="62.15778547680043" as="geometry"/>
                </mxCell>
                <mxCell id="77" value="" style="shape=stencil(lVrZchw3DPyafWURPEDy2XH+w1WWI1UUySXLOf4+YLY4O2zu9ERva7nB4eBsAHOJn348fvn+cAn+x/vb6+8Pfz19fX+8xF8uITy9PD68Pb3br0v8fImfvr2+Pfz29vrz5ev139+/dGT/9cfrn/2Ev69yybXUhYL/5/qH6LT+94dfr/Dnp5cJXssEzy56Co8TvLokFO4nuIgLmeHLfBvJTujti8745lqh+Fk59rqZvi7go7gcKX5WTyyuBobXGZ+SE6qf1GZreRfp+XE+P6sTai+Z9aniItF/dG2+j9r55D5xaGPgi3eJnq95xidqr4j6KdVJoniZ3VlcIvaNQxsb3jRM/M3On/25Fufp/XWOl9qcNIYvs36aUPuavWZ/aMEpOT+NaN3w2wlH/j/fv1k6Iv6Qnc76aUr9WV2e7dsKxVfnZ39rlfqzBJcXgaREQF1oH3lCMAMVFAhEpaE4iSjgWcxYkCkqqbEk510TFKA1ow4n3gkkkrZydj6iQGB2FkzsJuBJIKtdCd5BhxruCpQltZgAe2nLJNmjAHONGpZgUPrSVZdoyzTaerB7FGBPsOiVOX+1rULcF7AEAN5qCYPYocc72GHzriOBOgdQtXggajUBWXJwIjnYbtxmXyrNFaYl4yjzO5Qtz943XBsRvCuDjWjJqoDMls7NJSawpdFNwAoV86UlkSWrXewdjEgA1bHkzALI4mF+B8u2hQmUUZo2AbskE1CMaSlUS0YOwNISR4QcJQEgy22o7QgP9UQHwb2PDy7M5yfqSEWQL8QRf/fxflTvTaWULqg56hw7fhDWI7zPgM8kR3Z8ADzz0n4fATx7X8ND/feULpt+BO/jOb7g+zK6VrYg3OFJsjN/8AnxLAIsQAq+L8cDv/ODnhz5MxQQzwMsrv6g3P8rnl/Y+cFFBTwt4kYT0B9Y3jW8oP5Zu3jrTnZ44j/mnxXxlcdLQv8v3P8Xe+lJ/OL5rN3q56M/Uzq+Va2df/LzF/9kVNb0n5d4YfFllRv1cxK/dTmf++diL9budv9f4pGf/zF8GtOIW/73zJ/vDIeE4Y0CAIvgHNkY8ax/5fFecD7RKKU2zhFhPhR5Am2YoDuFIB5hNAg1ajmYuFwVHIF0GsQErD2bfagTLSagWFSNyrGsbgQaWISRRTalaB7HbkZHWRPbKfVcB4zwVvaEPMy0o9Rs8GCtEqjVTMno6K1P37cFrPFoyJB740GcVbxf2l4/COfRIxq0W2EUrCMBcFfrdlhC6sMGQQHaMuqg3LuWUUlJawlbld7FsivJMq9QamprhnTt9VmMRpya9mkCzwI4c+HzirK+dKExqkvImQBrhnTpDPqQhqg159F378ZAjAumir1BDxHyhCR3nsC6lZiWEUqj5SeUJR4azca9nDUUUPIEUUxMJlCJ80nACeQuzI9GlssTWI0zSruYga0EZAnQTWsHeFmGd56c73GlYQmA9bB+OP4+w5D7LAW0j4yJF/ll4hpo/fRIAW4J5wAfIM23QRIP8B7GSzwbLUXhZCXgcRR6snLwSPn7SoO/76yfsi2NDvBA4U9WMos/KF8pLdxCORnx2CL0lRXRv2CK6Csxch9BfzhZuQlW2JOV3ornK0MZ+9aNP/KVpODC4WTlKegPJytVwSH0ycp2GZbyjfCy/uD75iW78W224P4yjgHKke5hXUsnyYLTp8iXSejJkb5qWAawVO8BRx+RrpEimvUMDrsLfpm0mol/RZDwMkyRaYzr/5+ZEg5huBN8+IOJE7j9uH2b8e3p+fn6acf+//FbDvvT9TuQ+Plf);lineShape=1;" vertex="1" parent="1">
                    <mxGeometry x="237.2810509424042" y="219.02253595770839" width="14.936721159230746" height="63.142432535263914" as="geometry"/>
                </mxCell>
                <mxCell id="78" value="" style="shape=stencil(lVbRbtswDPwavxKSKEric9f9R4GmS7AsKdJsa/9+9AxnFh3f0DdH0Yni3ZHUwA9v+6fX3ZDC2/Vy/r77fXi+7gf+MqR0OO13l8PVvgZ+HPjh5XzZfbucf56ep9+vT+PO8evH+dd4wvuEi5FaGlEpfEwriTj8Xfg67T8eTov9KVKSbn9kqrIN4Eyc+wCNOG4DcqakHYAbZd4GSCYtHSArZd0GFCHtr1QCKYhQlUJPUrVL5m2ANpLQAdR4rgCgJD2typTSNiCGQMGFyFQbDNEcoBAXmITjVSs1oJz9Lb1y4xEoa5nPuwGUKhDCSHFuXfBwH2G88yoE8KvaedkDAlCiNSp5RRPIutVZp4UQyOAG8ObI1EAOBvDK8VxUWzmoUy6SgqSNJemFsJWG3GdtRT0gIUCmHDwgghxGN4sHFGSNRoF90hlXUHK0JqqoDehM4kK4hMynvjONJYIjsKugOtOwlXR0tJp/UcmZN1f1IAiQV71PcRdIM+sLQENK33RdABiVqFWw+KRhPXwWUM2bPUs2Mxq4khittQOUQgUIl4W4d6sInKM2eKWPME5WoEOy+dG7lRnqEFc6RIURoi+4CntG8C+HAgfcaiAKCd7en57hNAy+DJgiTDX1l0lz3d3n3neWG/6+tiT99gBLUvzzxdwKvFm8cfCItY4S/emoi/phFub5uWUy90aIUKfPPmj/v98+/r2eXw7H4/T4Xv7vX9u2NL3U+fEP);lineShape=1;" vertex="1" parent="1">
                    <mxGeometry x="243.98043271174083" y="271.1140496408807" width="5.13427208588892" height="6.508839651631279" as="geometry"/>
                </mxCell>
                <mxCell id="79" value="" style="shape=stencil(lVbLctswDPwaXTEgwOc5Tf8jM3FqTV074zh9/H2pUeiakLmd3GRpYQKLXYCTPrztn153k/Db5Xz6vvs1P1/2k36ZRObjfneeL/Vp0sdJH15O59238+n9+Lz+fn1akMvTj9PP5R9+r3Elk/glSvjPxxvy64uvK/4wH2/wWcmXDi9CEscBSdvnFqBCrowDohD3J3ihIuOAwJT7E4InF8YBWihoFxBDq+pugEQS7gJSIQdSyqQ9vtL8ceR9kohdjy8woUCBLb4kUDEV3eBB/kI+WLwCRh2J2HrVjfFMmnt8pALxbOoNjeEB3pl6lSLInyn1CirS/mFQbzb9YiogH22Kv8Ez6K+n1JsyF0oZeGajN26KGugtbfJPgJ9M2fTXQf1Ug4nl34N8anWmX4EY5FPdYfCRIuAnt+7f6BP5N5FPVv8C8JFYLD4DP3rrL8dXiQ8MWTYHRIB3FIotOEHDRCOIBBtWszUEBcrQYGwa5ttIHeDtgBOKoAGO/EagAhrwWfxSQB+QhALaMXXt9RWHKkKwWL1vhF/XXoJbLATbM61rAdQQq0fM6vYU0epO9m7gfNPVfVs6m1JlFdhyaWpPEsMK6hRJxeDRmF6miDN45LI6RcTm41D+ye4xhoQuWzEbfuBYrLeM3mZCivjfzFGFIr2ZOlfRtc02OqD0BURyiNDS+LjaBt4jKt7MlUweNeCTt9f/4+vDv6vyy3w4rDft2+/2al1frddyffwL);lineShape=1;" vertex="1" parent="1">
                    <mxGeometry x="243.00494063226216" y="271.3272225250771" width="6.270015318963156" height="5.969869702471212" as="geometry"/>
                </mxCell>
                <mxCell id="80" value="" style="shape=stencil(nZdNctswDIVP4y2GBEgCXKfpPTITp/bUtTOO+3f7QlXpipANNt0pij+BAB4eyQ09vO2eXrcbDG+X8+nz9vv++bLb0IcN4v642573F33a0OOGHl5O5+2n8+nr8Xn++/Vp+uX09OX0bfrCj5nLGYJMFIaf85uaoPDvNx9n4LA/9kDtAS5AyQEKhNoBJY2A2EfIOAIwd0AKPpBBsAOwQkAXCLEDYoXoVSkC9YBArvd/n4ptQ+T2hZsAEaQ+ADKkcB/ABIE7gApwdiJUyNQDGZJXJISYLeDlUARqsEB0AGEofd8ogTg5VG2D2Ah/Cn0b0O+tkq5Ooyu3vl4B7QM5QAUyfdA3TlljCBD6MqU4CpEMQJCdedAkSp91yn4ELVOftQq4OurTRqTSAwwyaLWJIBCcHISgVhvBGzkJwGRzyE4OLIB955KWwdGGGqOYpLHV7R5QkjUyb0aZLUDS6nYbqMD9ktQFqqM+QWAj19yG8Dagu4GJkKB6Wgor20jukioBp9WSPPGVVQ7F7UNdG5OW1fOZ2lJcNs6RtwJWfOg7mbQdbSk+b6azzUHlnTwnw5bicoAcrxStkpH3YETfC7BKo/f7VJsX3tuCeAUMNrnIFvD8HlXewQLiLClS0+Yiac/vqRV9Yd7szM9qd1Bxe21j2wTMLaXbGUfrYjEBFicBNSWTAUQngSw24+A2maM9BcQI6ARgtJtPFBCvRNiOwNcaSSvCPaAaGfknUCYI/fwPzrgKmFEYnKIVwD7C4JzO1y79401AI0hvGJPneLsVtWm/AgzRK2u0Lqk26HY62HO6Gm1wnL6wvc0o4G2gJTc/uWop+HIttFLfiIi2dYNF5QoY3pN21jOqvKew052sF/igdXpjMseAgTj+5yI6AvTh7733ZX84zNfm5f/tPVlfzXdsevwF);lineShape=1;" vertex="1" parent="1">
                    <mxGeometry x="210.99692420870525" y="241.44252071699094" width="4.033900063200189" height="7.151700157020711" as="geometry"/>
                </mxCell>
                <mxCell id="81" value="" style="shape=stencil(lVbbUuMwDP2avGpsy/Llmct/MEOhGUrLlAK7f7/KZpJWKlHqNyfWsXV0OXKHd5/bp49NF9zn6Xh42/z0z6dth/ddCP1+uzn2J151+NDh3cvhuHk9Hr72z+P3x9NgOazeD9/DCX9GXC1AfkAF93f8k6C4/z8eR/tdv7+0R8hB2IcMlAxAhIwCEB146waCKgHkoVYDkMFXSQEBLZey5pAJyLjBOwfOCUQNUMm8AosEEAS/DCh1CvsMyBDCMiAXcEkCCmSDxBCULAEVssEhsgMyrhdx+BWBHmLVV5DB2mdIqEkgGqzBK9LJzhx4xTlCzMv2TlPmPHvj/AhJVhLn0apVz+0j01yK2Q1h5jcD0lS9v3vEzaJcItMlmh24EZARIra4xNvoW0hzr6juWQnrUMnyhpW8cZkVVXh2YfB5JbZUXgmTBt1Y2omVWCmA3TwUIDX2Z4Lk9RWWBHD/1Kv+tETGO63FKzIWrjxinTQotApxq32AICtvZTRwWajxac+eCE4K0spw42hI+5XpmbT/K+P5SrHt8c/Bk+GkSZAX5NqRMMcp3UvqqCqa02Ecz9tRnu9NdzDoIesALXWPetzY/UUEhRrsU55q/WwfDfs85/I2vtfCa8fz3BsX+TKad3h5tZRD82Nz1Z4X55ftS7/bjQ/jy339EuZf4ysaH/4B);lineShape=1;" vertex="1" parent="1">
                    <mxGeometry x="210.16667174177786" y="255.2965736568347" width="0.8121482995092164" height="5.753529197622397" as="geometry"/>
                </mxCell>
                <mxCell id="82" value="" style="shape=stencil(rVbRchoxDPyae92xLVu2n9P0PzITUm5KIUNom/x9Ra+k2IZtmOnbcazOWq1W8iR3L+uH59UU3Mthv/u6+jk/HtaTfJpCmLfr1X4+2NMk95PcPe32qy/73fft4/L7+eGIPD592/04fuF1iavw/hgU3NvywiOl3y8+L/DNvD2DS4CWBp9Q6nV8VITa4AWJ4NVBtcuHfb86pNjgHZwjeDs+N3gjFAje8m/x3iGwAwqkLZAxqJEEVGh7gihUrgd4907xXYOA7OkR0hZJCxILyMitCiVAMglIiKEJqAGFsQ5IbZmscIWwLhWpO6FS0kWRWg6W5B9pLgdEOGlJK4RIbTXxrXJZEFlKHr41QypwLKUhIFoz3ZRS0FPDf5C0FygxXNHeQJEaaNTNnSbCBxvDnyhd7byWQIbXW1rbZyj3Z2cesRFJNLjgz5gh3J/dCFCBsCINQyZbI7EqDWPMdCksJRnck3lKwyA+q8N/ihiXgxXCExbj9rFCMIeO661GesKwPi2jSPanovq+rI50X0RJ/VxlA0DgWreZXwOxg+9lzvnk14t406x1m5rdyAQbV1Wie2G0TqR2HvIxBQvJf+Br+z+S/OXCeMy36GXlYR2N2spl6rLhddtl7Z9we/h7L3yaN5vlWnn+f3+PtFfLHVTufwE=);lineShape=1;" vertex="1" parent="1">
                    <mxGeometry x="207.56164449154937" y="257.91380161813885" width="4.224000694256473" height="0.8002025313595882" as="geometry"/>
                </mxCell>
                <mxCell id="83" value="" style="shape=stencil(lVdJchsxDHzNXFEEwfXsOP9wleVIFUVyycr2+4CZ4niIkTrxbUyhDQLdWDjJw9v+6XU3efd2vZy/7n4enq/7ST5N3h9O+93lcNWvSR4neXg5X3ZfLufvp+f579enZtm+vp1/tP/wa8ZVSqGBvPs9Hzjy+e/B59n8eDitzLlQzYO9pxDv2/tEoQ72iXy4by+eogz2zJQqAGSSMgIKRQAIjkocI8jEDABLhB2gPp2DAHEDIGTK+Ep19BALJcCCFMojIOlJAoDUb9wBWa+EPAjJyHOJJCBLwiQj0VXIAWVo0Hm8UklUEQ8qVT8CAowh1i7lBaBUyn1AdsQmS5UqYLqoBx4BkQqQd/XkxAKQvOsS4gJIxAUAVMyjNJRpD4KupYe4ABZ13QZUKmlMq6MIeFBA9ZaHCJhWgDPEBRIgbw06GC3F7vM2IJIb1Vq0pjFxps0oIGFpxGQBEfDwrv5VPRTAQ1M/26AT8iBWrXpSgfgaTeNw0BNGQfve51bSYCCNdgFTD6VTeRug9WUAqU+k24DS29YK4JA02EqjlSiSt1DZACoqIJ2JmysVdKVi5a1Z8iBLdTPVWyMD8mbn7IAo3Mv8ngszFZVLNII0CGfEFCmgkoubtpEoo04mlmotuYB65UcBrbuPgKYWEHSKxKNc1WcGzEWdsgaQYMnpLmJ4WHF5eyXbbBttBIAgOPVBvgqCQd/gaqPWxlBAw/fc+9CqhDKoCB8ojd015b5//OceqisWagN+M0d1iStAG34R57ImapGCtPpo27EocSBLmlYZC4IznBAsFI02GMYQ7EqmQwxpj9iMOKyjzd4ANxlnzXPP1x1zP6Y/wa1+0+8CbJCuC37hCjY7Z+egp4SIsus84/XfLpGaKmAe7Cbi4CafbCKxKnPnfGWORtPH3pv/NNeP96fty+F4nF/G69/tU1iP5me0PP4B);lineShape=1;" vertex="1" parent="1">
                    <mxGeometry x="215.0281208535107" y="256.9130388859807" width="5.4797486569457" height="8.00139390022067" as="geometry"/>
                </mxCell>
                <mxCell id="84" value="" style="shape=stencil(lVhJcttADHyNrqgBMOvZcf7hKsuRKorlkuUsvw8Y1SgcSOwwN5oGhmh0Yxlt9OF99/S23Uh4P5+OX7c/9s/n3UY/bUT2r7vtaX+2p40+bvTh5XjafjkdP16fL3+/PU2W09O34/fphJ8XP4lU6+Ql4dflTaAQ/rz4fLE/7F9n9lFImrPXtmyfhEp29hmcn4WyDPZMDM4vQm08X6jqsn21eHSwT9TA+c3C5TEepoAcIuU4OlQSgNgcUhgRJEoVODCVMjioYY4Ac/Eca6MIMFQlGTHEREUAC4XiiCEptQQx5FFGKVEEGDhcddk9cqZWwCcq6ZimEolRXpU4DQ41YC0Z1aOWaoZEWABpzOuUB1QN2iO+OiQSADoxxbEcmpEPmDMl1BF0a6QAtBTiMa0zau7nlZT9FxrgIXsazD4Ce6XozjfmkZRI3fmZMshp6OV7tTfeM7IPjjPpFb5g38ZSsJ6DSkE8Y7XC+K2wRsLqtVrvy5qSOz9TQfm0ftRuHABhHHuVzCJCGeLSZ8wMMqpMbsTZ5zRjh3ZDGup45lCcigwVYMGmgGvzJrsKZMTZ9y/TNaoDVkoOdOtvFnqqT+tUmWjY+tI3e5SkSJI9ggLOZ2quPRYSgDh4ZVt3VFyZjgIbdCD+0OfwrF0z0KkQO103Ekb5SW5+lL4tLeQ/3hRaRYoInZ6ZQ0YEmAP/j4M1F1+ZNpWRJBIFl6MINWcLoY4k2FRmUGg2ZOMIuigcsqX2dj7bLBIKqfi5b0EK6JDJCtctnREKaTpvBB1j31vvYwhdyNcVL2IpJapu67SpBjY2S6v7gjUotJnn4NPKhgpgiDegGe9ft3cXG0XoC9PozN4hgCxNszn7kNBubmPBYWhw/bLJ1lwL6LwsDQW3LBSobbN3Uyf3+9tK+9h78sp4tN/fVuKVXq0r88l921tJWOjXsZWKCH1zWCk5vPv+294e/t7NX/aHw+VqP/+/v8vbq8vvAPr4Gw==);lineShape=1;" vertex="1" parent="1">
                    <mxGeometry x="212.52457006605806" y="268.78877806449395" width="5.147497826256869" height="7.734840463050994" as="geometry"/>
                </mxCell>
                <mxCell id="86" value="" style="shape=stencil(lZzZrhzHEUS/hq+N2pdnWf4PAaJMwrQoUPT2987yRfWdjuw5A75dDiuma8vIyKXnQ/7pz0+//PHxQwp/fv/29e8f//351++fPuS/fEjp8++fPn77/N3++pB//pB/+u3rt49/+/b1n7//+vbvP35ZI9df//j6r/UN/3nDzXm0vFAp/Pftk9qPnv7/yV/fAF8+//4IGEcpCmgDAO0GkCYAytHDFdCOToB01KaAGAAQjhivgHqk8hww+pHnFVAYUI4iU8o4pRGPLLsUjwHn0McR6xUQjlIBUPcENqBMnFJPR7wuutjVgJNu88jXKZWGU2rtqOMKqEdoAMjHkDXko0YAxCPIE2xbAVDtesuiwxFgl+yqhXQB5HEEWLRdhNavgMZPiEeRJ9g2wDnYuSYBxG1S94C+d30D0sRtXcd0ZY3Uj5IBkPeenIB6lA6AqLc12UkDINtllinZosFEs7HQlQTiPCZsa65Hvj4hjiPRlLLyUmxHg6thxzSutzXWzVT3gLCZ9ATkzee3gDSOIWtIR4KrYedar+cQA16+1JQEJroHuweyhHFUIPtU9p7v8eZ+YIvs2uTrAsyZ0A4lR8THoPkYcQ8ZH2h8UHdY9gNvx9ullAM4+eN+/NBLl5GOom3flSwSmv66wlPG4/fXo1/vQ9xfcD++uBu6N+x+fN7H8z6e1IXd91l0PNzPGI8pRnxk2v9wzKTrBZc2dbnmdUlYHD3K8AHD+7al98vQYfLNqZYjkLNUU2lI0c5yxzade3Jz3BbQZSQ1LDtqko2ne3ggW7w5KofMdCYotLD123lUAeVTONp1PuuwgJr9+LZN/8n4fiWqdOq1J+sVl23uadLN1/3Pxmwwn6iGYjqownySI0KjOth/E9zX7zclF3F8d1IRNY1Tigmvv92uq3Et7UpyWgVNKTi+u/VW9KQmXuT7ef/nUa7UY7KxkL2ELXZOwMBwYFGtnIA9k7g5O18deEplx7YPURadmXm7cOWsmlBuRB8pZuR/89dN9ENBmjA7loCjcvxwo1A4ADdL65ITGHjzzBRErFeT0jSlqrZjgVokbm/qtVvaG/1M6AobWexYwVPa9RY/39jcjA11DRzSWDgQZEptU8I9oCjDt77jrntAU4oxQKeAY+ybcwIGqj+LssSALOgn+VRc8NoD6uPiaNsAkwBlS5oTkLaF3ANchNLzzqU8C4+HPKGg5zTakpij132U964hqGjvDX1tjZoj6wPDiOpsuk+Mg95p61RrcTuke4DzhyOhP6nOIY6Mgmrx3HUNo+6NfgYYV5c1Gp9DV5c1OhKZEaMCJur36vT+DHhwzcnOGTnllfRqrPwo6YyieY2ZUTgYbQmRzYJud7HQ1YAmH1xzWel5OuJ77RO3sngAdOBWM/l0pZnZMa4zk59BAYMAbavTE8DpopXRjQogcbIs2AHGDyWZDUApL7PgIds6d0L1Wd5bgrYFoHi2ajZ0rQEWbQYZ/C7BSY+xHdQDgDzQOEXnw0mTbjULrrKtjWP+qKGM2QMWXdKOpB4sjvJ803lR+4TSKNNl1u2Zkco6RVWlbcOgRRdNbtpGU/w2Xb7VjhLLOlXtweieiGy63P2oKLAMkK4nbS6rABlPpzXMBikDswCSJLGolba16fXuLOHWop3WoJLI+918UDOkBAygU8psQMWJE87dGyBcaWapSr7esq0mdEnCzVO7PIh18qIzql4yvzppW4P6aYtQCrG3o3vTBmRxZi7iRRuXCI1bJcQ3uUIpnFUXzQqgkMYAcjXqxLu0AJKSfOGyumYZ61nzeLqGqADKu90Ug7lksbZ1OAAwnwGqB/CUNInw8gnd7VLjJ4zidgmu9wK4KVGqegHctlLgN1xYVll7L4C73qTI1i656/3CHiRiN0B5cdI/CtBuiolZ9HVbqwPwSYuEW9vKu6QmOtGL3to01RTXGoICyD8sgHtC+7FtHZguujm41yZaHYANqPsnvLitPwaYmuG3g6OgafXNiBeNO4x65hSjOMXE8ie5J5zR6TPHLg0e79HpM8AUp9h3kPNMa0iEYtEpKgFXFjM1k1nozisv9YxR1hKJIn8K+rgVDEsGq2Ea2yIeUcamKomXpqs+LN1K2rurhDNlTIHfPDNiD9qbbHotWrR35bvUNFdp8QNpjZv4gS3OTlojxYANT3b5pCQy4yspre0XCfvIZtb6v30FqvuzqvqYzGFlPCR4bRz4BZcj40qTEZn0JFiITxY3XHVgvtQaUuGYE5P9wwVNBqBq9Cjq4+ZZkXiam7k+IQZuVVvpH/8I6gCcKmfmxDyFkYRkaCdX8LozOQNQ2qEXrdLayVG5bFGpSzBhGi66FFbHbI65A597pJNrTt4bgBbdqh71Mjnq43Dx8crQUidmcueQke8tkhTxvXJUAFi6VlggYjnexIvmWiY6iNpVOwwuW9am9vCuTO8BVVO6ZuZYHihbT52AgtRnAMluDq5N1bzb9x4TTLSGpOGuOWpKYVXHGn1yg2vQikXnlvIy1LMvWqDOi7697GNGChZdmqpEowXy7KXoSfeEl68kLQ90Ts6UqO0Xq85J1eCp2qFzZjB3ZY3VoA0uKLtmhzYwy5yLK7JzuSwn9ewGILGRbZdcGo5oJk2XVatIZMn10TduW0rNZdUyKt1U3RPiManRKatwNbalns/Vs+qyapTdXL1dLlSk+lqcLsHE72TE4SLwimQcu5roKigToLoUVkbWiEV9nHEhJVyja1qvkXt1o9ulgLc1BvfGxNz0fC+N1a+XgZfVJeFWzxa5dVWtL97gqLrgwtbm/GHhToqsnqFkfO8mK10YzZKuT+pISuBb6noWOXN1Bv7n+IZJUNczmrkJKewbf45P+MJA2AnSPT5xujFof9DLHlMdzzG6kwqrqxXnL8o5dnyjIup6jQQmcYSGqjExkWrKbeLXZ5eGwfas4hLcmKlybRkFX+3o2gGR8NvH5spzaziv4E4KW8mNCYUZApN5VL0VsDa82v6rjKdY2bh/Th3PzsWNT7TeqswWXr12MXV/qFdq9aa71yho/NDqS+LzmloPSvyaT9D+Ai52ru58YXIWWa7riSv5ybW3cSSXilN9mHFdnlGaDHm887wDmWR9nTAVd7enM69yAvjFmhx0xZEJwlyPvlDHufvsX92pGGRl1ywUOTGYXZXG7i1xYj6zeg8OiaKy4hrPFo3Sq5NZeXSJIn7XUpL9KwKh2LWrzl1vDXG7qnC1nf2kJsaoZG1HSbJjpTXE+ivSY21OOHUUfqsgKFPiqqXFYNK6UPikV07tOiWL+Ul7tKaJchO7mOZzEf56g4NSlS7uM7lOLyt215lj8QOdw+oqll2a2NQ7oiZOKjuq4Yi1JmT6VXmVqCxzWSe4cnPhIMv7kopJuNXalhSA4shUtCy6YRv9+tUF9xMH2AA4Xbm5YQ5hZfaLA1ABb7pFN27amq7B40Xj2dSXPgyALVVTq2W146sADxWTBwQd9T2C6gm3kyLpM6dKNwNgR990cULHZp4FcGt4dTmSAshp/fjPirwG2B/vv2Ly2+cvX95+BOXx//VXT+yjt19MyT//Dw==);lineShape=1;" vertex="1" parent="1">
                    <mxGeometry x="199.77337873770335" y="240.37779787727538" width="60.005506459447616" height="41.07782726773986" as="geometry"/>
                </mxCell>
                <mxCell id="87" value="" style="shape=stencil(rVjLbhsxDPwaXwlJlETpnKb/ESBOYzSNAyfp4+9LYbGuyXVGaNHbeu0xX8MhpR3fvD7evex3Kby+nY5f9z8O92+PO/60S+nw/Lg/Hd70ace3O755OJ72X07H9+f75fPL3fjlePp2/D7+4eeCk0pRBiqFX8ubXqgubz4vgKfDswWUbgAtk2QIqGwAUigwBCTrUhWShgHZAEojSRDAzQByox5w0MkAWAHYQrFBp07cISDYoFOghiwUD4hMEVlgysGmlVr9+PeVSWyhY17zfBVQMsXiQ8jAQs4UbFaTUCkfA3gDYM0CYEYqFF2hEzHgXuxXmBFBDCzUHPcCBRR0X7N+tqBvQNA1rUy7AAgodOvepQEALnWm0DcxAJdUIvoG0EAdeqNkqVHSWpnrgE7VpZWpRVC4oC5behcVMtDTaoIdQIhR1ELVFkJlpoFCaJqiBVTMjZ58TytAAF2bOhA8oCFA8WKsABR0U/ZFG3THgODpqmmFUrlpiKJ6PgE4MmXKADBccpVOcD5o0M2qQImUUMsVPxS1IRLgtxZObAyTph7UYA+YkC807xISV6W3jyGSgJbTBkrOAsMBcb1HA+7R6kpd4SowhMb51CijIKrPq/IbcUPFMm46qICmbuc6Xfbo/wTopE4bFehoUqvHVl1rXJXn+pRrfsNSAIPCxc1aOSyAtG6ZkamAuuVVSM/twLDO8ayL59VB4GDXTUAsk3SDqyCCtBlZKa7svZ7Uvk60iw2uA5fGVLbSKrBqg5jOwEzr2RIvwO5UomY3G6DS9+glKWIdVoCTJPUIpVQBYmkxWbsHwPJ0stgrwM3DydFhCLeTMHw4GQC3NeDjj7pUbdCTA9YI2jbb5AinLrlFZnJIVAtOwlRn4SzR+WrTquNIUFrDxqWGZbhRteQb8wsBKnXxAEHto+uea7cwaSD2x5MpQjs4/o1TuizVDQCFLW1zIYATK+K7elI6Peq6g+iEHP9yRzED6MOfK5GHw9PTcqNy+b2/QtFXy/UL3/4G);lineShape=1;" vertex="1" parent="1">
                    <mxGeometry x="215.54273976550513" y="295.4964339071536" width="4.953419609639866" height="9.055819940093047" as="geometry"/>
                </mxCell>
                <mxCell id="88" value="" style="shape=stencil(lVfLctswDPwaXTEEXwDPafofmYlTa+raGcdtk78vVI0SE7I2k5ssYwkCu0tCQ7p72T8874YYXi7n08/d3/Hxsh/StyHG8bjfnceLPQ3pfkh3T6fz7sf59Pv4OP9+fpgip6dfpz/TCq8zjitxnVAxvM1vImX5/+L7HH8Yj1fxsRGnLp4zlbwNyLZe6xMIpbQNKEylz5AKZd4GVKYcO0DOpHEbIExJOkDBAA2U+ibVTAF0SZVaX4OkpW83Ac0ApQNopQYytOYzaCMpEKB9DS1SrXBL4gCYh1ZJcg8Qqg0ArIncAxpFBYDga+AQKARAhO1glUJACs1UezFZHyroq0Zi7QHWByym4vqaiUGbZEV1Y+igSa49EabHDDyqTNIbQgs2hDHn5JoW8m8DTM190da3jAwRfFsNEMCWWqK0AhRkiEox+hqg5XSR/5VHGW3JpMaeBwFMX6n5imoB+p4M4zyXl+PzNkCouAwCHWTrNadvJQVU2469XN+Pnq3DsqoHNAQoVMQDEBGmhMa+6E8M4XkoFNCx8VWA3QfNeTRTRLecObKvQQoxqKEIxf7inZYA6stC2tdQKgWQIam3XK5UgfhseHC3nC0RgeV45dFolgNqjf7OsukkAxrsIO03xJEUbCj4I4AZumflZ7vnAQVhYfSdsqVhG+HqBh+4evSbScvhcZtefxMyPLxWpgwkQAuyTCsf4cjCbJ1MLh413niM6uITUlr2Ix5DO351bv483h4+hvSn8XCYZ/zr//1Qb6/mD4J0/w8=);lineShape=1;" vertex="1" parent="1">
                    <mxGeometry x="225.934805024075" y="297.9108769991963" width="4.678536929937783" height="5.220938535782797" as="geometry"/>
                </mxCell>
                <mxCell id="89" value="" style="shape=stencil(lVbLctswDPwaXTEkwec5j//ITJxaU9fOOE7a/n2hqrQFWN4mN1nGQtjFgsTAd2/bp9fNENzb6Xj4vvk5Pp+2A98PIYz77eY4nuRp4IeB714Ox8234+F9/zz/fn2aIqenH4ePKcOvGdcacZpQwf2e33hPrvx98zgDduN+AaiZWlAA9hTdbUCplDUgRuJ8G5AbJVaAlCmAkrKjoAG59BSrgCgladKlUQAcQrKkWyEHOIRAXn+hVaoA4AtlrwGNagKAQKVZwL8i1xtHvtp4RCF2zReUUdvEBSY+kQOaum6zc3zobbwRH3QLqlgXxHtqWlBxbgb6RGpRx4tNgetEPVNPoArye6biLcAjApXSFYArNJ2lwHAOQqZkOCSK6AtiYm2iWmGTRaViuuygrSdZja1FNyCrcGh6+Fsm9gDAVlYZTY6gD21lcpCTvBhHc/DOQZkkX7ZfiKCkdDVr0gbEmYLJn6iC/K47f9EED3xxZrfocmhoNo2itUDfMVWdX3zqgIu+Gj8ddnoQioOEOXWPne+oBm0ak5Uoiq0AIF2dv1zxtSkXghZVRqOAJpdAUbtCTAEOvMJ2+CM0Xcn973NBFAFjWRTMASk2QZuIp6on3/VdZj0+kW8mHg2lHG2pmngP9Gwr9RR0gcTumAtfNJRy/3qtDxOjQ6X2dJf+ogt/Wjh0/aVfcetD7K7H/n8f+Nqu+QmAPFxW25dxt5s34+X/dhWWV/MazQ9/AA==);lineShape=1;" vertex="1" parent="1">
                    <mxGeometry x="227.64028073986577" y="297.0648698391665" width="3.0360324688877216" height="5.058870410776146" as="geometry"/>
                </mxCell>
                <mxCell id="90" value="" style="shape=stencil(lVjbUttADP2avGp2V3vTM6X/wQyhZEoJE0Ivf1+5YVNLtg/Dm3F02JV0dCR5xzevj3cv+10Kr+fT8fv+1+H+/LjjL7uUDs+P+9PhrE87vt3xzcPxtP92Or4931/+frmbLKenH8ef03/4fcElKnECpfDn8oI7pfrvzdeL/dPheWZfKXRjn4R627aPibIDBBIEaBSKAcRCOW0D1IWUDUBvhOw7xWrsMxXZtmd1mY19GC6t2udCIs4+hG37kilae4YRLY26TVmM1NEBGlF7QIrjyHWAXsBGlCPlDFzuJDZEOREzACRq1gc9M4KkcaFmr1R58GQryykYQFMfQFgnWjpAp4KIWihYHnWmCvIgJNaF3gZT1g8QH6TeqSEX1Geb6K6lgKjdiS1ANAogqlmIrc+i3ENyEahaHyTBatYsxeABBUS1R+LuAQk4rTfO7J1+r6h1AA/yzwAFOC3Fa54CGigHaaNaZmGFPigRxDsdgSjJgkvqFYM8xHBVrSsiw3rQI2qygAKFWJ3wgDp0ZCtMTsj0TUNeFy8C0nFcVYWKBzAm0xIQAEArMifvQwbs05qPiyhlECVVlRx8HhJQbwWw4zfDFj3plgOonoOCUKfjgt8NUSOMjjYXJpTp6wVmACjGeXBzDkDkq9SK9yEgFehrWgnEVQvovUHNwiooSjJiMivRiE/wTuPZSgHByUalgvLQqLooNSoorGX0j1kBRSyunwNog/CJwwNiU6rZE2ZiuD4wycoRKHO5LRIhcDrRIZQXSlbR/KOJXWglalpxGdcKydQWPudxx1X7RT/plTqgUvObSZORl3UHmIqNaSujwWxNfNWGqHZ4wnQlW2863ghQVuYxfl3HXO3rwGcWn+YcIFezNiyrGRyIAZF0O/ELHN7HFBCt2GugUf/h5qefDscr3S3c8qAHMEpDperq84Na0NnIUklXrAwAcTFoTAsQAmTfQjWTaJCOixVLE93QMsB+C82RCuCeLoVi61OXLlTPMfiwKgBqPaXFASjRzc+skz0gUvX9U+1RPRf/4UDtE7BnP8VoRNEEwJ4UU22ClKWhtzN7uLJ6f5VDqLF99tPNx/b68P870cPh6enymWn+u/+upK8u36T49i8=);lineShape=1;" vertex="1" parent="1">
                    <mxGeometry x="236.96674564583873" y="293.887997597964" width="7.042112510296119" height="11.419664367446286" as="geometry"/>
                </mxCell>
                <mxCell id="93" value="" style="shape=stencil(lVjZbhsxDPwavxKSqPM5Tf8jQJzGaBoHSXr9fWdraLuivBP0zV7vWOIx5JAHvXl7vHs5HoJ7e389fz3+PN2/Px700yGE0/Pj8fX0jk8HvT3ozcP59fjl9fz9+f7y/eVueXP59O38Y/mHXxdcilLrggru9+WJD1Li3yefL4Cn0/MGEJuUNgKcRCUA3/+vA5q4uv++RnHTAY0AQpFURkCUkggAFvoR0CQRE3yRNpoQkiRHAEn8eII6arRX8XkEJIkcoG4AwM/RE0AWl0ZAo17yVfKYGSlJIEbDrW40OjupLA7ZRjpnyeQEOLGNNpTQrboOyBLDCCgSAknWIH7MpeqlkivF2n2yAhC4sg8A4XR0a8Vf5H1AXum18seJJwzNk9HNSyBeghONDQBkciX4pGV7pUKydTFRJ6NJtuLn7G0cIrFh8fpoQ0miJNKl9biuydf6mXteKmPgcurJshcHb05QceRKqUkzBAo8l5Cbak9IJA4R/CrWBlZbo/bCuGEc8xIAbvRSQcITG1C2mgHgSqyfOFFTBEp39PUiUEWzBbBsRdUIU9WojQCi+OlKkURaw3SlTKu3enHZupUFDqXSnqASSBx0disYR4rAcqXRS5k3lMVok961N7FdJWAYh+rNA2fiAA4WFjhUoakDVcYHNwGgPphc8j2ZN0YX1lDU9umCM9kJoKjJVjRFfoKRDkgN2uNCz80NRSO7krN6CeldWC61yegimREoTydAozEAdO7E6UxsQLaaYgwbmJfAB9OnFy+x5HNT4BAH5iXXGbyN9H8DWBFI4ka3Qn0oY9zUslLm40OSMnoJgoipyoS2O9qAJ5m1XSSfswBGIJStOnI6KdUakA4ardEs+Wq01RutPjM1U/t4sVECjRjdQp8WtpWPdNGWpJr0dl1MXB8HnOtVZUU0imitO2XVcI2KvqadL6uszLSzV+3jwgpAaMiVwPk0BmJj1nWEF1/tEY1lU7QTBACB3CkVOza10ufTvQm8moE69YTcq995DATShQlRlAHj11p6ulyf5JptvDVQRmBWrJMmY5zD+NrG3EBkEjnBB5uukLpMiBarpcFRNpdB1k5Vg8XZ2yoT173F1ffRHca0WNow8dBETy2UC77P5utOo9Luk6xqQAw9uU+z9/Gla6e9jYZR3QghK5K+2Dm3UpER1C5l4kft1o8881zfVrvD4aUF8Q/RvK8sANFu3gJdryB/TYlPdAJYtjWmcVItnEFAo4Xp1gAtzBuBRIdVvG8YVvuBu++brQTVkHjfiB3v6Gyb1xXECvCdpHseNYUXKc1CgJAZlwLAemyqXYivAKVLiVQmlvG5ENLGtKflBOLW6xtlZsPHK2h8+LfAfjg9PV3239vf7cIbjy7Lcr39Aw==);lineShape=1;" vertex="1" parent="1">
                    <mxGeometry x="436.91050515221923" y="251.0551762888981" width="9.443529483016235" height="11.220162028748256" as="geometry"/>
                </mxCell>
                <mxCell id="94" value="" style="shape=stencil(lVbLctswDPwaXTEkQRLgOU3/IzNxak1dO+O4bfL3haqxawrRur7psSAB7OIx8MPb9ul1M6Twdjoevm9+j8+n7cBfhpTG/XZzHE/2NPDjwA8vh+Pm2/Hwc/88v78+Tcjp6cfh13TC+2yXKfNklMLH/CFQCH8/fJ3hu3F/BY9KtXV4psjreLbze3yhDM7PhZiX5+d1fBEK0uETcVvHS6AWO3wmlXW8mj/a4SvVuo5vhVQX/msEeKEUFudPb6t4XfoTmRIgoDXi/gKLOCg00NpHIFQBBTFcJHPhOFEBJNsV0pNQhSI2CL0qpJ15XEtT6G/QRgVFXUl6HRmTEd1gOs5Lg4aYyxRLbxCxAVPoDZSpIKoTpd4liVSRQSRNPXFCGVSDN8jGNIrBuZRMwKh+XNCxUkYGLq167gj/yduNcnDCsIYBGoxXXgyUUYqctq0F3yiGRfVwgsXwSYFmoYLE7XpAtbaKsuq6jFg1IOm5PqaWaMSDa5QmFWjgOrFRGRFz9xr42WAuMeiUfvhMTQZkyU83S0MFxPnxaTEoKB8/n62g6l0LwHQDkIZbMK7k+LlL5wZxuUCplHV8cvhMCTgUzy3uojyBBRpI+vNF4QoTKC1qR0gAyX56VgrQn2UxMzUQr/PH2gXKj4vXMlZAGbh8RpsJ4HzHV4HpcXKw+4Aa7txnb8Lt4d/q/DLudvPmff1/uWrbp3lN58c/);lineShape=1;" vertex="1" parent="1">
                    <mxGeometry x="429.0824265429377" y="256.58361773564076" width="6.255675152439585" height="0.5582026138141561" as="geometry"/>
                </mxCell>
                <mxCell id="95" value="" style="shape=stencil(lVfLctswDPwaXTEEwec5Tf8jM3FqT1074zht8/eBRpUtgtY2vsnyrvBaEOAgD2/bp9fN4N3b+XT8ufmzez5vB/k2eL87bDen3VmfBnkc5OHleNr8OB3fD8/T79enETk+/Tr+Hr/wd+Kxc+TcSPPu498rkunF94mw3x0WhFopxQafKDLAB6q1/X6iGtcJpZIrDcFHqsCjwuR8QxB1CVjIPHs8E0IhruuExBTaHCXNWlonRHVJGoLaDH6doB7n1qUSKAILmhNuXapCFRC4S6tW0oHCseYkWoJkQEgkbAkJEYRy51IBdWBHxWj1Kt/bpaZUrYVa1vGBcocvQEqepIsggaQ6ymLxHkTcNWctVAXhfbF41AraCWLxHvgvlNpWqxn6o5IQi8/AH1VYtfgE6sWeQu4MAIc4kg9dBEBBnOfGXaSIkapLp+oCT0jtTM6WUFDQZT4alipCVc5zpy8IEVkIc9aXfYDSylS8JVSQJU1Si/9fJ0d7QI4GoFK5w2dUZ+Iu4gA7mbtOdqAGGl1XZKTse/Gpw196dU0TsQ1YJw4SkbDVtc40BhMneDsEY51VcrvE3p52IcOZli6rymLySwCEW7tFBlXOOoW77QXFkDth4/VI8dLWDa9fijcTzc371W38ZR5d8Qngx2XKfj+Axi9CLhi8B/kpkSQavAOyLnk+Chd4tJ6qu9Z/iBe7PGJ/arQTDcer08Vb/1E+tctzGr5er3HfuEcPd+/7XyDow/V68bLb76fbyfJ/ex3RV9NVRh4/AQ==);lineShape=1;" vertex="1" parent="1">
                    <mxGeometry x="449.93330000057904" y="246.27568853485235" width="2.2563817921133613" height="18.641219890154122" as="geometry"/>
                </mxCell>
                <mxCell id="96" value="" style="shape=stencil(lVjZbtswEPwavS5ILs/nNP2PAHFqo64dOO71911WoCwurTHyJosz5p7DpSZ++ti/vO8mZz6ul/P33e/D63U/8ZfJucNpv7scrvI08fPET2/ny+7b5fzz9Dr/fn+pyPr04/yr/sOfmWeJUyU583d+USi4/y++zvDj4bSCJ2LbwT1Zvw23TN53eEOpbONl2TqFNwbgk8Y7igDPYk/s8Jk4A3ym0ONthBt4S7kP0M3E+wRHpfeAC9kICa7PWJA9kUkS054QPQwqJ/LcEZKnlADBE/dZzkwROM2WYh+lYsgxzINTOxTKKKyBSr9DzlSA08E3i1cEVNpRSkkREoUAWmdJ04pggdOpkFeESBnkoS5bTUjAhxIoDTt40A8lkUnDDhYQpL8Gpz0iFHJR5yGAxAkhj6UBomTNoilL9YkKgpaTLZIqV0cZZE4IegcPVUDiWnonJDUWeS0yFDUhAq9lWclGTT4o18J3TIJRck3aV06js0SirndgYkwIQ+JQU8uyVyYZYnD+1P/rpa/KxgOnVbmm9mYzrEOPFtQQYZC+SAERpDR4IOCmVkfQA2GSpi550Erco1pnCszDvR41lHGP5qB7lFF9i9D0TkhqEqo+kbI+rlLf6AySuFrlQ6CA4hqaWq97FGXus4Raa4NJ6KSWMyiOBHTKyXjiNAGNJ3UYUT5EqAIh6JmyBho47aNuakmlAz7IBOYUobS59z7BtcpZxkTzYHCVcSNrmxgRBv2upz0Ik0y2KhHZUEFTnNX1LbmEBNbjRnTQJA56oJHRNYD5RAhK8OswiwhSTL3gy32moFRbbZLciBK+cYQ+D3bxavNKo29YBgiZdU17b7XUBP1+A7XrwsogpJShKe/qSoO02DfNWuHRyMd6kK54dOcbeidCf2WMzhqPutmSDTo+EcTHtMNywYvMA/tNE58VHrX+cLLJJdkAf01bXfCuKeYG3qn82tYUG3h1hki9OXSn/9wXg4dwebh9nHg7HI/zt431uv6YIa/mDyH8/A8=);lineShape=1;" vertex="1" parent="1">
                    <mxGeometry x="455.4334895360612" y="254.87948932846462" width="8.114875296355814" height="7.474876030883181" as="geometry"/>
                </mxCell>
                <mxCell id="97" value="" style="shape=stencil(rVbZbtswEPwavQ5ILo/lc5L+R4A4tVDXDhw3x9+XqiDHJKNJDeSNoma51+wxyM3z9v5pMzjzfDoefm1ex4fTdpDbwblxv90cx1M5DXI3yM3j4bj5eTz82T/M30/3E3I6/T68TC+8zXKKnCYhZ97nCw9v/l38mOG7cX8BL79daPAa1vHeI8cK7+DSOj4mpBpvkN06PhtY0+ANsT/Lov7Dnsjej+371sAxBQqxtQKL7IlARqwjKhFR1gWsObu4SASHZKmKxqaoCEwgIdZZUAchacsBrtaQHZR5XWggtYBCideaYRqBTJ3WsIT9LBAgSgQKNbR2OkJIqtVCag1J4JlJBuLqxCkMM6kT8IVMX5hUk8lFBJK4yelc81sQ8zVh9bSA+ryZReMqMer3LexVzEuw8Rpq23LD67MpHrEIJAef1KdPyxv/2QKiQFiQdCHm2elCJBalro2VvCgzqfCiDlMJHDWpa8QXcfgmiX44lMix+umnT/EikS7Tj7fCL0vmWzc+Cz4yF5aon/F+6Tqfe4DUvG9oE3PITQ/zsGyYINTVmQJtMAahbkgx0vLsR1WAJzTqS8fTYuvsEaFjpPO3RNgQe7p42gAl7aXPF+2OHR0CEmumrTV8WftytyuHj73wcdzt5rXy8n+7R5areQeVu78=);lineShape=1;" vertex="1" parent="1">
                    <mxGeometry x="463.48437177765834" y="255.43295396139877" width="3.987828280373598" height="0.7905646450567003" as="geometry"/>
                </mxCell>
                <mxCell id="98" value="" style="shape=stencil(rVbLbtswEPwaXQdcLp/nNP2PAHFqoa4dOE7b/H3WFaSaYjVtgN70mCV3Z3aHHPTuZf/wvBu8e7mcT193P8bHy37QT4P343G/O48Xexr0ftC7p9N59+V8ej0+Tu/PD1fk9enb6ft1hZ9TXEFw1yDv3qYPARp+ffg8wQ/j8QbuPSQ2+AiRbXwQeGnwCpe28VEgucF7KMEnQUwNXlDdNr465DZ/B8fwiiyrfJIn+DSnu+Tj4NkGJoBvN7AKiAK1IpWW0YSk2wHilhIXzfxc1dYWqyJSQWQBGaVlqZhsmQRExLbq6lFY1ZZxaAMKCqm61LXQVhUruiSUtmhLUgsJCPPvpWgTn0htnKx6NSsCS0mQWlpjgWMpdQGBj0Ofkk+IRLi+aFGk+hFaAx2gXjebH7J+3xiLg2x2nrYiQIjB9K0tGYnP52p41DyKaPCH+QwZyudzZQFJoYykzmSyNRJjyTq5VcF0KSwl88m2BiOOptQZ8Q0P/ymiPxyMCCEB/elTudj98WbMMffuz88aUNj8rM9na+DEDsTZd2/WV+KTAWGFdwgEb+NW28YIEGJJgtCOZ46UINu9XT8lCOGnP9sinbZ+1sK847/lo0oHoavXGGYXno5PiSjEH3u9qF+ntV1b9zB7/9ht8K9we/h98XwaD4fp3nr7f31RtU/TJVfv3wE=);lineShape=1;" vertex="1" parent="1">
                    <mxGeometry x="464.33241371815075" y="258.3490152874999" width="4.4279583659003325" height="0.8205109583716343" as="geometry"/>
                </mxCell>
                <mxCell id="99" value="" style="shape=stencil(lVZJcuMwDHyNriiS4HrOJP9IVZyxajx2ynG23w80KjkGYXWSG001TKDRWAa+ed7eP22G4J5Px8Ofzdv4cNoO/GsIYdxvN8fxJKeBbwe+eTwcN7+Ph5f9w/z76X5CTqe/h9fpH95nOyafJ6PgPuYLR879v7ib4btxfwH3lXxR+ECprOOZqVaFjxR5HR8jsfYnUanr+JSoeoXPVPI6Phdi7U+hCPyvjmLr8K2t41tZ6Pvkp4J4Bd/6eBnw3yrVoPA+UEzAoPUBSMoT8qhR1QZ85uy6JJzrY04iCpAEeaLoJyQtERsEbSB5SRHSlJIyaJLIAPOQO4NMDghDPufSGzSUORFy1AZh0e51g0iNddCRAgpaake/UAI5JNZITr+QhAakDWMQw1Kvqy5pWqf6QSyZoL3whvRtaC3kgVqnvOkGIB0QOWSEwYuH31UeJeSPkbZvsCPZ4uGwPPnd+oxfllvXAnLAujBNpmSKKGrTxmrBLcP0SVFKQdVjGrHceMTrTw3saJCCdsAlO3vEALViO9waww5gp6ewFEDbs+NZ6gnNczv/hSU00M1+cSHHqwYyzro0VCzvvp6nkFEE5HR9ivLQZDgPmrO06+LhCt5rfyTtBRBkh6cMHuhPX8zSkEC8xh9pF4gfE68wlsAQMXx6vBGafCVIj5GDh+vOD9fZL+Fy+NycH8fdbl68L7/3m7ZczVs63/4D);lineShape=1;" vertex="1" parent="1">
                    <mxGeometry x="474.786039924742" y="255.90802321237288" width="8.32235658835896" height="0.5300813155223484" as="geometry"/>
                </mxCell>
                <mxCell id="100" value="" style="shape=stencil(rVjLbhsxDPwaXwmJFPU4p+l/BIjTGE3jwElff19uDdkW5Z2kQG9r71ASyRmS2o3cvD7evWw3HF7fDvuv25+7+7fHjXzaMO+eH7eH3Zs9beR2IzcP+8P2y2H//fn++PvlbkEuT9/2P5YVfh3tRInjYsXh9/Efpap///h8xD/tni/wiamVAS9UGeAbCQ94Ji7reC0UxvUDVVnHZ6WcHD6EdXxJVDxe2jq+CnFy50/A39qo5gGfScH6TUjG9SNDh80gjRuYBzEDg0DFGRRqwKBqf31KsXanrhsE4jAYJKEADIr2HJ0MKuUKDJiijCxlEhCl0iiPO2jATucexJNBpACEYHlwPtiRGCWueuapUgFSiCH4LXKEZG3mxLhFLlQQuy3so9emjwDoXWpXbzeomH2mzzb6sNALxNWiqGOqjcAtrhtI8+xrCZYkTiR1NKhdhCuJoDo63Uzl4Ejsfb5I5fUdfFG1DRrEuzwbHlWZQBo8PoIQWU6Dj5ACbk9EbYUq0PNUMAzPgBShV4cTPlMG/kZKweNR12HPasMH4K9M5zdSg/MkitGvj1RjBG4ej+KvlNTHMwBGq28Jhs/gPDPeFAMEoL5HGb6B88/+tu7RWjzZ45EgxQ85i75AvowPdcKD88x8a1TAeUJn7wWeoX49307N5IN6rF3RH9R7gfEPlCZ+oglhrlcZNrK5HpoeQT3hiT+mx/+Itw4QJgciCJDtoG4HGzyBgWQ/dLVIjAfr4hpr6aP29U5sE9NYJCp32l7v9dJvAqfhAFddW6+NUSqnzrk2fjgfskLeNfZCUFxYbNio7nqT+2S4Oss2byDABxuY3Aj1zg7ZXrtZNpGixOU+Jl7MshEdKfg7S7L2AcJapktgMsUCPViU0lggJcGGUC1KI5fsXoQqsM3jblo+F8E1A6e4mPDNbkpc61Vnzec8Np0Me4IRg0e8whlk4YVLAqT2wnx3n+hquo6PPkCnq/b1AqM+x9bzQY2X4jNmVTOBJrWUvOgNFLDODEKeDECKl48bMh0JVeFEqXgDJDWRflk/k6ggF6brPm78hneNBzd+4c6ZMx71qWX9EV9Isb/i8QENXuLrb4a1bkmAOnxEg/g/fr56H28P529lD7unp+Ontsv3/tua/XX8Lie3fwA=);lineShape=1;" vertex="1" parent="1">
                    <mxGeometry x="483.98718975529516" y="250.50969258972822" width="8.58414329432921" height="12.377011902727599" as="geometry"/>
                </mxCell>
                <mxCell id="102" value="" style="shape=stencil(lVjZctswDPwav2JIgiDI5zT9j8zEaTxN44yT9Pj7QvVQESFpJ32TZa2IYxeHDnzz+nj3cjyk8Pp2OX8//jrdvz0e+MshpdPz4/FyerOrA98e+ObhfDl+u5zfn++vv1/upienqx/nn9Mbfl9xUohlQqXw53onJkr6787XK+Dp9LwA5EIaVoC0D+BCIXpAy/uApBR5BAhl2QfERqUOgMTEDAClv68DOFENACAU8gDImQJw2k5wAMlUACAFEh0AhSmDPKRGcXRaIwk4IVuaxsRpJQV5yI1aGgA1Uo37ANH+9wzIlNo+oIgnX7W41X2Aqg+rARg4bQbU0emaKAAuTS6OJ6hAemuiPLK1WNwKcNoAY5SKQi6JWeyoIZ0s24kLlNYngMSxUgkeIEAPnLuLC0AEJpm+PL1L92obELymSyYGJpkesgNY3EAeJgGNTkuDYTWAtBGg/RV7PtTRJCsCDQGsCo16EO6p3AZI19cMmFW+l+nm6lKkBhRnXBL2JwgCJNLqfWioLmXKI5dEqCJ6W9VwTlcoUQN4agRS0B/MJHUCYoqoVHJn/0KiEVS+HLvkF3ooSA915YNSRm3Xgpg8gNEJ3CvpwiTUUDhSGrlkEm2gtpqAdEycSbSiSaD5ScASl4EeDMCOrYoVF3pMFuQTkDiTqDPJ6K1IokZvp7gEp5ltAChkuRKPbJUAi4A0X72tCMC2a1VoVZcqAFSh4nxoFIDimvjhxMhX0cwXAgU3zmifiLaPqBRHr2vt48c2IPgG0XDPMgN05EZrVEHm1PI0inrh1vbwELvCFkeg1i7zFDkDFGbCap8r+C33ertXaMSFKfYpbW++d7Wv4vHE5vs0mmRDXAIn2IJRxlSrbS0g1dpHi/l5a3tIoz5G1h/QzDfLa5ZDgV13xW3rqg0kzYal0R5LCno+dQrMC1OFastenR9v2PY3etbFAKVj73Oz1TxG7A6g4wEBN+jV1hrgGrBei7EupzYTvT3AfiuH7O1XpPvgGW3LHvDX6oTz1yQB/J2WklGTmNAl+b3KZixk/+r5AhvI2p65yX3S3wbX7Y144pFwnTDjONoW1oywqoS2hf/+EvMJgF18fPh5OD09Xb8bLf/3H4rs1vUjE9/+BQ==);lineShape=1;" vertex="1" parent="1">
                    <mxGeometry x="322.08720199497543" y="227.3298635129595" width="5.8681009840915195" height="6.210094606799979" as="geometry"/>
                </mxCell>
                <mxCell id="104" value="" style="shape=stencil(lVjbUhsxDP2avGpsy9dnSv+DGULJlBImpLe/73Ez3q615FDewqKzlnSkI3l3evP6ePey3wX3ej4dv+5/Hu7Pjzv9tAvh8Py4Px3O+LXT253ePBxP+y+n4/fn+8vfL3fdsv/6dvzR3/DrgvPifAcF9/vyIFRp5e+Tzxf7p8Pzyj5LzpO9b9LSdXvvpRlA4IAicQYU8fm6fVDJaY5AEnm/eun/W9k7cY7YN/He2DP/YxZXJvskGq7bp40/SFBmgGgdAonJU4DhDDmoDBAsZzFIVRJzk2JiVkmVAJK4OgHyQuM1FvJ8QgkSiUsaxc0xVPDcSB1VCXNaa6Y8oM68mwANzLDKrpLjfEKiMcCl0maAUh40SzSAIIU0D3jIc/FVT4lDLdVo06qkfcCrqaXSREnxgVdT3gV5I4CKrJvSKNJIlppKaBZQCHENNAXrkmcnFNFogw6RAOrgdZXWRqq1teHxqjQ80W3vFplbVV8iCByRzBHv5LVKnAGNS2vLQ4YWAK8+NJgFQAUYINjh0J+wGJykbAEshlqt9OEVmbQckmiy1F9BagMyZKnOY0ReBZhighiS+u4uGenzVDa6x6ZHm1SilciJESZ0EIsBWU+bpq6slqINuqsAcymPrK9coidUUSOukD4mG2ggI65hJPq/ezRSItpm8Fa+LXWhmQdvhRwzAGrDTDkvnuUVqmIAQQI7QUWLBWQmTB8FIIlWmALt0aJ2hwOgEDnO2PHm6oOTkdRGwm4x84ACZlMulrEqLIA8xtjbu0C1MwhUNnKCOruIoroCiQGbt5rN1XHB93ETRKUthNtD2gwtJjR+qealqzO9DoS4AWAhJzGENvadZXVFVKT6VO0Wl9CjRPAVVM/MYb9m6waW4zqXawSXxKXox/uWGwF6lO3r4HUG9IsjuzWpXWg8nrD1O9lJjYsgEyaf7dAKi1RdUddxb1uCzmPYv60zYwNb7LEmkiQt42Oxx5gkDm0WAfDISMj2qg77SFIa7QjVRld1tReg7j+7nmz8Kbw3xUWbfyZ5znamJvEkP27jj77zfjNscS1mO7ezggrFpOP8g59W3rfHj3/fcR4OT0+Xz0Dr/9vvPnh0+Wakt38A);lineShape=1;" vertex="1" parent="1">
                    <mxGeometry x="323.98627849475383" y="218.4657111490322" width="6.2439162493505425" height="5.589663126957805" as="geometry"/>
                </mxCell>
                <mxCell id="105" value="" style="shape=stencil(fZbdcgIhDIWfZm8zQAg/17Z9j85U606tdqz9e/tmZ0c0uJ47xP0I5JwEBl59bp8/1kNwn6fj4W39M76ctgM/DCGM++36OJ50NPDjwKvN4bh+PR6+9i/z74/n6ctp9H74nlb4nbmSKZeJCu5vngmZ6jzzNAO7cX8FVKEsBuBKrgKg9oAE8gkCbLeUhEoEQKSUDZDLeWYRKIl8MEDRmHwfyBrBG6Amyu4+kDxxMoB3jhwgYu7TVAsVkFcWCs4CTBEoF4RctKeOxHIf8IXYpikHikAIf+MNUW94AGSSaoAoFIE3AlOyeWU+p2E5S9yfQZcQILVuQOwZdJNoS9Ls3wA5u2XZTIHECqeJ9kDpSaauRiNVcAY1QhdBzeLBli5WazpkSsBLV25uRaqWRyFawTQzRRIQYirJzq5atkBqLfouwqUxLBepthWb10vrWZY6UOAeyKCCtDV625mm9gmUC4Wc3VLJMMIE1BsA2FW9JraVlQB7n3c9oMKhCLEvIM1zBPZ25/umNQ1tVEC2G+fFCC8g398O2hNQuQlVu752DBfA+q0ptnqO5JFmeuIuo9DY7KjY71UxdJV4EntifPWorW++R/dC4t7V3DlIB5cHx2bc7eb3yvX//QNFp+bHDT/+Aw==);lineShape=1;" vertex="1" parent="1">
                    <mxGeometry x="336.27253526474675" y="217.19735906534612" width="0.591460730647438" height="0.5905362299185808" as="geometry"/>
                </mxCell>
                <mxCell id="106" value="" style="shape=stencil(rVbJbhpBEP2auZa6u3o9285/WDIOoxCwMPHy96nOaDA1BS8g+TY0r/ZXy8B3r+vHl9UQ3Othv/u1eh+fDuuB74cQxu16tR8P8jXww8B3z7v96ud+92f7NP1+eezI/vV799Y1fExymXLtQsF9Tg9Mjv89/Jjgm3F7Ag+BWlb4Sj5fxjNT8AqfqdbL+MgUncInKu0yPjGlovAR6s/iT17EW4H+4qlq/wMloL8FqlHhHTkH8Ik8L/TnAPCFvK6XdxSQgUpFCwRPLQKBRiXpDAlHACW8O4Z4rFmg4qGJpAVypYQEKrGuQg3EBQhkSroMX4U5LxCJdZrEZgVRiz6nidcTB2KobdZ3FEizzfMChdoi6EwMSi1/Jy1QpJuQS9JbOoZUySGXjEAUMt3kkvR/AoXrQQfNb6YMGtSmNeIGMnWT/gH6OzGadoj8TcwrcEBaavtCGffnonnYzy/X9mcss9ErR4CMTUZJqktelDqn+cox1uuIXDJzUlRAl8wgPsnDN0nY5SBORUA+u32ELh6EbddbTwSwYPenEDgAC3ZBN4YW7AXQPByt5sKQmBvgRjKDNVFGEVAy/iTAjEBBTxiZaqhDpd8XDX2M6CzeLQdGFjzQb7dnug0fZUSB/Bt/pOQIb+KVDKNpYfLpI+SDqVeFS8rQIcK+z/O2uO6e/e/5Kx9fp/PzuNlMl/fp/8tTW56mM50f/gI=);lineShape=1;" vertex="1" parent="1">
                    <mxGeometry x="316.91480308471426" y="228.0730382896342" width="3.8974837416262282" height="0.5586890302795756" as="geometry"/>
                </mxCell>
                <mxCell id="107" value="" style="shape=stencil(lVfLctswDPwaXTEEwOc5Tf8jM3FqT10747ht8veFRrViCvEmusnSglxiFwQ86N3L9uF5M0h4OZ+OPzd/d4/n7aDfBpHdYbs57c72NOj9oHdPx9Pmx+n4+/A4/X5+GJHj06/jn3GF1ylOiMMYJOFtehEoTC++T/D97nAF50zS44WC3MYrU2kdXinW2/golLnDR0rpNj5FiqXDJ1LAJxv/uMDXchtfGrXc4W0BwL8xaVvgE1i/VWJe8IHrVyrS4QtlBfhG0vNnyxgQ2AJy7QWO1BgGNO0VrhQisFCYLTafWSgC0WyL2otsMiJXWMD/z3OWKjUcEHrZaoU+Mh1Sr0NTykjocsniHGBCIErlQmAOCJSQNTLVfodqac0wIPa1UAI1oJwFSJ/WVEiQ+1yA1XdZRUlMGZQld2gulBAln1aKyN5Ot4St54yRSXGBLpzHTLmt8bYwBZRTVz2q0BcfFGi0pGJOizsgMzVUDe6WKenSiL54j9VEGQW4i7IJKb5Z2RVowVfAygDXG+zOiMAbvvlYANrBdzejxGAH3z4tIK/qzy3Ba8wPAFayCZzBTxhjCQJKboK58u/HO1y8PG9QYUkzsSxzJMDcgUpPqBbY3gJpr7I1K9Siw5JPLlSAyL7dZjiz+epXWMyOj8on+Vmc912Rr+WTBc5UTq8E0+PswNDQKwfmT+H28D6bP+32+2m0v/6+nOXt1fQ/QO//AQ==);lineShape=1;" vertex="1" parent="1">
                    <mxGeometry x="307.84541894373024" y="87.1742531270776" width="8.060259547299761" height="0.34075063572033265" as="geometry"/>
                </mxCell>
                <mxCell id="108" value="" style="shape=stencil(lVhJchsxDHyNriiC4Hp2kn+4ynKsimO5ZGf7fTBRKA1AT7t8G42AIZZmo8md3Lw83D7vdzG8vJ6O3/a/DnevDzv5tIvx8PSwPx1e9Wknn3dyc3887b+ejj+e7s6/n28Xy+Xp+/Hn8oXfZ7/SKfDiFcOf/28ol38vvpztHw9Pa/tAIsa+Eodt+5yIu7Fv0D4lCtHYM1NN2w7SSYp1SJSQQ6acrUOlJsAhjoiHQ4wU+rZD7BRtTZciNeBQqNocRCiAKsVEzYakZUgoJCG2KyTtM3KII+LhoJ2EIalDtUBiEhxStMgojRJaIVOzZa2JKu5DsSG1QAl1OlG34G6ZOAK0MmUbUmvUkYNCw4bUFd7AIVefQxfKAEulEFt4d90PedtBixijd4igD42nHCJMulUKyToE6rztoDVJrnGFBK3QKNoVGmaNNtFSbVQBNPTv6HgvUwdEWRVqtqxVGwdWUGbtNoeqGwh0OgdPArpmQOALVOwKyv4Z9EE0gDA5ICITDw0NiUGVOFMQn3QAIZXBvKuqNjRPBkOsOANxt0xdU/sKMiZOPh6EIx5fW9kzyHcet3GUeMM+BF9Pgd9nx6nhHfsZQoi02Q9bJfkCABHHtl3ZIwBpd+yYKpU6qE8e2mD9fYi3Urx9RmxKRXx9IrCfiGvZMIi4xgBb9RdNqObHeI1Qf1U/0NQe1bMM2bHCcwH4z1O+aTDAxn5szdujfkWPt4UfQPw80LuyF1D/QDn5+mS8Hy1+tF+oPsHL33rZcRv2jq8UbwXwG3tpqnhuiNHH3F3ZCxJpH7RnGfC6OChEUECRilshvTfE3OQuF9LYEnVhdgAr5Oj1jTogEi0yhZQhi9ZpGyjNCaKVeY4FOPdUcvlBo2sC4u1lHJpWCgrpfQ7TbNIoM8B2717gqM5DJzWNKdrd1gVOS9WhyTkooQFsaMTBqWudZ1hdOymrWXXQ6jIpolXh3oafYod9TGiJlH3rNGtEGqLnU57qiqZ4n1rdIE3qru62ri1SA9hgLbsbDAW2WpVmd8zXBze/7ZDGAXl1oEXYUAcnfrPApNWh2aS1M+gwyMWrNbkcS952qNRsDoLlwqI3rYMqLHQfpAPaXV1oZxLqdPM5sMAcZKKyNsq2dSHkJFIeE2NrN1T7fYGKTdlebJsZnoly9xIpQMa4Ct6rPdr+V4G5sgf5LgI/OHtUfxUs0/dRPVUQOYpkqODVvnh7RPJVPLdEWP/rAevaXwEArRMVpXGjsmWfxdk3QKZaT7cnM7wXWA7E7gg15MZWf90Rs8C5/OEb4Hft9eF63Xx/eHw831av//fX0/rqfLUtn/8C);lineShape=1;" vertex="1" parent="1">
                    <mxGeometry x="316.720608615956" y="85.02148916613154" width="5.1079939131003345" height="7.016172515710968" as="geometry"/>
                </mxCell>
                <mxCell id="109" value="" style="shape=stencil(lVjZbhsxDPwavxISqYN6TtP/CBCnMZrGQZJef19uDdkryjtB3nxwliJneGh3cvP2ePey33F4e389ft//Pty/P+7ky4758Py4fz2826ed3O7k5uH4uv/2evz5fH/6/nK3WC6ffhx/LU/4c8JVKnUBcfh7+kEylfL/l68n+6fD88q+US6DPSupbNvHRNxGQKSAAEqsAyBmam0bwEI8HikG0goAjRIPAHMQtu2lkIbRAbW8bZ8yZRnsAwXw/JwoiXt+SNv2hefzBwX2SjGNz4+d9auAGjzJsVFj6CE7kk0nwEMRCqMHMVIAyTl30XRAahQwCcElqVKNgGUhHY9UcFqZScagq/EGPETjLY6ATAkJgzSP9tqJ2XLAo1BrowIcmDDLqAyNlEFWxSIcY1aBtZaYigMUYlD+VgwyNiQ9i+u6lDLF0UMLsDxr8kdqAnlTnjxYUwMe7MR1FGs7q/F6UzWm2XuoIK2t9o6yBgCxNusBPB0JeTiX1wqAtGSA6o5USFA5hDAFUSkCbZiLFj2goaitqbggFOdV/ThcHgGCsAO4CjIAmoeWlOTGW8DjwfIuYXIBKmJRp3hARvITEvVpQv2+se9Mi75QXq0NOA+V5AMPruYKHBAWQxrbt+WtgilqWZLkATCG7Me0PUJRDIVK9IAK+oblpFYPQK3souZVDGiiXISwSmtA656VXPIARUdqfVlbMV3xkcqkJahW06ZjuhGjGtWpz1ivwsTp1AUaksZnAVr9lFtqGqhVp5Xs0qquTznuB1jxgJi2lSxP8kZ7d+Y+cc4A7ovy9V0g+qXPJnUBvdKWSLfZL7sAvju4JmDbBtpnmm+tmqD9NLGMFzRF2bNWcU6b58BoRKTZXu5W+2LVBhxI6FeLM4D7ZnCdtOBX+2UVBx5S88JLVh1gSOepFqRCgJ2YxxiWOygCTKu9EamoFqKXdjxPi60YipN2D2qrdhzRBY7DdF6MLle+CM5jrDV2z2d0xU3Txgrjtb/jONqiwP7Flr+xy1utfnA1cRmyYkK39Fj6uF/dQdFKHHOfGmfdFdiOTANuFppQGVVn8u1oUTbyYEl0R9LeobYA7pZrgAJ4sCuiaxgGQMTFSDx5QMUWQ9/6VwC4c1Oq3j6DmNXzbPaoIdlmOpGA3k1UX/smCzTLq9/yBNfyZ9+4fWxvHy6v9x4OT0+nt4Pr//3rQPvp9CpRbv8B);lineShape=1;" vertex="1" parent="1">
                    <mxGeometry x="312.3893864423315" y="70.86733577800601" width="5.466392983040128" height="7.626327048045358" as="geometry"/>
                </mxCell>
                <mxCell id="113" value="" style="shape=stencil(lVnLchw3DPyavaIAvnl2nP9wleVIFcVyycrr79PMFsdDcLdVvq20wA4INhoNzCV++P746dvDJej3t9eX3x/+fvr89niJv1xCePr6+PD69IZPl/jxEj98eXl9+O315c+vn69/f/s0LMenP17+Gr/wz9WvN9E6vIL+e/2PJWn9///8enV4fvp6diiibXUI3CGIpdVBxeJ9h9Ykrw5NghH7KCUv9kUs37evVXJc7JNoIfY6v572QVK6b19M6vr7Jqndt89BukuQRJLQlCRkH0+9bx+z1ObOW0j8oUpb469Sye8HldLX+JEB8gAgzF2wFcnkxvp8/nFgo5ADRNeAxpGUZEhSWOwjUsxO7GsmGUUE7Nfzpi4WWDxxBVyuosQe57W1AFDDBNF9fntccKCIs7Q5dEkkoYBEXzPasmQSES6o6+LQgSpSNAC1rSH1RKssBclrksBknYSEOypr2YArGSpykWTegRVaCZ6IOtJAzlBQiMWfgR26mnTzWYrk4iqowYVkM8jbDiCXtdZA30awBIfgHEAHLKTob7rpDPJ2lrrE9eJqkUboBdXiOhSeSRm7Tn47HHRy7G0H9YxX2gT8PbS27h2UYAn1EKt3YF0TTTW6kJA3ktadxYCuQBxA6q4vIK2F0UyQsJIALi6zzi/F2feZhdvX4HPUUIGUh81BNUsilGGeJhuAQn7ffIJg38l5jy5zqjUlwLapg861SW5MfeMf9gR06vmrHWryjn1o23lpPLrlhwkL2Ku3Z/ers6ue7AMB6KFbT/ZKyl5nQR32hVY98tm9PVNe6pvmsKd4C2GzZ0JtEvPJvrGK97Q4zssK3pMc8sl6B7pZ9vaJntfnp85R4V78W/2yxmG38E/rN+z1SOzVDwbv1mPZ65fiLW75ZPpDfZ8c+aHx7/VVaDx7/TI+Vz+KDvxwfvgpe9sG0fTOHNFcfwGimLTx9VibJIY3nddzOGQqVCxvLTjMM91u8hg915CgCjobharH6BAqLEdowm5Y4eosoQtX78BkRDYvGKGbC4Fpbl7p49CZzZebkEBa2cVBHjqmg7Jhcg463FOX0pGx1q3XJ1o7tXrxNPYuJEuI2E9cgc8S0Zd/z3TMLAf6T/NQZcI9TPo5HLiGxYjmFIipUrhiCnQ1ikcwDks2W/B5bGQFkfw2AWli6MO4n52D8bZ2DOunvhyZjt2Fr1K4Hm3mVA+NgC/530dFGeMxL0QyFwrqofrOwkX9JeMWAxX6ZbWPoH62fPAT6aB+tgL1g9CQ8qxRbRw5mJ8poz4XbqelLF0Klo3n6UJn7GfWB8Q5b95jebcxMiqNxtJ0vWJex6AKjc6eSSMwdjEXj7K1RvNaKlDp3o4d7I+lLFtptu5pha8Ee9xIYibgtv229DWj6zHQYFsxChAy8QiH7p6Q6J7+RM0nD0bvtz3YBDiCSt6BSbZx7O0UjOpGu1iBitJkQwIcXBeEAyMvOATbHNgbmeZrBw6BPaHNnJwdWJba3JOcQyLlP3pk2rLE8PrT763ed8CHH6/Jvjw9P1/fsp2/96/V8K/rK7n48T8=);lineShape=1;" vertex="1" parent="1">
                    <mxGeometry x="122.50954147189935" y="45.44770771516748" width="11.396805713214617" height="15.619052398691737" as="geometry"/>
                </mxCell>
                <mxCell id="114" value="" style="shape=stencil(lVfRchshDPyae9WABAKe0/Q/MhOn9tS1M47bJn9fXa+4Bzjr8dsZr0BIq5WY5OFt+/S6mdi9nU/H75vfu+fzdpIvE/PusN2cdmf7muRxkoeX42nz7XT8eXhefr8+zcj568fx17zD+2JXCpUwW7H7WFYcafm78HXB73eHNT6T+AbPpA7gAwVt8IlcBHhH3OK9p5Q+N8hChVuDTBGckCLl9oTZJf+5gSqxNAailMEJMVaPq0FIdYurBiESt0GNiSK4tETyrYGmGuerBhxJW4OkdeWqgU+VBtUgB/LgDpamfzG5GBRK4IRE2TX4IhAfqLRpK0oJZEGIW3+M6ogXQi71eOQP19NXeMQK7gtnLj2A9318vHPkQKl54uECBZSyo5QHPCO8DPgMAuR6jhpewYUvt1vhQ4Z47fEC4mPKMvjvA8LrkGCkE558K0SmlQVVDGkY8MB/Jq/37G/CLIP/IL9c2bKODy6wIb8C4iNX+BkAP6WevuYP0jjKw/6In0xhrBeYrzLWC/DfU2j9v1XArm/FNxTCURwKBimQFeRwAaRwrtJlraCwYEa8gITdi+eBcAqbXhwUXSigWaU2uFUHE5Rga0ntATaMZFTBRtE2A9aFGZWANY32BOvzqCbDQGqbJBjFSKqmXWYVpYKmIelpbdMQnLekDnyXeUsh7bIn10bJJjp0h5z6KNkwgjpH8RS78YkSOKDEXroYKp3xMrf7O0w87WebS6+6jjcSlA7vwbho+NDjHRryUz/LGR4oozWibkLGQmd45XvwpR8NDA+EaNaR/lHj8f6DPx7Fx3S23x/yoYz5DajTuGEWMq1HBL33FXcTbx//n4wvu/1+eXGu/++fmLa0PE/l8Q8=);lineShape=1;" vertex="1" parent="1">
                    <mxGeometry x="135.5268190101365" y="43.90721545821046" width="7.438957962168917" height="22.140828015121343" as="geometry"/>
                </mxCell>
                <mxCell id="115" value="" style="shape=stencil(lVjZctswDPwav2IIgudzmv5HZuI0nqZxxnGvvy9UD1URlFbNmw+sBBC7IICD3L0/P7wdD969Xy/nr8efp8fr80E+Hbw/vT4fL6erfjrI/UHuns6X45fL+fvr4+3728NkOX36dv4xPeHXDVcp5wnk3e/bDyFSlb+/fL7Zv5xeO/vienumEqF96ewlUarb9uzIpx7gKSAAk3AH8Jk88IiFRHqAPsIBQCLpz4gjBd4GeI3B9wBHLgBAoFw7QKSYgH219p4ciEAicZ8F9QcEEByFwR48PwQq1h8PchZyS2mzT1TB+ah9Dv2BCiUEiO3v2SH1CAGYUk8KpZ3P4EiTZVEQYpSDmQJzjgN0yQv5XmopkgPSVJ6GXjo5UC1Qa6F/Q8HHqqzspVYdJSA1VW4fctUngENVHfa6qbmlZcMfc6STPVKyClOsQxUIjQu5XghVsww80tpT+hyUSgJyIMVKuWhUQDtRY+iTUFxLyyogcStWMy0SVH9mij0tspYXvw1QB3x/SqnA+lUyxWipjRJdvWVqkkb2dcAc4gxQhSNAacyc5VmpooutUAkWUMAp1UocLSCDTCsgjG8A8lFAMmVViw6KYbidFYCuQgXUAZAAlybA4BLsLxRgMs2wTCogewtAepiOtVhAxkFzHQAoccVehxMAFAEFpCHohDJdbEsyqRzT2w96YBwD9+TTxEHyKSBZQMQCslXDwcZNATZxuI1RQB4UB5vVOtzRuxKVUaKY3oktAN3RdX7e8pR2FDfmAV6Kc3O3TDWuZNVwgxtbNjU6CCLgY4oDv1Fn8nFAGsqGtEFiHSCtlC7uLBR0GRWUG1u2rtHSx5Ad7EGna7k/1iyN8eutgLe3Ys4QEGcizM2Gb/PZejujgjDtTGod0XrDVGzTWrkNK1stWTIA7XJRU+koG0CGlSy22WW2r7DLZRvBQlGrgEFvUzlHIQ9tboDtVbCVWHtQZK9Vz9h7WLl1/GXTIApVUDA0gmJunwArtx8uxCiwMZFgu7GAiaojrunshWHQIVjtaFQZ0CgkWzCmoRW5lCwv5rF306NenNKWM5tTff98hvYSbTvJ0B+dcDMbfyKaleZN02ILgEjBtsazlgqk/GEYm1Y54A0cWsu/yDFaTGhGLSkyvHbYDznzsNPTENOwQMsoBm7F6j83dOMbdlaAK29IuGQPiVMAWqApwEw+CkBjhgL88AYkTgWYmqeAgveStsAkOB+ys53ePsBcnfsu8QCAQTvL1p1jHcbDnbyNy2FMjI8vn/fs9cO/TffT6eXltihf/m834/rTbasu938A);lineShape=1;" vertex="1" parent="1">
                    <mxGeometry x="146.01328892781794" y="47.75450196541604" width="12.692757793597478" height="11.79709513862039" as="geometry"/>
                </mxCell>
                <mxCell id="116" value="" style="shape=stencil(fZbdcgIhDIWfZm8zQAg/17Z9j85U606tdqz9e/tmZ0c0uJ47xP0I5JwEBl59bp8/1kNwn6fj4W39M76ctgM/DCGM++36OJ50NPDjwKvN4bh+PR6+9i/z74/n6ctp9H74nlb4nbmSKZeJCu5vngmZ6jzzNAO7cX8FVKEsBuBKrgKg9oAE8gkCbLeUhEoEQKSUDZDLeWYRKIl8MEDRmHwfyBrBG6Amyu4+kDxxMoB3jhwgYu7TVAsVkFcWCs4CTBEoF4RctKeOxHIf8IXYpikHikAIf+MNUW94AGSSaoAoFIE3AlOyeWU+p2E5S9yfQZcQILVuQOwZdJNoS9Ls3wA5u2XZTIHECqeJ9kDpSaauRiNVcAY1QhdBzeLBli5WazpkSsBLV25uRaqWRyFawTQzRRIQYirJzq5atkBqLfouwqUxLBepthWb10vrWZY6UOAeyKCCtDV625mm9gmUC4Wc3VLJMMIE1BsA2FW9JraVlQB7n3c9oMKhCLEvIM1zBPZ25/umNQ1tVEC2G+fFCC8g398O2hNQuQlVu752DBfA+q0ptnqO5JFmeuIuo9DY7KjY71UxdJV4EntifPWorW++R/dC4t7V3DlIB5cHx2bc7eb3yvX//QNFp+bHDT/+Aw==);lineShape=1;" vertex="1" parent="1">
                    <mxGeometry x="157.89540257540523" y="53.85381080949742" width="1.262848587058166" height="1.2608746530695252" as="geometry"/>
                </mxCell>
                <mxCell id="117" value="" style="shape=stencil(lVfbUuMwDP2avGpsyRf5mYX/YIayzdBtmVLY5e9RNpNQy41C3lL3nNg+Orqko7u3/ePrrkP3djmfXnZ/+6fLvqNfHWJ/3O/O/UWeOrrv6O75dN79Pp/ej0/j79fHATk8/Tl9DG/4N/IQYh5I6D7HBQfO/V94GOGH/ngF9wjMFd4D0zIeE2Cs8AQ+LuMpAdX4AN4v40MGzgrPBj45QKrwEcjAZ9k+K3ziZTxziy9hGV8y5FDhE3hDz8IQUoWXBQtfJvnmeEVwxgWEkGrCoJBNKFhHmAGzYSE3W2zWCNe2YCWS2MpStWiVsshk2FpkLfWROEMsJgHrWxecDrkU6FBqAk1K3yYkyHWmcTGtLQSvCN4+UoRc50J2EG1CVIHL4CyVGkLASegfHgkllEa9aC/t2SwwrazeTa/4YeCkRG1yRgaftlhPamzALeaWGmw6qUkfIsjbMlTqbLITThWB5CFbYWjKjFTatKmQcYCyqVIWD9EOtPKeZCgbMrW1e4XQNocSwBneaLuPEMjwRtvehJAMt7b9U1LQG4S2QQuBDUI7AUgKsmGNdsQos263d9AjzJV/b+8AJeoNonUioKRFtTqcm+531UysjHYQah+tdCs3Vbg52WbrLuB1v03gzPPo7Cco5n3VeQhX9FH3FYWtZtvo6eeQL8VLz2CWPI0dvNlyNk7Mq3B5+B7On/vDYZztr//Xw7wsjR8CdP8F);lineShape=1;" vertex="1" parent="1">
                    <mxGeometry x="204.79354457059185" y="227.6551477684684" width="5.466063730028937" height="0.2826283941102898" as="geometry"/>
                </mxCell>
                <mxCell id="118" value="" style="shape=stencil(lVjZctswDPwav2J4gcdzmv5HZuI0nqZxxkl6/H2heigJoLRJ32R5QYHYxUEe4s3r493L8RDc69vl/P3463T/9niIXw4hnJ4fj5fTmzwd4u0h3jycL8dvl/P78/3198vdhJyefpx/Tiv8vtpxoZAnq+D+XN84Yv734usV/3R6XuFzpJYM3ieAr9SKwTu3jy9MLlh/AL56Snp9TzUCfKHKCp/I5X18i1SdwhfoT6vkNd4Hcg0YNKo6oL5QDtDAa4MQKVdgkImjMoiuB3nbIJDXHMRMAZGQqWoSku+72mPNqC5lKh7IIlPUX2BHCekokvPaIGCXZD3tEou0AHGy6aKZ5kgBhzVo6XGmBLQ6Eac3nR21D6ShicsZRsm7ORtneQdKgAjRt9M+lUoVJ1DScq2JGviCxNXrLzRHAYSpzHucDRKFAmoS2023Qh64JNIx6pMwVPCF2GxVEmoKiFJgipq5FTXb1AVrIZ9gIA7Bs8V7UOk9cbZ4B/Cuy2AdI+CPG/ypPWg7eDfgsT+mkQjJGZAsIksW70FZdb1gzXipgmB9TzFbPIOCJEU4WjzK5WAb84QH/sQN/xlINA18Zdhpk22cEk/URNgW7IkvEB+pIoPeHOArUR70gzp5srV00jPwR+rckI9osgi9y386H6sf8KhA9Gis/Ed1d56zVvgM1ncb8UH8Dp1G+EUl0dkxR/AR1hMe8gU1S7+RX2ju8nbGmfIL5m+uFh/BPCH4YX2ElwaQh4JSkENMPtuIIsZi7Qm+DimgTCYmM/yKARp+c7DDr7TuBJJAxjrftIHwArJeJs2i077W3sy3DYYBvsbOzN5Y53SUZCJCQp0mIs2DzFwFbHoaHLVLucAo1WZH0zx3h0/OXNx6Ods2EPHpTctBElUjOddFTRwzBUCcHBxNvWPpKEhL1UZJjggooYu38k64I8igaVI6MTz8iviadinNp4zdM4XedOQ+b29Lw9kpLTQsvtCHoNXpkdHAHywPXuSNTsB+GGUjrBqScabz+w+iNLRa6SRASpKPyYgVOiRFhu0dQQU7zqkPKgseyUJSpdn1UTovqbXCo/VzP/4seKQJyUQOBo+q9pKIs0phJxe84SvCEsxpuOGAnZznK5wFj/Qzra/zWPIU79eMRh7ekfFwvvS9vO7hs72DQ0fq5dpgwWeE/887vo/x8rBcKD6cnp6u95Hr/+0FpLy6Xl7G278=);lineShape=1;" vertex="1" parent="1">
                    <mxGeometry x="211.30180756249274" y="225.0228612108878" width="4.943110703767099" height="8.977796474411493" as="geometry"/>
                </mxCell>
                <mxCell id="119" value="" style="shape=stencil(rVbLbhsxDPyavRKSqOc5Tf8jQJx6UdcOHKePvy/VhbaW6J3GQG/r9YyW5JAjTvzwtn963U3OvF3Op6+7H/PzZT/xp8m5+bjfneeLPE38OPHDy+m8+3I+vR+fl9+vTxVZn76dvtcTfi68SNFWkjO/lheWTPnz4vMCP8zHK7hLlH2HD5TDNt4b8qbDeyq8jQ+ObOrwTMls4yNTjh3eUQTxpEjBDHgP4ilMrscbMiCeEojTGI8D+ETs+vqb9sXbhDwKIIoVDwiFUl8hFs1BytasKa4aO0oWfiJwR4iZAiJk4tIRsmt1u02ILYBGKK7V4TbBU+yzroVDQksfDISCkzbEvRBV+7xNyGtN1qQjMZA6J7K5IyQmD0KS83xPCJkMCkkRvDTTXSGJgQQgXE166G+mCAxGl9XjAVK6yfyg81Vj2OY4H+w8KUG8p7Vtoojncxgets2jPjqfXlwEz+dgAWKbjIqkTCZJI6EqKRvLhTIKSflkPQKFpIz4qg7/iaEvBwkKdbe+fWoW4PrR11vBHqDvT6kcUkJf0NLxFoSkFgARvwDl5PNuTNkD4Xg0ANEFNasbVctrhLfHgWw/PilRAp5nmkmvs5Ca42zgx8tQNh6Qrx5OqT9QWMXDeINR+daK3VNPi2df6RWhX6t2cPDmv3Pd/CdcHv5uti/z4bAsxtf/j5uwvFq2aH78DQ==);lineShape=1;" vertex="1" parent="1">
                    <mxGeometry x="248.87208351810216" y="297.93728763773754" width="8.537526070370083" height="1.1629855801660436" as="geometry"/>
                </mxCell>
                <mxCell id="120" value="" style="shape=stencil(rVbLbhsxDPyavRKiKOpxTtL/CBCnXsS1A8d9/X25XSS1xHhSA7mt5aFEcsghJ7l52d4/b6YYXk7Hw9Pm5/xw2k5yO8U477eb43yyr0nuJrl5PBw3X4+H7/uH9ffz/YJcvr4dfiw3/FrtlGpZjGL4vR4Equ3vwZcVvpv3Z/DIlEOHV9JyGS+RhDt8Iq6X8UlGvFDUy3hNlGKHj6TA/6zE0uGZCvC/FFIZ70+X8U2otSGfIQC8UuPh/hwBvlAe/A8U0QOVWk+wRdxQBI1KH4Hk1zffNeDwFuJbTUQqDJ/Q2hnkSooM6mhQra4AbZam0AfRIlUUtVLsX7A3K4jaiJbUGzQcNFPKvYGSgFaojar2QWcSQHWtlHuqi1ACLplB6F9QO0EuOYNkxXSVSzFDvfBBs1AGDe3TmnADOd6sf9D9rjCY+KrKK8T5mtJma3Hcn4OBMCng4J3+TOVVZf9TArJlDSXJiUyxSsFZGmRsIR655HTSroAuOSE+y8MnWfjhYE4lQLafPpa5CFTGj7flBZAnPz9bpgIGqB/QluoKGshvAM2cRDGMG4aVF6MQKOkYcgaiJMRDikz1AN4Uy8lqAaTx2D1GO9K8MApMxpT56Wm1Dgjw3ZygaDt/jHKF+Rnut5WEkb6M+TTFjkDAHF8Zzn5XDlawIDtX7rMfwu3j3+r8OO926+Z9/v+4atvRuqbL3R8=);lineShape=1;" vertex="1" parent="1">
                    <mxGeometry x="250.64269756859449" y="302.0633450880581" width="9.521425097833973" height="1.146164797171958" as="geometry"/>
                </mxCell>
                <mxCell id="121" value="" style="shape=stencil(rVjZbhsxDPwavxK6j+c0/Y8AcRqjaRw47vX3ncVCW5PrHadA3xyHY0nkcDjSLt69Pz+87XfBvZ9Px6/7n4fH8/MuftqFcHh93p8OZ3zaxftdvHs6nvZfTsfvr4/z328PU+T06dvxx/QLv2ac91L9hAru9/xNrJLnbz7PgJfDKwWEJr1TQKgK4LukSgBJYlaAJpnEhyouqHgnqW3HpyQ+mXjntuNzkK5/P0gg8cWL7yo+S2LxXZzOaJdctuNrlqb34/PIwFVAcyPfywHCWPI6AAfUGcKWGtlS8+KaZlETT7ZUq1QNSFl6JIAoXgNylEhWKM3SrjgJDBCk6bIVEIsQO1eJegVssjBAkOw0oEtJhKkgvj50K9IZVauUqAFJCukFcC/rSrcojmwJhevdnqFnAgARTJb8WHNrS1XTu4Dw7AxOqj4DOpABEvRHA5A3RxQGkli1IqGUnrA1lMGchd6ValIVr5mRHNW8ZH8/dolMte0B4kLeq/HOSnBM0okAOCthMUgkCXK2/SEwlbAo2EZAxjJrhNHqSzw4ROKbJBOfpJH9YKi1bAGVsBoSbYbONBXYFKwj4QsAvU8otK4BcurJmUEKpzszeilEISeAVhewIhBWYNB3TetYpDJAHVW6mCO0DqClTisahzaCtwoJALMvbcz6i/hGkpRXOcLoJBsKVotwYkfKjM4xGeLMXrzNEh8lkP3AK5hOdqP3NpSlmc5sw/5sKJcZy6B1IPF1lPOib1h+vFv5Uz4CQSHjXbACE/d/BiCDRt3xTSccSl6S7n0UORB1gReqK1Z70mgYqcaKwH8xS1jLqtHAa6JfrVrBy3k4gauAjlbWhSuezoTebaWrG2tuUGPVDJMBI4XoUbK5iizuZNMIGy9feCGKvbzgWIGkKUPfNPsujnWdfsv1Y1kiD9HZ4mvW9GuL+97yRzavgdp/ELwZc144oAyTubCpcxn2Y9Bc3heYOS+2q1OltyrcF0zlYrkFMBcMiFtnpa5j4C8AP/i4lSXT1b6McXS9cJBGnVaPLBG6QtyjWaFTY4sjNmNj+HPBBFhZVfYgAUAxdei0HyYftRJLdkEPqws3+MvubZg45maYwrAd1wHB1iFF6p8nG1AsgN09fRsu5KOAYl89bmwJDtc6JX5oUM3c226k1Yfx7w8WDmbPqMYNavyH17AVAB/+Pr49HV5e5re7y//bxzp8NT/0xfs/);lineShape=1;" vertex="1" parent="1">
                    <mxGeometry x="265.7781162296567" y="294.2914012787903" width="8.086540530621948" height="10.48517163310374" as="geometry"/>
                </mxCell>
                <mxCell id="122" value="" style="shape=stencil(lVnbUhsxDP2avGpsyzc90/Y/mCGUTClhgN7+vnJTb2I5e5K8LRudtSUdycdiw3fvT/ev201w7x9v+2/bX7uHj6cNf9qEsHt52r7tPvRpw583fPe4f9t+fdv/eHk4/P163yzb0/f9z/aF3wecCLFrqOD+HN5wpBT+vflyADzvXk4BkWqygBjXAbWQEwtgAQBHaVqBwQrFk4QJ4NcBOZCLFhDAlpKnlCdAXQdET44nQF4HsCOZooQAIVCYV0jrAJ/IVwvwKNOUjT1TRVHt+z2x/8+t8zGi4Ef7QBnYB5LR4VApFxBSS9TgqTLaj4z2vhKD+GS7f6+lAThRKI2k88oqVAdURvtKEbgrPTndPMGve0dlTG/oL87be+Iy2GtdQ/bU8fPSw7USnDiae6YI6J87dRd7fQPYH3vqF3shB9xlKmM5ang86EGh98ATcgZsb3ocQ/IwuTH6XCmhBtR7QbePCcY/kzPsCT0CK+Q0xZ61gSH6OJuArAkA1a75T4ZvGXqsBODR5cqwfpUBPOa4Cm5A3pJCGG5Js2ZahJ6eglihpB9pLYkY9CwFJLGACytkA8hUkNNaCWZL2sjwlvKYOKk9M6s+jLWjosSBTqcAzhaQQaYV4KcVYJT0rPETAJSDAsxhqYCCfAi24R2V2BqAow1rxj6YEtXE1VsBDvSMtqWxpiXDJtOcNtRIPferYZ0ADqsiGeWsRHjoN2rwBLiNfIuwupbeqZfUagFlG9aIfSiGrQVKwTNNoMLT8EybqV1drTYyE1aB53lrlcEC6oVMj1vyzsETpQmcNC2Ba/RGgLeavJUcKAhVmDZz3FXfmog3p6JeryI6RqfGpNerDOIq9pwuWiFQuPnRg5zgrSLaik4Zd1bK4/ejwKuat0JGr2ICisfZ+ufUr24r9m5sMCqFEuCE67fpxX4pvpX9sxG2AhkxHQtKESTEFsWy2OsXoJAU04FherPVVCrLAdtKPySX6MPhg6rIMO4el7xeWiQaezQY0Fgko1IpAzL4iW3tmgSyq9VlmlaE8ald1yz2BV4rij2R1eEAHMiW/a0Pg+9HiqO/uqLAa4Vhs3qE7KVr0cVe+oqrQw2xgIIliGnRx4535WDmAmAe/TQAIPU8XDre5a8cXzWnAevmAVnA6nQewQXcheYh3zGVV44R27wJrDAPKhWQ0EEmVmy2FUDiZPn5NA94S7Z7OSgFZRqKKODClsTM1DzsFyca6AQBFcUZRIDj1jObCp1f17rNffxxbWC56/orU9eGodgHQ442xcZbunFOfhmgD8ex/OPu+fkw1T/93Y7x9dXhXwD8+S8=);lineShape=1;" vertex="1" parent="1">
                    <mxGeometry x="143.3113509576607" y="246.6534244977746" width="27.58589272361941" height="7.812472597453638" as="geometry"/>
                </mxCell>
                <mxCell id="123" value="" style="shape=stencil(nVrZchw3DPyafWWRBM9nx/kPV1mOtqJILlm5/j5gtjg7bGh6lLzJa/TwANBsgLzIpx+PX74/XKL/8fb68uvDn9evb48X+ekS4/X58eH1+qZ/XeTzRT59e3l9+OX15ffnr7d/f/8yLMdfv738Mb7w1w0XXMwDFP3ftx/ElfDvDz/fzJ+uz6u5LObZRWqe/GLeJv7AvPbFPAQX6rF9dHmdTcjUflvbtI/ehXJsn1xfN0eX29qxfXF5/b5E58n26G6U1b65xPZHp5sWQNIpkgXr/vV1R3OgKw7i6rqEXFyPBKABsLq4RBc8ARSX1jWU4ioDVJfqAqjetU4Azcm6rTW5wkboLsQVUF1nYd0xUJtOiQWqxyk1cYmsQQFtDe2WXWEjqF9hStu+HQFgW1tzPVFAaQuge+ppBbR1hB6cZwDNFkEAXXTE4OtKCXyEsGZ0l/nL4Ro8AhgFKEDWWOoafCeeBkCeNHIEAMf1MnnkMPgMgLHGAICn66SFj06JE5kCqkdAZ2uIc8Y7APVDxpweADalijmtgEqYT/zkiB0gs9MnzSXud4lsqyjNNASw8zO9N4InU8oeyVg9zUggZ9c9AhrZpRKmQPhgLOlpkMwIjL1rmKG2AyQSGjW7WhEgJPhqd6kgIBLWaNFQZaU0o+SezC554mkl9waOK/TIat11QUAloaHUWyMCMtlWJcbYECBshORyQQDbJSXGAovmemxsYkFAIGSsgGzZm4/QgDWEJtDIYDiB4nTlESBDPmxHzBEAgk99H9miG2q+VlwhwTdGAFkvZyPI6jhNKVY33EllA+i2cj8A3RdlPratZc54AwRKMxo5si46J5pxGjlh9UNqPLxlqqMNEGgxpoEAJCB58vn7AI/MF7trjJcMa4yCjwNAhg5BRLhVRSeQQOBHVtv8ui/6SPApVWKVqPRMEqgZ1tC6i2XcSBdT5pJgVXsMVuq2ZngvUdprpiYTytwtociNkwaP7OGIDlQpqb1vYB/YfATVoe4/CzrBo8rzIFUJH8Cens6CssrzEE2zxt7Z8/0Bve1pnaT2BedP2wwJ2dTPCD+y7zifwMRIRv/q/rP1asLi/OXk+xXsWXXRjAz2Z/EM0l/tGaOkmU53e3ZeDv/ifArL9zS3e2fP5r9Jjt38mX8F891TwdxMU2grED9sT/lQ8FjyZ/zQcf6sETH4B/1LxbX6y+QX/37G/T/Jx5rRnsdDx3ig6814gHl+Qr6Tj0zO/Q97Qf6n/JNnHX23ZzpI7UGER36eFpRyQrtGal/X/U/zADkSEBHPd5ov1QhwWuarBApGoNAEa5OfdhKItSqGjLMii+u+Ai5r9MxTKQo+iCdlTUDdd3L3MNTxGnVD7DJAxHb/kNOsJEio41Sws221NcQoCdiUCvY2tOhgjebR+oDQO5mShtrquFE4sSk1FAdVaOuud9TftfMivKNcaULDWwHQHDwpYIP3WGppAAtbdTd1fqCaVAHV1PnsImVs07rqEV58SqC6NLzYMTWq8IqAwjxXTWftpEFT8OAcAcxcnSdJ7LtSvEYuZoTOAMG0RLdWwRExBdN/pORa3xkhMbmW8ZpwtJ3YeRVdNSMwx1WTcqPpygDZtBMrLTFH09V0y1nwjbZuRgDzw2gcm45/PGlNmxFY/zF744dGdUDSaDUjFBJ80k23vNFmn9hbi06lkgSUYgpg0RqbybjOr8zy5LkdgFX7Kqag7zX4md0ehVl93OUMF9xDL9shiCNUjCSzahZMCgj2RotfOqMjKr/WtiOc3LRb+i5zG44AmNSZP7/o5jYonV3jYTAJrWzfuSgUKhNH5Que5r2pcbMIawhnd5d4FRloNTaKa3sPzgF4+d9oM9uGd6t00eM9gnktwBatgGjeI7AjSGOpmBcPJ9EKoTHeVLCnKhWnNF5tsJwumA/VcxLIs8u0Sd1CT8WQUAqMty1sDREbweP1DEtRj7IyB5qiHYugcSYRv1V87yD8iMvY2R0vmOiLqmbuBzpjDMz/0TqgD8gEXoRl2lr0ptANsxd+YB/XKOUaw/AdL0FNlcEf15mv85z02BUV2sXz2DQQqlI9yi+hPQxvAoeWR8qh+OyQdYANR5+ZN/N1OhmoaPlSA7IC38iAcoi7KcwA/FgQ/Pf3m9xc/7g/Ff12fXq6vTTd/z8+LdWfbs9S5fM/);lineShape=1;" vertex="1" parent="1">
                    <mxGeometry x="78.1328640901703" y="213.5516875760121" width="30.91246396211947" height="67.93459766164906" as="geometry"/>
                </mxCell>
                <mxCell id="124" value="" style="shape=stencil(lVbLctswDPwaXTEkwOc5Tf8jM3FqTV074zht8/eBqlFqEvbausn0LonnAoM8vG2fXjcDu7fT8fBz82d8Pm0H+TYwj/vt5jie9GuQx0EeXg7HzY/j4X3/PP9+fZqQ09evw+/phr8zL1BME4ndx3zgiN2/g+8zfDfuz+A+ktQO7wCeK7n2fqHM1/FSqLZ4T8Vfx0dHXjp8itfxSa8LDZ6J5To+R3K5wYfFwIv4Gin29kRwf029v2EJ2GV8IW7t954CCFCtPUE9LiBjSugiJJkccMG7rxJYGJEpIacrpbaIUqYaoNe1tal4kgIIuXeiah7QC4li64NeIYighRFbQiFfAUEotZnWk4oITKEllIhfUBdLQ8hMGaXak+c2cV9xu5MQmDxoN2sSZ+JVTvuAy9WENUFBsnnDAmMLg5cH76y8QiGvKW1fVjaP8KJR9/ZnyIuK3ykBiamidjMikzXNKKpGxop6jdJmdFITCSXDCHG9kYi1BDsaptoCJtnZo8WSwQt2uKlJAtrNTs8bomTHswaaQabt/D8rr4sMs2BM1QXw0gvA5DNoOBWMLkaBPNpgKPq28jL02FHuRLVABdP9qa0KnW1IMOzwxAJmmxmPEWOPygUabMZfjVgGrWzi6RlueCZf2sdrykH3O2D9ynX2Jlw//m/OL+NuNy/e5//3m7YezVu6PH4C);lineShape=1;" vertex="1" parent="1">
                    <mxGeometry x="85.21784410322661" y="223.57943174903454" width="5.089872184030698" height="0.4695573970240406" as="geometry"/>
                </mxCell>
                <mxCell id="125" value="" style="shape=stencil(tVjLbhsxDPwaXwlJFPU4p+l/BIhTG3XtwHH6+PtyYWhtUbtj9NDbxuGs+ByOdsNPH7uX9+0muI/L+fR9+2v/etlt+MsmhP1xtz3vL/q04ecNP72dzttv59Pn8fX69/vLZDk9/Tj9nN7w+4qLJHECBfen/eCuP3y9mh/2xzvz4KlIZx/IuXV7ZuLQ2TvKYd0+ymiP3i+Zajb2Qdbts6PY23voT/Ht+Ft+MshPyZRrZ1/JFWBfqaben0ghwQNi75CvVBgAAnnuKyY4RUKuD4EdMYg55ZaSGRApeQBwzeMZUMiBoFOxMURPjGLQ9/keoH0NAKW0Ms2AQhEUrgrVvg4SW2UWAd4520rJU8jgiEqpnzXNQ0YAodgPT04UKmym0Hdf0XkFUev7Yl9qbeAI8pqYqpkH3N9T2vugqxYfuKQM43qX7jK9XInaunM+opIAEvADySiAQYP7RFJtEBWdIINLhRiUWgG+j7pmSEwKCMECEDMpwDB9TY0714I2VDbNCAIU20wKSCBLyu0+WAAa0mlbDScIaNfAFL0FFOSSMl22WUJDreQbqwUU5JJQ7plJCyegvRUgQy95tNN1pQ2ADFbKlCVT6QpnVOtgyFIBEbDAVOlqAYLau7Sc3J+ASCDbDaEAhyeuDDMtGBCGEa0g6Gmm2QIYxSADzaTWjqu8NMy0f8B8wzwgvaTcak8Q3K3zDvxfAFUveQiawVaMSyTgAUBFqO1WTwnMg+5xNns3472rdTB7d6a25c0e276ZpYBA9lYB5HuXJrGBFFOmYuRMaHlbBrClSklQuarYMOwtoS2xtbSWPmhVEwUELWz1j94/0DzEQNUIUQf1jzi7dlUbF0ACmhMrpnGlVWFx33yhwCtcqk1ZzACGA5S5beVZYWlaQaW11cpwqUE7Ls83khngoUtpUN8JcvHUaf0SFcisMVtRGRsRLnOM8m6070f7Taw/CW4rXU19BbCczPYeUOHlRxburKCBVMB74wwasmD1y4O1aXcaFi+OUm+eoYRUXSHG3AEKGq9skOKc3fjSOHLF3IyJQHrzA7vBVcxNztzMGVHbv30IemiuD7dvTm/7w+H6yer+//Yblf50/b7Fz38B);lineShape=1;" vertex="1" parent="1">
                    <mxGeometry x="92.44259757505529" y="220.8137090549747" width="3.9501228658925407" height="10.36625447154078" as="geometry"/>
                </mxCell>
                <mxCell id="126" value="" style="shape=stencil(lVnLchw3DPyavaKGBAmSZ8X5D1dZjraiSC5ZSey/d9NbHA3B3bZ828c0SQCNJoA56d3Xh49f7k9x+/r68vz3/f/nT68PJ/3jFOP56eH+5fyKTyf9cNK7z88v93+9PP/79Ony/cvH/mT/9M/zf32FbxecRqmto+L2/fJLqrJtP3/58wJ4PD8dAFElOEAUJYBQJIQJoFVCIYAgqc4AldRuA0w0Tc9HmJCICaI2Px8l6O3nt+GQ8Xwwuv4mmqfnm7R8+3Ed/+4OlRKIe3AcnY8jkSwP/9vsno0HOEutbn3mHQTHM0gqWT9t0mb3w6JMDEjmHQSTmENzkG22ABQplQBUtjIzjkc474Tcbc4SIgEgzeYdsISRKMMGm20wpAUJQ94kzjtYlUTSDHleZ7eWJEZsSMUTo4DYLNJIwzgBapKNJHJqkme31jKsum60SZ53aJFqC5xY5h1akkC4ZEXKnG0tDz27CoATHfkA2Aj56jbSawcgo0ikax5x3QGBRro2L3gVCkwC1504U6PqiP11gEqeNQbUiIRLANhsA/wWCDVwJBdpg1UMABWe3WpJGslpUC24BApjiesA3IRzpHOVTNxa8Pcch85fskNRiQ4ALhllq0sgyExl9A7SnC5FacStOIBlD2DXD4TR5tsT0lZIHFKSZB6QGUCvAFjGoWAp7kibJCZkMHGOdFcqpq1xsP9QVRk/kkugrraEGjA6Bg+g2pp8TuNezYRLCJwjHwCR2WDjgjoC2JHKYjSOxHaoXvmwBLt2EaYQF7cyo9tiQ5XCd3Dail+MX4ptPlInH4t09YEDvZl6d58kD6AFVh4p//4UreoBxlO0FA+ILA7xipfoDijqlxSlkUaKziLQI8NTVJdOicYhLoV9EWVcgla7nDbaCvQ4VA9Q5qW9rD2mKK+9fw+Q9xMfdYnQ26Dea4oSt+Lez8HHoRK3luyP1GtlAqjRd1iZN4goHVzgMmoNEjhUM64ny/x+aDaYsxcnSrW1QbZm8lmlch+2pc1FSUa3aD6pUcoyfrfim6BqvA5NXslQ6SqrdKsPNYpvY4DgIwfHsWKjl6mu+954P202xiP7FnwekHc6H8/E2tcoyQ0cjB6p65A7UuStn47S+dBBsPY1LeV6Tb+qyRw3egfxi3pmlmNUy43XM2W2AdUyBZRBzkNDwKYC0CF3peRd3G4B3JHeiq6bOyyDCnot2jLrQlPOBD96de3jImIDDuDHOTCaUEO3MYvZqTGaluvzqDR6pN2rYuT5UEex8zaPMiLeOG706zNRql4xCm3Jsk/mwMs9bO7cman/990P8WIijO1d5939yS6G7LtWRJABcAA3WFKYQBgRbTRThwkxGzfoMvaBGrAZtC5eAoCRCAAnqX3Ax4a4xc/reuPLbCj+gu6VFZuzlkHjY3XId9Clp2SS2lN5qd1YH6DL5L2P/NgOefFSpTMWTV5deg/I4pB8NncA0y9duFTpzPG335i8A4APby9oPp8fHy/vd47/+xc6+OnyMkg//AA=);lineShape=1;" vertex="1" parent="1">
                    <mxGeometry x="93.27495216920988" y="242.97609520201433" width="7.672316232751063" height="10.12747916618437" as="geometry"/>
                </mxCell>
                <mxCell id="127" value="" style="shape=stencil(lVjZctswDPwav2JIgudzmv5HZuI0nqZxxkmvv++qLlURkjaTN0fBigB2cVAHvXl9vHs5HoJ7fbucvx5/nu7fHg/66RDC6fnxeDm94ddBbw9683C+HL9czt+f769/v9xNltOvb+cf0xt+XXFOtEyg4H5fH/goMf198vlq/3R6Xtir+NG+SSHmXiX4wV5Fdd8e/gQ3+iPTX7v2VWId7J045n6R2Ky927ePRVww/ijxJ2XRONjH/mDTPkcJoz9VKrEvcHd8/8RXIwAQNhKAiFumgDBGDJf+vWIbgIyMFGikmsjVAqKTUmmSmgEkGkMOXcMdkDyVHdKax7QmlUx0UYrksQ7AfCBB1yQ6Ep1al+4moAVpYwxZpZCgW7XE5UZrx7tZ+x1RkiQSRMvSxqhrEE98qk3q6FMtVBulSRuJQB4cK6AqTUdAEk8KIqVeYDOg0LxGv3KpiRJtoCXm0aVFprcRxXKNIxprk9mqCYDE+iSSMhIBuVQGQGPKNk2NtAE09mZOyFILPcGvmKvshCjVZGl+spclpxbgiDbAQzIA3gZAtRlXANDx6aTm1QmEaQ12oCAGTwpC1U44ABphGt3a1xUPJEsaVy7lrt89l6y8oSV2goozWarcJd9LeFkPRHzgwa8KiMWAIZjcCsC0BPVXC8gMkDZOoGqNK6YxAljXUDtHwQPdrqIdEGCa9XsAkuEBjYelNfX6WqiVLVgoUTfuMyigwoKudrRPJcpi+ChAMeRM1whSSIkmjDTDg+szZnvIqc1SfWcnC5LHLGH/CGxNxBpvTghUSzVblwoWIFJxVXtzX6wnrICwYpm5mzNlGktcGtOKvLEZl1etMnsaNHY8U6Kp0u0ba2cYXUqRTtHYrEvJ0YGCPTWMvTWGLsfdG8qoVp338W1A7WN8BuAOx7Zv3ClHl1BSju33zl7ipmsmGbvY4ewtkc+4uBJf6wWyN09MlwHPpEBxpyqjvXe078HfPDZKj55BIvCYcKMwfKFaBcCbHFV6NZ489hbAdvV5JM/2jXYALFfe2idSPHl11Z2b1DbJtvyn9xPZ6UpE8J+Q7Hu7WuaHiMivPh3UrqpNe2fXKjDsif+r25vPvdvs2Zv8p16oe/586NPQ+/b48f871MPp6en6GWv5f/vdCo+u37z09g8=);lineShape=1;" vertex="1" parent="1">
                    <mxGeometry x="96.1955592858614" y="263.71054900111386" width="4.768374522588277" height="7.571814616925285" as="geometry"/>
                </mxCell>
                <mxCell id="128" value="" style="shape=stencil(lVrbkhU3DPyafXX5KtvPhPwHVSxhK4SlgNz+PlI2HsatM32yb8tBPbZkXdt+KG++fXz35fEhx2/fvz7/+vjn0/vvHx/KTw85P33++Pj16bv+9VDePpQ3H56/Pv7y9fn3z+9f/v3lnUnaX789/2Ff+OsFl0NKBsrx75cfYij53x9+fhH/9PR5Fy+beAqlMfE4N/ESpFJx2cQlJLqZ/9Ze4jPIuBYvIcZ97zUUYfJz/3yaYZDdt5D37+svnexHQt9tWVKY6Vp+hArGHCGS76cY6q5ALWFMAsih7SvUSQ9ADSh5AzQ9YGLSJKECoIdGdE4DPUhiGMTj9IxAB+FKq8PPPQJEDyYSgPfSyYNAHW9XuqfQOwWM3ZO6+mIhAHXkXene1ieuAGPXoXcaC+rKCQCDnrQCKugw+ZZaaGMDjMgPTqOr7gCNH77C6Dsgh8nSUVv/fQBqiOzgJMTdl0YLhW1J0L2HcLMeGfEA8CRgK4BZZ6h3APvBzci9Va20b2mme2aFc5h6DnwFBGiEsMLgAZWmmRs6NB4PgmlGAZN5a1+14ADISs+3ARNjevZVq2+XK63cCQEskWm5kd29p5YYkmZKDakjoLMK2sMUBLASXdXVmgOQk64Vc6sCGvGl2m+swFyjpXWuZyuxNkBdw22pENeQFJI7h0J0kBbE6cC8VQvU9CsQgNWb8Zotafno7qQZQHN1eh2gYiIzAAkgzaTNr0DiQTNpd1bK5KQtMRYEJLIlTVsYD52me00quSAgMYCs5H5KM6yh1+9hE91WSF0BOrh3CZkEkAKgb528sOuOIVVajSOuMV08qLMMBqho1sHnGC1Qsm9JHZ7lJS2BMChpSLEqOo7Z4tRVsp5PbQI1TvvWzN0771aSo9+/Dehh7Eq3GSKLOLXJvqXWqJUU0HYrtRwyqQ8KKPsKOqEwb1VAgpGmUddQALRwNS+Hv0ozA8Y4HUF4XpK9wSpCk7EC8n4ORSOOAdqKrwMQuVm1Wd/zkrYrlflSwxlIJwo22WtAym4lG6OYWbXX2JXWyU7YdFwwRNMdHQrO66nRwq7TAqT7VJbDXwHy7q06YUe2QsKxTGf4xk46YTxMWh7GMTwfaYmm4uF6Slnt0+02YKKJjiHtSh7op7pyzm35geWtrt7pqi0Z+/cL73sEyYBMY1nlRwb5Srza5DvIZ2J/3X9sIJ+YfTQ/QpjR6bAfE8JJnu1/4HnlNS1eyTe0TyRFTeWh5BwM4qX/yGvsM719WEto8nhebEJS+Yz7p/4zXR6l/aDap6M/0Hg82vyTPPe3id9npI3KN7cftv++WsWTvmw/gg0zb1m6K8Z5VbZL+QryhZ2vLKLiFL+kKJm+uB82w5s98fusYNh5OXn2ffUHF19cvrvvM3tOHNIyHYgsXibak3//VfJav6ANL6sfvJKHJuIYhC+nWKDYaTyqvGB9pG2Tu2/h9KDKQwfeKVHmeyBNqLxnkt3+1qCwrqyu7x2ARHkyBcDUbk0WU6GtinJq4xjdooC256DEuW/tv4FjsksG1veJa6fvKC2LuD6300zp7uKgc/bETe02EjClBxLNNnQwVz24w/NYw2JhoK/a4MRXgObVRjPmfBNdw4Y/pvTE8mTjJV8B8um9AXZiQ2QjMl8BO+pJW6gZsUUT3oMYiwXMg3AWKy2rn6gKSrf4C7BCy76x9XCf1bkOgsy0ZtrMttSR+zbKiGS+ObBTMFKKhOicjqSN1PlSjO7mpSzK5moJJF3bssOVEhPoRF5PjLvbT87oP0aJNswCxpYzdvDIKicAa1HV+4CgMa14JoOZQu3GhhYjaJIDsGzsqek7aeMW+c0KxE16nTUmRuC7Wwu2grGN8hor2SWEV5pYSTQiswOQg2viImiudug2IGP6VgALoDqwQCiAcUa14jylgMYutFyDOI+EfhNQ3MQ2eXItDSkLBbDb1HKjh4v0qLVV8P7NiK98XLScj5pddnYHGHRwy/5yp9+7/Meg7vxqvrrEJFzp4nQQ6t/5YHFP6ZtNnwpApSu/yy/usrPwRxjFFYi8GIErKwGBYZf//KkKXnZGShnYOexmvfeAwV/uDEoiZUc1jzsnfbwCOQBt8aSXZnUXVHRLBXkMe6rCfQkKhD2GIdk4uyygs+8dADifPejh3gpcm7EJ3EqQjbXssd7ByCDYEu/vbQyD8bjwVxsJr496om8Ac0Tn08LKGGEdJfGBm9BXgzqsAiUjnKNIgrcQEun7HHvVt0ecPdLj7wb7rkMrtEtMEb3VHhqyARl3VAtNS4LdvZZVdk9QkZa3p5jk+8617cURCx7MkokX9YQFN1XKacQVJz9oHPbyJ2L+4u9s4+Igf5BijLRyYwy/W4/Yz/MXyG4zkbZ4jgCMdEKKyN9Hyteq3TuIs4ofMedG2jFHfLXD2zSXq+6JV7QM20xag+L/UzUhV8MN6R5Z8WPKGB/cCV7/yJ2L6x8/3tN/ePr06eU5/vn/8f29/vTydr+8/Qc=);lineShape=1;" vertex="1" parent="1">
                    <mxGeometry x="114.0627138410104" y="216.49679629007073" width="18.65599051099751" height="59.75241746734193" as="geometry"/>
                </mxCell>
                <mxCell id="129" value="" style="shape=stencil(lVfLbhsxDPyavRLUmzqn6X8EiFMbde3Acdrm78OtK2RFeSfObS1zJGo4HElTuHvZPjxvJs8v59Px5+bP7vG8ncK3yfvdYbs57c76NYX7Kdw9HU+bH6fj6+Hx8vv5YY6cv34df88z/L3gHDMxzzDPb/+HyMm/ge8XwH53WABqJcldfCIfYXw28wcKFQCEOHaAOaMAAJGSdIDAlNM6QIRiD4iOYlkHlErV9Xv2beQqICtJqQPkSB7sIQnl2gFKpArKECNl3wEkUwB18NJIbICZt7wOcIlSv2ktZWAA0C0WC8gI4CkMAAEsOdXqkFJFhaPYS2kh9+u0Ug3DAh6wSmWIL6AKjrja+AjKzOSyjXegaLo7Ey8kIH+mIjY+gub05If5PWiE2DS5iGfUOCS9WdRCFdRLFSlDPJjfuUbHMiFAkJqV6eR5x0ijaegCoYRWSIPmpK25BigmJRUFKJo2Zhn6LKHGDMQDoCCv4Na3y74BLElzklsbM7W2Wi4AMgoUB6cQJIzmhUuKgLPwILza6r7WmEbYAgliioPskJd+NV69N5sSR9gIWrLSW5ceONBKvZWpHmkZyDQFu0IOVAFA/zbuq8dyASkVT67vfj34A1BFKS2BxdUioauFXlV6WmfLBwYvegb2LH1yPVKA65WE71+aUTULwPudzu97jhg6sMYbivTyhTo/jvPD/SZrwEwe5VPskcbNzK7Hqy/Y/JGsq7fe+El8bHTflk/Ntr54v3rgmSbAfM6+Y/NH9fq40Nymhy8/KG4A6MfH++Vpt99fnj/L/+17R4cub6Vw/w4=);lineShape=1;" vertex="1" parent="1">
                    <mxGeometry x="88.26017158143736" y="277.798728135972" width="3.745647673777382" height="28.348796307249508" as="geometry"/>
                </mxCell>
                <mxCell id="130" value="" style="shape=stencil(rVfZctpAEPwaXqd2d/Z8dpz/cJVxoELAhXGOv08rIMyOoIWr8ibEtHau7pld6MPb6ul1uQju7bDffV/+Wj8fVgv9sghhvV0t9+sDnhb6uNCHl91++W2/e98+H3+/Pg2Ww9OP3c/hC7+POO+cODfAgvtzeiU+/Xvx9QjYrLcXgNak5c4+ifPUvpjve4n8gBR6QJbCAVo7QFAJjQJCD1AnlQGqVN8DGg+6iJYOEItERwBRSn9CShzgpPRZykEyiaEm0dgDmngSQ6nitQMUOJlvA/C9YgBNciEAZ7NUVSoJOqFMBoC0khhiEO2bFXljzadJfN+tTcWRoAMq3dehJcnxNsC3kV5nAHpJCaBIrhYQGSBZPgwcJEH7IMlZQGOME+1DuFCR65WWECcHEHuV5K096yQ/JuTC/lSWq/Zu4k+lAoDokrVnJUCfmgoUaeT7oG6y9pn0Nbq0WHsWL6g88cezfPoJb2YA0VJ5xiNoegsWkEiKfLUKOeSUuYQ5YoJG0ZhLbdJFdazjLZeCCRptR8qGoEOwgEzUxV8jAiOOd6Me3kvNImEiR4z70XJ/EBcmkOIm1GcK7CRNqOyInk7WFxSN9ZGbaN15zv0Xe1TA7AqY7Yk1BfJhMhRGubk1ck5adZ6CaHWSIkWNezbXTGdUBDl7lzCYPSkylpXWu4TRz/QiR/EGgMYiZSveSnYGOYlLJds1EgtSIoWrztIfUSlhDnJiWg9LnpLCVYTYn6CVjgUAci8wM4sqAKkHzKzCAJjmm1m2ATB6MbPOA2CyxO8LyGozB9D7SJ10kqOiDXuzQzo6arE3N2uv7PtlHDIf9oF1UbNrNhSNMKf5MX0X9uyiECyXZ+yRH+s/9SeP2nNfvMPUrp/I5yD/1p7VaxhHtl50iH/2AnwHAA8f9+2X9WZzvK5f/m/v53h1vNvr418=);lineShape=1;" vertex="1" parent="1">
                    <mxGeometry x="91.833238431062" y="275.4171124674539" width="4.220868027226689" height="29.12680634026769" as="geometry"/>
                </mxCell>
                <mxCell id="131" value="" style="shape=stencil(lVjbUhsxDP2avGrku/1M6X8wQyiZUsKE0MvfV27GZSWzZ8nbZvecWLKOLvYu3Lw+3r3sd55fz6fj9/2vw/35cRe+7Lw/PD/uT4ezPO3C7S7cPBxP+2+n49vz/eX3y11H9qcfx5/9H35feJlc7STPfy4vArXy78XXC/zp8KzgnBTcBSptHZ+oeoWXNwnjmzYnEmN8UfgYKAWIDwqfAnkH8VHhs6eQ4f5oewqTh/sZWeMzlbSOL5Q0vkaqwJ5G1Wl8o1jX8S6RK5aQgQOeR/z/Eyo1YJGv1uVaYMhCoWwIiRjELBaqWqTVUQI+pEpZJ0HBJuVGwYRZZOTXCZWpaR9yoQJ8aExB+9CFx4CQKWmCeJXQCoWCtwQPpNcqOWcJATgtBJM8QoBOizYNQTYaqFUINj0l3YD4HDOxCYSDCSpL2Mh58timlDUBlxghsLOEFuG+BkOIFHGok7cElBAiphItIYAy3Ka+0H1Ack1DnAuCQ+pLtlH1OCCnk5WrRNohHxJ5XclETBuEoqXR5YoSIn+Qcqi4SuB4SmpYBabS15Ma9QcxYErqhMTXxv8tnHagVgqhBEtoKNJtTCCLODS8QjMZ57ZWKFNONxS4Nqr7Qq0FmVRtNZYE8khLVxP8KNbLjgKcrn4MXouehUYBmVyalkZpoyl93BWl9upIy3DCQEuxjbK1mB0ykHcQqek4yDYUNJ1M4us5CEzyjrLepd7FgNN9YNIrLHrMyshnOntvrCAOnpwWa3NUAH4KW82wdvM0y0jVAcnAYwBejLio+/DY8E+O0NPkszGis+2GG0cAtmV+44gx+btxhOFJEPiINE0k+ATGw9h3OBqGp930oy2uwIvusg52NPmqfeUxSa/AWzNwDyIlue0NHCWWlLN8BTyO5v45Y6LtrNjVZE85eCOncykOU75OBFcf8jfg8vB+n/BweHq6XEcsv9v7B3l1ubsIt38B);lineShape=1;" vertex="1" parent="1">
                    <mxGeometry x="84.32870406838356" y="298.6553817054631" width="14.05729757384322" height="10.871167532688148" as="geometry"/>
                </mxCell>
                <mxCell id="132" value="sum it all -3 + 8 + 3 = 8" style="text;html=1;align=center;verticalAlign=middle;resizable=0;points=[];autosize=1;strokeColor=none;fillColor=none;" vertex="1" parent="1">
                    <mxGeometry x="-5" y="305" width="150" height="30" as="geometry"/>
                </mxCell>
                <mxCell id="133" value="calculator solve" style="text;html=1;align=center;verticalAlign=middle;resizable=0;points=[];autosize=1;strokeColor=none;fillColor=none;" vertex="1" parent="1">
                    <mxGeometry x="-2.0999999999999996" width="110" height="30" as="geometry"/>
                </mxCell>
            </root>
        </mxGraphModel>
    </diagram>
</mxfile>